<?xml version="1.0" standalone="no"?>
<!DOCTYPE svg PUBLIC "-//W3C//DTD SVG 1.1//EN" "http://www.w3.org/Graphics/SVG/1.1/DTD/svg11.dtd" >
<svg xmlns="http://www.w3.org/2000/svg">
<metadata></metadata>
<defs>
<font id="5x5_dotsregular" horiz-adv-x="1622" >
<font-face units-per-em="2048" ascent="1638" descent="-410" />
<missing-glyph horiz-adv-x="1024" />
<glyph horiz-adv-x="2048" />
<glyph horiz-adv-x="2048" />
<glyph unicode="&#xd;" horiz-adv-x="1024" />
<glyph unicode=" "  horiz-adv-x="1024" />
<glyph unicode="&#x09;" horiz-adv-x="1024" />
<glyph unicode="&#xa0;" horiz-adv-x="1024" />
<glyph unicode="!" horiz-adv-x="450" d="M109 116q0 48 34.5 81.5t81.5 33.5t82 -33.5t35 -81.5t-35 -82t-82 -34t-81.5 34t-34.5 82zM109 701q0 48 34.5 82t81.5 34t82 -33.5t35 -82t-35 -82t-82 -33.5t-81.5 33.5t-34.5 81.5zM109 994q0 48 34.5 82t81.5 34t82 -34t35 -82t-35 -81.5t-82 -33.5t-81.5 33.5 t-34.5 81.5zM109 1287q0 48 34.5 82t81.5 34t82 -34t35 -82t-35 -82t-82 -34t-81.5 34t-34.5 82z" />
<glyph unicode="&#x22;" horiz-adv-x="1036" d="M109 994q0 48 34.5 82t81.5 34t82 -34t35 -82t-35 -81.5t-82 -33.5t-81.5 33.5t-34.5 81.5zM109 1287q0 48 34.5 82t81.5 34t82 -34t35 -82t-35 -82t-82 -34t-81.5 34t-34.5 82zM694 994q0 48 35 82t82 34t82 -34t35 -82t-35 -81.5t-82 -33.5t-82 33.5t-35 81.5z M694 1287q0 48 35 82t82 34t82 -34t35 -82t-35 -82t-82 -34t-82 34t-35 82z" />
<glyph unicode="#" d="M109 409q0 48 34.5 81.5t81.5 33.5t82 -33.5t35 -81.5t-35 -82t-82 -34t-81.5 34t-34.5 82zM109 994q0 48 34.5 82t81.5 34t82 -34t35 -82t-35 -81.5t-82 -33.5t-81.5 33.5t-34.5 81.5zM401 116q0 48 35 81.5t82 33.5t82 -33.5t35 -81.5t-35 -82t-82 -34t-82 34t-35 82z M401 409q0 48 35 81.5t82 33.5t82 -33.5t35 -81.5t-35 -82t-82 -34t-82 34t-35 82zM401 701q0 48 35 82t82 34t82 -33.5t35 -82t-35 -82t-82 -33.5t-82 33.5t-35 81.5zM401 994q0 48 35 82t82 34t82 -34t35 -82t-35 -81.5t-82 -33.5t-82 33.5t-35 81.5zM401 1287q0 48 35 82 t82 34t82 -34t35 -82t-35 -82t-82 -34t-82 34t-35 82zM694 409q0 48 35 81.5t82 33.5t82 -33.5t35 -81.5t-35 -82t-82 -34t-82 34t-35 82zM694 994q0 48 35 82t82 34t82 -34t35 -82t-35 -81.5t-82 -33.5t-82 33.5t-35 81.5zM987 116q0 48 35 81.5t82 33.5t82 -33.5t35 -81.5 t-35 -82t-82 -34t-82 34t-35 82zM987 409q0 48 35 81.5t82 33.5t82 -33.5t35 -81.5t-35 -82t-82 -34t-82 34t-35 82zM987 701q0 48 35 82t82 34t82 -33.5t35 -82t-35 -82t-82 -33.5t-82 33.5t-35 81.5zM987 994q0 48 35 82t82 34t82 -34t35 -82t-35 -81.5t-82 -33.5 t-82 33.5t-35 81.5zM987 1287q0 48 35 82t82 34t82 -34t35 -82t-35 -82t-82 -34t-82 34t-35 82zM1280 409q0 48 35 81.5t82 33.5t81.5 -33.5t34.5 -81.5t-34.5 -82t-81.5 -34t-82 34t-35 82zM1280 994q0 48 35 82t82 34t81.5 -34t34.5 -82t-34.5 -81.5t-81.5 -33.5t-82 33.5 t-35 81.5z" />
<glyph unicode="$" d="M109 116q0 48 34.5 81.5t81.5 33.5t82 -33.5t35 -81.5t-35 -82t-82 -34t-81.5 34t-34.5 82zM109 994q0 48 34.5 82t81.5 34t82 -34t35 -82t-35 -81.5t-82 -33.5t-81.5 33.5t-34.5 81.5zM401 116q0 48 35 81.5t82 33.5t82 -33.5t35 -81.5t-35 -82t-82 -34t-82 34t-35 82z M401 701q0 48 35 82t82 34t82 -33.5t35 -82t-35 -82t-82 -33.5t-82 33.5t-35 81.5zM401 1287q0 48 35 82t82 34t82 -34t35 -82t-35 -82t-82 -34t-82 34t-35 82zM694 116q0 48 35 81.5t82 33.5t82 -33.5t35 -81.5t-35 -82t-82 -34t-82 34t-35 82zM694 409q0 48 35 81.5 t82 33.5t82 -33.5t35 -81.5t-35 -82t-82 -34t-82 34t-35 82zM694 701q0 48 35 82t82 34t82 -33.5t35 -82t-35 -82t-82 -33.5t-82 33.5t-35 81.5zM694 994q0 48 35 82t82 34t82 -34t35 -82t-35 -81.5t-82 -33.5t-82 33.5t-35 81.5zM694 1287q0 48 35 82t82 34t82 -34t35 -82 t-35 -82t-82 -34t-82 34t-35 82zM987 116q0 48 35 81.5t82 33.5t82 -33.5t35 -81.5t-35 -82t-82 -34t-82 34t-35 82zM987 701q0 48 35 82t82 34t82 -33.5t35 -82t-35 -82t-82 -33.5t-82 33.5t-35 81.5zM987 1287q0 48 35 82t82 34t82 -34t35 -82t-35 -82t-82 -34t-82 34 t-35 82zM1280 409q0 48 35 81.5t82 33.5t81.5 -33.5t34.5 -81.5t-34.5 -82t-81.5 -34t-82 34t-35 82zM1280 1287q0 48 35 82t82 34t81.5 -34t34.5 -82t-34.5 -82t-81.5 -34t-82 34t-35 82z" />
<glyph unicode="%" d="M109 116q0 48 34.5 81.5t81.5 33.5t82 -33.5t35 -81.5t-35 -82t-82 -34t-81.5 34t-34.5 82zM109 1287q0 48 34.5 82t81.5 34t82 -34t35 -82t-35 -82t-82 -34t-81.5 34t-34.5 82zM401 409q0 48 35 81.5t82 33.5t82 -33.5t35 -81.5t-35 -82t-82 -34t-82 34t-35 82zM694 701 q0 48 35 82t82 34t82 -33.5t35 -82t-35 -82t-82 -33.5t-82 33.5t-35 81.5zM987 994q0 48 35 82t82 34t82 -34t35 -82t-35 -81.5t-82 -33.5t-82 33.5t-35 81.5zM1280 116q0 48 35 81.5t82 33.5t81.5 -33.5t34.5 -81.5t-34.5 -82t-81.5 -34t-82 34t-35 82zM1280 1287 q0 48 35 82t82 34t81.5 -34t34.5 -82t-34.5 -82t-81.5 -34t-82 34t-35 82z" />
<glyph unicode="&#x26;" d="M109 409q0 48 34.5 81.5t81.5 33.5t82 -33.5t35 -81.5t-35 -82t-82 -34t-81.5 34t-34.5 82zM109 994q0 48 34.5 82t81.5 34t82 -34t35 -82t-35 -81.5t-82 -33.5t-81.5 33.5t-34.5 81.5zM401 116q0 48 35 81.5t82 33.5t82 -33.5t35 -81.5t-35 -82t-82 -34t-82 34t-35 82z M401 701q0 48 35 82t82 34t82 -33.5t35 -82t-35 -82t-82 -33.5t-82 33.5t-35 81.5zM401 1287q0 48 35 82t82 34t82 -34t35 -82t-35 -82t-82 -34t-82 34t-35 82zM694 116q0 48 35 81.5t82 33.5t82 -33.5t35 -81.5t-35 -82t-82 -34t-82 34t-35 82zM694 701q0 48 35 82t82 34 t82 -33.5t35 -82t-35 -82t-82 -33.5t-82 33.5t-35 81.5zM694 1287q0 48 35 82t82 34t82 -34t35 -82t-35 -82t-82 -34t-82 34t-35 82zM987 116q0 48 35 81.5t82 33.5t82 -33.5t35 -81.5t-35 -82t-82 -34t-82 34t-35 82zM987 409q0 48 35 81.5t82 33.5t82 -33.5t35 -81.5 t-35 -82t-82 -34t-82 34t-35 82zM987 701q0 48 35 82t82 34t82 -33.5t35 -82t-35 -82t-82 -33.5t-82 33.5t-35 81.5zM987 994q0 48 35 82t82 34t82 -34t35 -82t-35 -81.5t-82 -33.5t-82 33.5t-35 81.5zM1280 116q0 48 35 81.5t82 33.5t81.5 -33.5t34.5 -81.5t-34.5 -82 t-81.5 -34t-82 34t-35 82zM1280 701q0 48 35 82t82 34t81.5 -33.5t34.5 -82t-34.5 -82t-81.5 -33.5t-82 33.5t-35 81.5z" />
<glyph unicode="'" horiz-adv-x="450" d="M109 1287q0 48 34.5 82t81.5 34t82 -34t35 -82t-35 -82t-82 -34t-81.5 34t-34.5 82z" />
<glyph unicode="(" horiz-adv-x="741" d="M109 409q0 48 33.5 81.5t81.5 33.5t82 -33.5t34 -81.5t-34 -82t-82 -34t-81.5 34t-33.5 82zM109 701q0 48 33.5 82t81.5 34t82 -33.5t34 -82t-34 -82t-82 -33.5t-81.5 33.5t-33.5 81.5zM109 994q0 48 33.5 82t81.5 34t82 -34t34 -82t-34 -81.5t-82 -33.5t-81.5 33.5 t-33.5 81.5zM401 116q0 48 34 81.5t82 33.5t82 -33.5t34 -81.5t-34 -82t-82 -34t-82 34t-34 82zM401 1287q0 48 34 82t82 34t82 -34t34 -82t-34 -82t-82 -34t-82 34t-34 82z" />
<glyph unicode=")" horiz-adv-x="741" d="M109 116q0 48 33.5 81.5t81.5 33.5t82 -33.5t34 -81.5t-34 -82t-82 -34t-81.5 34t-33.5 82zM109 1287q0 48 33.5 82t81.5 34t82 -34t34 -82t-34 -82t-82 -34t-81.5 34t-33.5 82zM401 409q0 48 34 81.5t82 33.5t82 -33.5t34 -81.5t-34 -82t-82 -34t-82 34t-34 82zM401 701 q0 48 34 82t82 34t82 -33.5t34 -82t-34 -82t-82 -33.5t-82 33.5t-34 81.5zM401 994q0 48 34 82t82 34t82 -34t34 -82t-34 -81.5t-82 -33.5t-82 33.5t-34 81.5z" />
<glyph unicode="*" d="M109 409q0 48 34.5 81.5t81.5 33.5t82 -33.5t35 -81.5t-35 -82t-82 -34t-81.5 34t-34.5 82zM109 994q0 48 34.5 82t81.5 34t82 -34t35 -82t-35 -81.5t-82 -33.5t-81.5 33.5t-34.5 81.5zM401 701q0 48 35 82t82 34t82 -33.5t35 -82t-35 -82t-82 -33.5t-82 33.5t-35 81.5z M694 116q0 48 35 81.5t82 33.5t82 -33.5t35 -81.5t-35 -82t-82 -34t-82 34t-35 82zM694 409q0 48 35 81.5t82 33.5t82 -33.5t35 -81.5t-35 -82t-82 -34t-82 34t-35 82zM694 701q0 48 35 82t82 34t82 -33.5t35 -82t-35 -82t-82 -33.5t-82 33.5t-35 81.5zM694 994q0 48 35 82 t82 34t82 -34t35 -82t-35 -81.5t-82 -33.5t-82 33.5t-35 81.5zM694 1287q0 48 35 82t82 34t82 -34t35 -82t-35 -82t-82 -34t-82 34t-35 82zM987 701q0 48 35 82t82 34t82 -33.5t35 -82t-35 -82t-82 -33.5t-82 33.5t-35 81.5zM1280 409q0 48 35 81.5t82 33.5t81.5 -33.5 t34.5 -81.5t-34.5 -82t-81.5 -34t-82 34t-35 82zM1280 994q0 48 35 82t82 34t81.5 -34t34.5 -82t-34.5 -81.5t-81.5 -33.5t-82 33.5t-35 81.5z" />
<glyph unicode="+" horiz-adv-x="1036" d="M109 701q0 48 34.5 82t81.5 34t82 -33.5t35 -82t-35 -82t-82 -33.5t-81.5 33.5t-34.5 81.5zM401 409q0 48 35 81.5t82 33.5t82 -33.5t35 -81.5t-35 -82t-82 -34t-82 34t-35 82zM401 701q0 48 35 82t82 34t82 -33.5t35 -82t-35 -82t-82 -33.5t-82 33.5t-35 81.5zM401 994 q0 48 35 82t82 34t82 -34t35 -82t-35 -81.5t-82 -33.5t-82 33.5t-35 81.5zM694 701q0 48 35 82t82 34t82 -33.5t35 -82t-35 -82t-82 -33.5t-82 33.5t-35 81.5z" />
<glyph unicode="," horiz-adv-x="450" d="M109 116q0 48 34.5 81.5t81.5 33.5t82 -33.5t35 -81.5t-35 -82t-82 -34t-81.5 34t-34.5 82z" />
<glyph unicode="-" horiz-adv-x="1036" d="M109 701q0 48 34.5 82t81.5 34t82 -33.5t35 -82t-35 -82t-82 -33.5t-81.5 33.5t-34.5 81.5zM401 701q0 48 35 82t82 34t82 -33.5t35 -82t-35 -82t-82 -33.5t-82 33.5t-35 81.5zM694 701q0 48 35 82t82 34t82 -33.5t35 -82t-35 -82t-82 -33.5t-82 33.5t-35 81.5z" />
<glyph unicode="." horiz-adv-x="450" d="M109 116q0 48 34.5 81.5t81.5 33.5t82 -33.5t35 -81.5t-35 -82t-82 -34t-81.5 34t-34.5 82z" />
<glyph unicode="/" d="M109 116q0 48 34.5 81.5t81.5 33.5t82 -33.5t35 -81.5t-35 -82t-82 -34t-81.5 34t-34.5 82zM401 409q0 48 35 81.5t82 33.5t82 -33.5t35 -81.5t-35 -82t-82 -34t-82 34t-35 82zM694 701q0 48 35 82t82 34t82 -33.5t35 -82t-35 -82t-82 -33.5t-82 33.5t-35 81.5zM987 994 q0 48 35 82t82 34t82 -34t35 -82t-35 -81.5t-82 -33.5t-82 33.5t-35 81.5zM1280 1287q0 48 35 82t82 34t81.5 -34t34.5 -82t-34.5 -82t-81.5 -34t-82 34t-35 82z" />
<glyph unicode="0" d="M109 409q0 48 34.5 81.5t81.5 33.5t82 -33.5t35 -81.5t-35 -82t-82 -34t-81.5 34t-34.5 82zM109 701q0 48 34.5 82t81.5 34t82 -33.5t35 -82t-35 -82t-82 -33.5t-81.5 33.5t-34.5 81.5zM109 994q0 48 34.5 82t81.5 34t82 -34t35 -82t-35 -81.5t-82 -33.5t-81.5 33.5 t-34.5 81.5zM401 116q0 48 35 81.5t82 33.5t82 -33.5t35 -81.5t-35 -82t-82 -34t-82 34t-35 82zM401 409q0 48 35 81.5t82 33.5t82 -33.5t35 -81.5t-35 -82t-82 -34t-82 34t-35 82zM401 1287q0 48 35 82t82 34t82 -34t35 -82t-35 -82t-82 -34t-82 34t-35 82zM694 116 q0 48 35 81.5t82 33.5t82 -33.5t35 -81.5t-35 -82t-82 -34t-82 34t-35 82zM694 701q0 48 35 82t82 34t82 -33.5t35 -82t-35 -82t-82 -33.5t-82 33.5t-35 81.5zM694 1287q0 48 35 82t82 34t82 -34t35 -82t-35 -82t-82 -34t-82 34t-35 82zM987 116q0 48 35 81.5t82 33.5 t82 -33.5t35 -81.5t-35 -82t-82 -34t-82 34t-35 82zM987 994q0 48 35 82t82 34t82 -34t35 -82t-35 -81.5t-82 -33.5t-82 33.5t-35 81.5zM987 1287q0 48 35 82t82 34t82 -34t35 -82t-35 -82t-82 -34t-82 34t-35 82zM1280 409q0 48 35 81.5t82 33.5t81.5 -33.5t34.5 -81.5 t-34.5 -82t-81.5 -34t-82 34t-35 82zM1280 701q0 48 35 82t82 34t81.5 -33.5t34.5 -82t-34.5 -82t-81.5 -33.5t-82 33.5t-35 81.5zM1280 994q0 48 35 82t82 34t81.5 -34t34.5 -82t-34.5 -81.5t-81.5 -33.5t-82 33.5t-35 81.5z" />
<glyph unicode="1" horiz-adv-x="1036" d="M109 116q0 48 34.5 81.5t81.5 33.5t82 -33.5t35 -81.5t-35 -82t-82 -34t-81.5 34t-34.5 82zM109 994q0 48 34.5 82t81.5 34t82 -34t35 -82t-35 -81.5t-82 -33.5t-81.5 33.5t-34.5 81.5zM401 116q0 48 35 81.5t82 33.5t82 -33.5t35 -81.5t-35 -82t-82 -34t-82 34t-35 82z M401 409q0 48 35 81.5t82 33.5t82 -33.5t35 -81.5t-35 -82t-82 -34t-82 34t-35 82zM401 701q0 48 35 82t82 34t82 -33.5t35 -82t-35 -82t-82 -33.5t-82 33.5t-35 81.5zM401 994q0 48 35 82t82 34t82 -34t35 -82t-35 -81.5t-82 -33.5t-82 33.5t-35 81.5zM401 1287q0 48 35 82 t82 34t82 -34t35 -82t-35 -82t-82 -34t-82 34t-35 82zM694 116q0 48 35 81.5t82 33.5t82 -33.5t35 -81.5t-35 -82t-82 -34t-82 34t-35 82z" />
<glyph unicode="2" d="M109 116q0 48 34.5 81.5t81.5 33.5t82 -33.5t35 -81.5t-35 -82t-82 -34t-81.5 34t-34.5 82zM109 409q0 48 34.5 81.5t81.5 33.5t82 -33.5t35 -81.5t-35 -82t-82 -34t-81.5 34t-34.5 82zM109 1287q0 48 34.5 82t81.5 34t82 -34t35 -82t-35 -82t-82 -34t-81.5 34t-34.5 82z M401 116q0 48 35 81.5t82 33.5t82 -33.5t35 -81.5t-35 -82t-82 -34t-82 34t-35 82zM401 701q0 48 35 82t82 34t82 -33.5t35 -82t-35 -82t-82 -33.5t-82 33.5t-35 81.5zM401 1287q0 48 35 82t82 34t82 -34t35 -82t-35 -82t-82 -34t-82 34t-35 82zM694 116q0 48 35 81.5 t82 33.5t82 -33.5t35 -81.5t-35 -82t-82 -34t-82 34t-35 82zM694 701q0 48 35 82t82 34t82 -33.5t35 -82t-35 -82t-82 -33.5t-82 33.5t-35 81.5zM694 1287q0 48 35 82t82 34t82 -34t35 -82t-35 -82t-82 -34t-82 34t-35 82zM987 116q0 48 35 81.5t82 33.5t82 -33.5t35 -81.5 t-35 -82t-82 -34t-82 34t-35 82zM987 701q0 48 35 82t82 34t82 -33.5t35 -82t-35 -82t-82 -33.5t-82 33.5t-35 81.5zM987 1287q0 48 35 82t82 34t82 -34t35 -82t-35 -82t-82 -34t-82 34t-35 82zM1280 116q0 48 35 81.5t82 33.5t81.5 -33.5t34.5 -81.5t-34.5 -82t-81.5 -34 t-82 34t-35 82zM1280 994q0 48 35 82t82 34t81.5 -34t34.5 -82t-34.5 -81.5t-81.5 -33.5t-82 33.5t-35 81.5z" />
<glyph unicode="3" d="M109 116q0 48 34.5 81.5t81.5 33.5t82 -33.5t35 -81.5t-35 -82t-82 -34t-81.5 34t-34.5 82zM109 1287q0 48 34.5 82t81.5 34t82 -34t35 -82t-35 -82t-82 -34t-81.5 34t-34.5 82zM401 116q0 48 35 81.5t82 33.5t82 -33.5t35 -81.5t-35 -82t-82 -34t-82 34t-35 82z M401 1287q0 48 35 82t82 34t82 -34t35 -82t-35 -82t-82 -34t-82 34t-35 82zM694 116q0 48 35 81.5t82 33.5t82 -33.5t35 -81.5t-35 -82t-82 -34t-82 34t-35 82zM694 701q0 48 35 82t82 34t82 -33.5t35 -82t-35 -82t-82 -33.5t-82 33.5t-35 81.5zM694 1287q0 48 35 82t82 34 t82 -34t35 -82t-35 -82t-82 -34t-82 34t-35 82zM987 116q0 48 35 81.5t82 33.5t82 -33.5t35 -81.5t-35 -82t-82 -34t-82 34t-35 82zM987 701q0 48 35 82t82 34t82 -33.5t35 -82t-35 -82t-82 -33.5t-82 33.5t-35 81.5zM987 1287q0 48 35 82t82 34t82 -34t35 -82t-35 -82 t-82 -34t-82 34t-35 82zM1280 409q0 48 35 81.5t82 33.5t81.5 -33.5t34.5 -81.5t-34.5 -82t-81.5 -34t-82 34t-35 82zM1280 994q0 48 35 82t82 34t81.5 -34t34.5 -82t-34.5 -81.5t-81.5 -33.5t-82 33.5t-35 81.5z" />
<glyph unicode="4" d="M109 994q0 48 34.5 82t81.5 34t82 -34t35 -82t-35 -81.5t-82 -33.5t-81.5 33.5t-34.5 81.5zM109 1287q0 48 34.5 82t81.5 34t82 -34t35 -82t-35 -82t-82 -34t-81.5 34t-34.5 82zM401 701q0 48 35 82t82 34t82 -33.5t35 -82t-35 -82t-82 -33.5t-82 33.5t-35 81.5zM694 701 q0 48 35 82t82 34t82 -33.5t35 -82t-35 -82t-82 -33.5t-82 33.5t-35 81.5zM987 701q0 48 35 82t82 34t82 -33.5t35 -82t-35 -82t-82 -33.5t-82 33.5t-35 81.5zM1280 116q0 48 35 81.5t82 33.5t81.5 -33.5t34.5 -81.5t-34.5 -82t-81.5 -34t-82 34t-35 82zM1280 409 q0 48 35 81.5t82 33.5t81.5 -33.5t34.5 -81.5t-34.5 -82t-81.5 -34t-82 34t-35 82zM1280 701q0 48 35 82t82 34t81.5 -33.5t34.5 -82t-34.5 -82t-81.5 -33.5t-82 33.5t-35 81.5zM1280 994q0 48 35 82t82 34t81.5 -34t34.5 -82t-34.5 -81.5t-81.5 -33.5t-82 33.5t-35 81.5z M1280 1287q0 48 35 82t82 34t81.5 -34t34.5 -82t-34.5 -82t-81.5 -34t-82 34t-35 82z" />
<glyph unicode="5" d="M109 116q0 48 34.5 81.5t81.5 33.5t82 -33.5t35 -81.5t-35 -82t-82 -34t-81.5 34t-34.5 82zM109 701q0 48 34.5 82t81.5 34t82 -33.5t35 -82t-35 -82t-82 -33.5t-81.5 33.5t-34.5 81.5zM109 994q0 48 34.5 82t81.5 34t82 -34t35 -82t-35 -81.5t-82 -33.5t-81.5 33.5 t-34.5 81.5zM109 1287q0 48 34.5 82t81.5 34t82 -34t35 -82t-35 -82t-82 -34t-81.5 34t-34.5 82zM401 116q0 48 35 81.5t82 33.5t82 -33.5t35 -81.5t-35 -82t-82 -34t-82 34t-35 82zM401 701q0 48 35 82t82 34t82 -33.5t35 -82t-35 -82t-82 -33.5t-82 33.5t-35 81.5z M401 1287q0 48 35 82t82 34t82 -34t35 -82t-35 -82t-82 -34t-82 34t-35 82zM694 116q0 48 35 81.5t82 33.5t82 -33.5t35 -81.5t-35 -82t-82 -34t-82 34t-35 82zM694 701q0 48 35 82t82 34t82 -33.5t35 -82t-35 -82t-82 -33.5t-82 33.5t-35 81.5zM694 1287q0 48 35 82t82 34 t82 -34t35 -82t-35 -82t-82 -34t-82 34t-35 82zM987 116q0 48 35 81.5t82 33.5t82 -33.5t35 -81.5t-35 -82t-82 -34t-82 34t-35 82zM987 701q0 48 35 82t82 34t82 -33.5t35 -82t-35 -82t-82 -33.5t-82 33.5t-35 81.5zM987 1287q0 48 35 82t82 34t82 -34t35 -82t-35 -82 t-82 -34t-82 34t-35 82zM1280 409q0 48 35 81.5t82 33.5t81.5 -33.5t34.5 -81.5t-34.5 -82t-81.5 -34t-82 34t-35 82zM1280 1287q0 48 35 82t82 34t81.5 -34t34.5 -82t-34.5 -82t-81.5 -34t-82 34t-35 82z" />
<glyph unicode="6" d="M109 409q0 48 34.5 81.5t81.5 33.5t82 -33.5t35 -81.5t-35 -82t-82 -34t-81.5 34t-34.5 82zM109 701q0 48 34.5 82t81.5 34t82 -33.5t35 -82t-35 -82t-82 -33.5t-81.5 33.5t-34.5 81.5zM109 994q0 48 34.5 82t81.5 34t82 -34t35 -82t-35 -81.5t-82 -33.5t-81.5 33.5 t-34.5 81.5zM401 116q0 48 35 81.5t82 33.5t82 -33.5t35 -81.5t-35 -82t-82 -34t-82 34t-35 82zM401 701q0 48 35 82t82 34t82 -33.5t35 -82t-35 -82t-82 -33.5t-82 33.5t-35 81.5zM401 1287q0 48 35 82t82 34t82 -34t35 -82t-35 -82t-82 -34t-82 34t-35 82zM694 116 q0 48 35 81.5t82 33.5t82 -33.5t35 -81.5t-35 -82t-82 -34t-82 34t-35 82zM694 701q0 48 35 82t82 34t82 -33.5t35 -82t-35 -82t-82 -33.5t-82 33.5t-35 81.5zM694 1287q0 48 35 82t82 34t82 -34t35 -82t-35 -82t-82 -34t-82 34t-35 82zM987 116q0 48 35 81.5t82 33.5 t82 -33.5t35 -81.5t-35 -82t-82 -34t-82 34t-35 82zM987 701q0 48 35 82t82 34t82 -33.5t35 -82t-35 -82t-82 -33.5t-82 33.5t-35 81.5zM987 1287q0 48 35 82t82 34t82 -34t35 -82t-35 -82t-82 -34t-82 34t-35 82zM1280 409q0 48 35 81.5t82 33.5t81.5 -33.5t34.5 -81.5 t-34.5 -82t-81.5 -34t-82 34t-35 82zM1280 1287q0 48 35 82t82 34t81.5 -34t34.5 -82t-34.5 -82t-81.5 -34t-82 34t-35 82z" />
<glyph unicode="7" d="M109 1287q0 48 34.5 82t81.5 34t82 -34t35 -82t-35 -82t-82 -34t-81.5 34t-34.5 82zM401 1287q0 48 35 82t82 34t82 -34t35 -82t-35 -82t-82 -34t-82 34t-35 82zM694 1287q0 48 35 82t82 34t82 -34t35 -82t-35 -82t-82 -34t-82 34t-35 82zM987 116q0 48 35 81.5t82 33.5 t82 -33.5t35 -81.5t-35 -82t-82 -34t-82 34t-35 82zM987 409q0 48 35 81.5t82 33.5t82 -33.5t35 -81.5t-35 -82t-82 -34t-82 34t-35 82zM987 701q0 48 35 82t82 34t82 -33.5t35 -82t-35 -82t-82 -33.5t-82 33.5t-35 81.5zM987 1287q0 48 35 82t82 34t82 -34t35 -82t-35 -82 t-82 -34t-82 34t-35 82zM1280 994q0 48 35 82t82 34t81.5 -34t34.5 -82t-34.5 -81.5t-81.5 -33.5t-82 33.5t-35 81.5zM1280 1287q0 48 35 82t82 34t81.5 -34t34.5 -82t-34.5 -82t-81.5 -34t-82 34t-35 82z" />
<glyph unicode="8" d="M109 409q0 48 34.5 81.5t81.5 33.5t82 -33.5t35 -81.5t-35 -82t-82 -34t-81.5 34t-34.5 82zM109 994q0 48 34.5 82t81.5 34t82 -34t35 -82t-35 -81.5t-82 -33.5t-81.5 33.5t-34.5 81.5zM401 116q0 48 35 81.5t82 33.5t82 -33.5t35 -81.5t-35 -82t-82 -34t-82 34t-35 82z M401 701q0 48 35 82t82 34t82 -33.5t35 -82t-35 -82t-82 -33.5t-82 33.5t-35 81.5zM401 1287q0 48 35 82t82 34t82 -34t35 -82t-35 -82t-82 -34t-82 34t-35 82zM694 116q0 48 35 81.5t82 33.5t82 -33.5t35 -81.5t-35 -82t-82 -34t-82 34t-35 82zM694 701q0 48 35 82t82 34 t82 -33.5t35 -82t-35 -82t-82 -33.5t-82 33.5t-35 81.5zM694 1287q0 48 35 82t82 34t82 -34t35 -82t-35 -82t-82 -34t-82 34t-35 82zM987 116q0 48 35 81.5t82 33.5t82 -33.5t35 -81.5t-35 -82t-82 -34t-82 34t-35 82zM987 701q0 48 35 82t82 34t82 -33.5t35 -82t-35 -82 t-82 -33.5t-82 33.5t-35 81.5zM987 1287q0 48 35 82t82 34t82 -34t35 -82t-35 -82t-82 -34t-82 34t-35 82zM1280 409q0 48 35 81.5t82 33.5t81.5 -33.5t34.5 -81.5t-34.5 -82t-81.5 -34t-82 34t-35 82zM1280 994q0 48 35 82t82 34t81.5 -34t34.5 -82t-34.5 -81.5 t-81.5 -33.5t-82 33.5t-35 81.5z" />
<glyph unicode="9" d="M109 994q0 48 34.5 82t81.5 34t82 -34t35 -82t-35 -81.5t-82 -33.5t-81.5 33.5t-34.5 81.5zM401 701q0 48 35 82t82 34t82 -33.5t35 -82t-35 -82t-82 -33.5t-82 33.5t-35 81.5zM401 1287q0 48 35 82t82 34t82 -34t35 -82t-35 -82t-82 -34t-82 34t-35 82zM694 116 q0 48 35 81.5t82 33.5t82 -33.5t35 -81.5t-35 -82t-82 -34t-82 34t-35 82zM694 701q0 48 35 82t82 34t82 -33.5t35 -82t-35 -82t-82 -33.5t-82 33.5t-35 81.5zM694 1287q0 48 35 82t82 34t82 -34t35 -82t-35 -82t-82 -34t-82 34t-35 82zM987 116q0 48 35 81.5t82 33.5 t82 -33.5t35 -81.5t-35 -82t-82 -34t-82 34t-35 82zM987 701q0 48 35 82t82 34t82 -33.5t35 -82t-35 -82t-82 -33.5t-82 33.5t-35 81.5zM987 1287q0 48 35 82t82 34t82 -34t35 -82t-35 -82t-82 -34t-82 34t-35 82zM1280 409q0 48 35 81.5t82 33.5t81.5 -33.5t34.5 -81.5 t-34.5 -82t-81.5 -34t-82 34t-35 82zM1280 701q0 48 35 82t82 34t81.5 -33.5t34.5 -82t-34.5 -82t-81.5 -33.5t-82 33.5t-35 81.5zM1280 994q0 48 35 82t82 34t81.5 -34t34.5 -82t-34.5 -81.5t-81.5 -33.5t-82 33.5t-35 81.5z" />
<glyph unicode=":" horiz-adv-x="450" d="M109 116q0 48 34.5 81.5t81.5 33.5t82 -33.5t35 -81.5t-35 -82t-82 -34t-81.5 34t-34.5 82zM109 701q0 48 34.5 82t81.5 34t82 -33.5t35 -82t-35 -82t-82 -33.5t-81.5 33.5t-34.5 81.5z" />
<glyph unicode=";" horiz-adv-x="450" d="M109 116q0 48 34.5 81.5t81.5 33.5t82 -33.5t35 -81.5t-35 -82t-82 -34t-81.5 34t-34.5 82zM109 701q0 48 34.5 82t81.5 34t82 -33.5t35 -82t-35 -82t-82 -33.5t-81.5 33.5t-34.5 81.5z" />
<glyph unicode="&#x3c;" horiz-adv-x="1036" d="M109 701q0 48 34.5 82t81.5 34t82 -33.5t35 -82t-35 -82t-82 -33.5t-81.5 33.5t-34.5 81.5zM401 409q0 48 35 81.5t82 33.5t82 -33.5t35 -81.5t-35 -82t-82 -34t-82 34t-35 82zM401 994q0 48 35 82t82 34t82 -34t35 -82t-35 -81.5t-82 -33.5t-82 33.5t-35 81.5zM694 116 q0 48 35 81.5t82 33.5t82 -33.5t35 -81.5t-35 -82t-82 -34t-82 34t-35 82zM694 1287q0 48 35 82t82 34t82 -34t35 -82t-35 -82t-82 -34t-82 34t-35 82z" />
<glyph unicode="=" d="M109 409q0 48 34.5 81.5t81.5 33.5t82 -33.5t35 -81.5t-35 -82t-82 -34t-81.5 34t-34.5 82zM109 994q0 48 34.5 82t81.5 34t82 -34t35 -82t-35 -81.5t-82 -33.5t-81.5 33.5t-34.5 81.5zM401 409q0 48 35 81.5t82 33.5t82 -33.5t35 -81.5t-35 -82t-82 -34t-82 34t-35 82z M401 994q0 48 35 82t82 34t82 -34t35 -82t-35 -81.5t-82 -33.5t-82 33.5t-35 81.5zM694 409q0 48 35 81.5t82 33.5t82 -33.5t35 -81.5t-35 -82t-82 -34t-82 34t-35 82zM694 994q0 48 35 82t82 34t82 -34t35 -82t-35 -81.5t-82 -33.5t-82 33.5t-35 81.5zM987 409 q0 48 35 81.5t82 33.5t82 -33.5t35 -81.5t-35 -82t-82 -34t-82 34t-35 82zM987 994q0 48 35 82t82 34t82 -34t35 -82t-35 -81.5t-82 -33.5t-82 33.5t-35 81.5zM1280 409q0 48 35 81.5t82 33.5t81.5 -33.5t34.5 -81.5t-34.5 -82t-81.5 -34t-82 34t-35 82zM1280 994 q0 48 35 82t82 34t81.5 -34t34.5 -82t-34.5 -81.5t-81.5 -33.5t-82 33.5t-35 81.5z" />
<glyph unicode="&#x3e;" horiz-adv-x="1036" d="M109 116q0 48 34.5 81.5t81.5 33.5t82 -33.5t35 -81.5t-35 -82t-82 -34t-81.5 34t-34.5 82zM109 1287q0 48 34.5 82t81.5 34t82 -34t35 -82t-35 -82t-82 -34t-81.5 34t-34.5 82zM401 409q0 48 35 81.5t82 33.5t82 -33.5t35 -81.5t-35 -82t-82 -34t-82 34t-35 82zM401 994 q0 48 35 82t82 34t82 -34t35 -82t-35 -81.5t-82 -33.5t-82 33.5t-35 81.5zM694 701q0 48 35 82t82 34t82 -33.5t35 -82t-35 -82t-82 -33.5t-82 33.5t-35 81.5z" />
<glyph unicode="?" d="M109 994q0 48 34.5 82t81.5 34t82 -34t35 -82t-35 -81.5t-82 -33.5t-81.5 33.5t-34.5 81.5zM401 1287q0 48 35 82t82 34t82 -34t35 -82t-35 -82t-82 -34t-82 34t-35 82zM694 116q0 48 35 81.5t82 33.5t82 -33.5t35 -81.5t-35 -82t-82 -34t-82 34t-35 82zM694 701 q0 48 35 82t82 34t82 -33.5t35 -82t-35 -82t-82 -33.5t-82 33.5t-35 81.5zM694 1287q0 48 35 82t82 34t82 -34t35 -82t-35 -82t-82 -34t-82 34t-35 82zM987 701q0 48 35 82t82 34t82 -33.5t35 -82t-35 -82t-82 -33.5t-82 33.5t-35 81.5zM987 1287q0 48 35 82t82 34t82 -34 t35 -82t-35 -82t-82 -34t-82 34t-35 82zM1280 994q0 48 35 82t82 34t81.5 -34t34.5 -82t-34.5 -81.5t-81.5 -33.5t-82 33.5t-35 81.5z" />
<glyph unicode="@" d="M109 409q0 48 34.5 81.5t81.5 33.5t82 -33.5t35 -81.5t-35 -82t-82 -34t-81.5 34t-34.5 82zM109 701q0 48 34.5 82t81.5 34t82 -33.5t35 -82t-35 -82t-82 -33.5t-81.5 33.5t-34.5 81.5zM109 994q0 48 34.5 82t81.5 34t82 -34t35 -82t-35 -81.5t-82 -33.5t-81.5 33.5 t-34.5 81.5zM401 116q0 48 35 81.5t82 33.5t82 -33.5t35 -81.5t-35 -82t-82 -34t-82 34t-35 82zM401 1287q0 48 35 82t82 34t82 -34t35 -82t-35 -82t-82 -34t-82 34t-35 82zM694 116q0 48 35 81.5t82 33.5t82 -33.5t35 -81.5t-35 -82t-82 -34t-82 34t-35 82zM694 701 q0 48 35 82t82 34t82 -33.5t35 -82t-35 -82t-82 -33.5t-82 33.5t-35 81.5zM694 1287q0 48 35 82t82 34t82 -34t35 -82t-35 -82t-82 -34t-82 34t-35 82zM987 409q0 48 35 81.5t82 33.5t82 -33.5t35 -81.5t-35 -82t-82 -34t-82 34t-35 82zM987 1287q0 48 35 82t82 34t82 -34 t35 -82t-35 -82t-82 -34t-82 34t-35 82zM1280 409q0 48 35 81.5t82 33.5t81.5 -33.5t34.5 -81.5t-34.5 -82t-81.5 -34t-82 34t-35 82zM1280 701q0 48 35 82t82 34t81.5 -33.5t34.5 -82t-34.5 -82t-81.5 -33.5t-82 33.5t-35 81.5zM1280 994q0 48 35 82t82 34t81.5 -34 t34.5 -82t-34.5 -81.5t-81.5 -33.5t-82 33.5t-35 81.5z" />
<glyph unicode="A" d="M109 116q0 48 34.5 81.5t81.5 33.5t82 -33.5t35 -81.5t-35 -82t-82 -34t-81.5 34t-34.5 82zM109 409q0 48 34.5 81.5t81.5 33.5t82 -33.5t35 -81.5t-35 -82t-82 -34t-81.5 34t-34.5 82zM109 701q0 48 34.5 82t81.5 34t82 -33.5t35 -82t-35 -82t-82 -33.5t-81.5 33.5 t-34.5 81.5zM109 994q0 48 34.5 82t81.5 34t82 -34t35 -82t-35 -81.5t-82 -33.5t-81.5 33.5t-34.5 81.5zM401 701q0 48 35 82t82 34t82 -33.5t35 -82t-35 -82t-82 -33.5t-82 33.5t-35 81.5zM401 1287q0 48 35 82t82 34t82 -34t35 -82t-35 -82t-82 -34t-82 34t-35 82z M694 701q0 48 35 82t82 34t82 -33.5t35 -82t-35 -82t-82 -33.5t-82 33.5t-35 81.5zM694 1287q0 48 35 82t82 34t82 -34t35 -82t-35 -82t-82 -34t-82 34t-35 82zM987 701q0 48 35 82t82 34t82 -33.5t35 -82t-35 -82t-82 -33.5t-82 33.5t-35 81.5zM987 1287q0 48 35 82t82 34 t82 -34t35 -82t-35 -82t-82 -34t-82 34t-35 82zM1280 116q0 48 35 81.5t82 33.5t81.5 -33.5t34.5 -81.5t-34.5 -82t-81.5 -34t-82 34t-35 82zM1280 409q0 48 35 81.5t82 33.5t81.5 -33.5t34.5 -81.5t-34.5 -82t-81.5 -34t-82 34t-35 82zM1280 701q0 48 35 82t82 34 t81.5 -33.5t34.5 -82t-34.5 -82t-81.5 -33.5t-82 33.5t-35 81.5zM1280 994q0 48 35 82t82 34t81.5 -34t34.5 -82t-34.5 -81.5t-81.5 -33.5t-82 33.5t-35 81.5z" />
<glyph unicode="B" d="M109 116q0 48 34.5 81.5t81.5 33.5t82 -33.5t35 -81.5t-35 -82t-82 -34t-81.5 34t-34.5 82zM109 409q0 48 34.5 81.5t81.5 33.5t82 -33.5t35 -81.5t-35 -82t-82 -34t-81.5 34t-34.5 82zM109 701q0 48 34.5 82t81.5 34t82 -33.5t35 -82t-35 -82t-82 -33.5t-81.5 33.5 t-34.5 81.5zM109 994q0 48 34.5 82t81.5 34t82 -34t35 -82t-35 -81.5t-82 -33.5t-81.5 33.5t-34.5 81.5zM109 1287q0 48 34.5 82t81.5 34t82 -34t35 -82t-35 -82t-82 -34t-81.5 34t-34.5 82zM401 116q0 48 35 81.5t82 33.5t82 -33.5t35 -81.5t-35 -82t-82 -34t-82 34t-35 82 zM401 701q0 48 35 82t82 34t82 -33.5t35 -82t-35 -82t-82 -33.5t-82 33.5t-35 81.5zM401 1287q0 48 35 82t82 34t82 -34t35 -82t-35 -82t-82 -34t-82 34t-35 82zM694 116q0 48 35 81.5t82 33.5t82 -33.5t35 -81.5t-35 -82t-82 -34t-82 34t-35 82zM694 701q0 48 35 82t82 34 t82 -33.5t35 -82t-35 -82t-82 -33.5t-82 33.5t-35 81.5zM694 1287q0 48 35 82t82 34t82 -34t35 -82t-35 -82t-82 -34t-82 34t-35 82zM987 116q0 48 35 81.5t82 33.5t82 -33.5t35 -81.5t-35 -82t-82 -34t-82 34t-35 82zM987 701q0 48 35 82t82 34t82 -33.5t35 -82t-35 -82 t-82 -33.5t-82 33.5t-35 81.5zM987 1287q0 48 35 82t82 34t82 -34t35 -82t-35 -82t-82 -34t-82 34t-35 82zM1280 409q0 48 35 81.5t82 33.5t81.5 -33.5t34.5 -81.5t-34.5 -82t-81.5 -34t-82 34t-35 82zM1280 994q0 48 35 82t82 34t81.5 -34t34.5 -82t-34.5 -81.5 t-81.5 -33.5t-82 33.5t-35 81.5z" />
<glyph unicode="C" d="M109 409q0 48 34.5 81.5t81.5 33.5t82 -33.5t35 -81.5t-35 -82t-82 -34t-81.5 34t-34.5 82zM109 701q0 48 34.5 82t81.5 34t82 -33.5t35 -82t-35 -82t-82 -33.5t-81.5 33.5t-34.5 81.5zM109 994q0 48 34.5 82t81.5 34t82 -34t35 -82t-35 -81.5t-82 -33.5t-81.5 33.5 t-34.5 81.5zM401 116q0 48 35 81.5t82 33.5t82 -33.5t35 -81.5t-35 -82t-82 -34t-82 34t-35 82zM401 1287q0 48 35 82t82 34t82 -34t35 -82t-35 -82t-82 -34t-82 34t-35 82zM694 116q0 48 35 81.5t82 33.5t82 -33.5t35 -81.5t-35 -82t-82 -34t-82 34t-35 82zM694 1287 q0 48 35 82t82 34t82 -34t35 -82t-35 -82t-82 -34t-82 34t-35 82zM987 116q0 48 35 81.5t82 33.5t82 -33.5t35 -81.5t-35 -82t-82 -34t-82 34t-35 82zM987 1287q0 48 35 82t82 34t82 -34t35 -82t-35 -82t-82 -34t-82 34t-35 82zM1280 116q0 48 35 81.5t82 33.5t81.5 -33.5 t34.5 -81.5t-34.5 -82t-81.5 -34t-82 34t-35 82zM1280 1287q0 48 35 82t82 34t81.5 -34t34.5 -82t-34.5 -82t-81.5 -34t-82 34t-35 82z" />
<glyph unicode="D" d="M109 116q0 48 34.5 81.5t81.5 33.5t82 -33.5t35 -81.5t-35 -82t-82 -34t-81.5 34t-34.5 82zM109 409q0 48 34.5 81.5t81.5 33.5t82 -33.5t35 -81.5t-35 -82t-82 -34t-81.5 34t-34.5 82zM109 701q0 48 34.5 82t81.5 34t82 -33.5t35 -82t-35 -82t-82 -33.5t-81.5 33.5 t-34.5 81.5zM109 994q0 48 34.5 82t81.5 34t82 -34t35 -82t-35 -81.5t-82 -33.5t-81.5 33.5t-34.5 81.5zM109 1287q0 48 34.5 82t81.5 34t82 -34t35 -82t-35 -82t-82 -34t-81.5 34t-34.5 82zM401 116q0 48 35 81.5t82 33.5t82 -33.5t35 -81.5t-35 -82t-82 -34t-82 34t-35 82 zM401 1287q0 48 35 82t82 34t82 -34t35 -82t-35 -82t-82 -34t-82 34t-35 82zM694 116q0 48 35 81.5t82 33.5t82 -33.5t35 -81.5t-35 -82t-82 -34t-82 34t-35 82zM694 1287q0 48 35 82t82 34t82 -34t35 -82t-35 -82t-82 -34t-82 34t-35 82zM987 116q0 48 35 81.5t82 33.5 t82 -33.5t35 -81.5t-35 -82t-82 -34t-82 34t-35 82zM987 1287q0 48 35 82t82 34t82 -34t35 -82t-35 -82t-82 -34t-82 34t-35 82zM1280 409q0 48 35 81.5t82 33.5t81.5 -33.5t34.5 -81.5t-34.5 -82t-81.5 -34t-82 34t-35 82zM1280 701q0 48 35 82t82 34t81.5 -33.5t34.5 -82 t-34.5 -82t-81.5 -33.5t-82 33.5t-35 81.5zM1280 994q0 48 35 82t82 34t81.5 -34t34.5 -82t-34.5 -81.5t-81.5 -33.5t-82 33.5t-35 81.5z" />
<glyph unicode="E" d="M109 116q0 48 34.5 81.5t81.5 33.5t82 -33.5t35 -81.5t-35 -82t-82 -34t-81.5 34t-34.5 82zM109 409q0 48 34.5 81.5t81.5 33.5t82 -33.5t35 -81.5t-35 -82t-82 -34t-81.5 34t-34.5 82zM109 701q0 48 34.5 82t81.5 34t82 -33.5t35 -82t-35 -82t-82 -33.5t-81.5 33.5 t-34.5 81.5zM109 994q0 48 34.5 82t81.5 34t82 -34t35 -82t-35 -81.5t-82 -33.5t-81.5 33.5t-34.5 81.5zM109 1287q0 48 34.5 82t81.5 34t82 -34t35 -82t-35 -82t-82 -34t-81.5 34t-34.5 82zM401 116q0 48 35 81.5t82 33.5t82 -33.5t35 -81.5t-35 -82t-82 -34t-82 34t-35 82 zM401 701q0 48 35 82t82 34t82 -33.5t35 -82t-35 -82t-82 -33.5t-82 33.5t-35 81.5zM401 1287q0 48 35 82t82 34t82 -34t35 -82t-35 -82t-82 -34t-82 34t-35 82zM694 116q0 48 35 81.5t82 33.5t82 -33.5t35 -81.5t-35 -82t-82 -34t-82 34t-35 82zM694 701q0 48 35 82t82 34 t82 -33.5t35 -82t-35 -82t-82 -33.5t-82 33.5t-35 81.5zM694 1287q0 48 35 82t82 34t82 -34t35 -82t-35 -82t-82 -34t-82 34t-35 82zM987 116q0 48 35 81.5t82 33.5t82 -33.5t35 -81.5t-35 -82t-82 -34t-82 34t-35 82zM987 701q0 48 35 82t82 34t82 -33.5t35 -82t-35 -82 t-82 -33.5t-82 33.5t-35 81.5zM987 1287q0 48 35 82t82 34t82 -34t35 -82t-35 -82t-82 -34t-82 34t-35 82zM1280 116q0 48 35 81.5t82 33.5t81.5 -33.5t34.5 -81.5t-34.5 -82t-81.5 -34t-82 34t-35 82zM1280 701q0 48 35 82t82 34t81.5 -33.5t34.5 -82t-34.5 -82 t-81.5 -33.5t-82 33.5t-35 81.5zM1280 1287q0 48 35 82t82 34t81.5 -34t34.5 -82t-34.5 -82t-81.5 -34t-82 34t-35 82z" />
<glyph unicode="F" d="M109 116q0 48 34.5 81.5t81.5 33.5t82 -33.5t35 -81.5t-35 -82t-82 -34t-81.5 34t-34.5 82zM109 409q0 48 34.5 81.5t81.5 33.5t82 -33.5t35 -81.5t-35 -82t-82 -34t-81.5 34t-34.5 82zM109 701q0 48 34.5 82t81.5 34t82 -33.5t35 -82t-35 -82t-82 -33.5t-81.5 33.5 t-34.5 81.5zM109 994q0 48 34.5 82t81.5 34t82 -34t35 -82t-35 -81.5t-82 -33.5t-81.5 33.5t-34.5 81.5zM109 1287q0 48 34.5 82t81.5 34t82 -34t35 -82t-35 -82t-82 -34t-81.5 34t-34.5 82zM401 701q0 48 35 82t82 34t82 -33.5t35 -82t-35 -82t-82 -33.5t-82 33.5t-35 81.5 zM401 1287q0 48 35 82t82 34t82 -34t35 -82t-35 -82t-82 -34t-82 34t-35 82zM694 701q0 48 35 82t82 34t82 -33.5t35 -82t-35 -82t-82 -33.5t-82 33.5t-35 81.5zM694 1287q0 48 35 82t82 34t82 -34t35 -82t-35 -82t-82 -34t-82 34t-35 82zM987 1287q0 48 35 82t82 34t82 -34 t35 -82t-35 -82t-82 -34t-82 34t-35 82zM1280 1287q0 48 35 82t82 34t81.5 -34t34.5 -82t-34.5 -82t-81.5 -34t-82 34t-35 82z" />
<glyph unicode="G" d="M109 409q0 48 34.5 81.5t81.5 33.5t82 -33.5t35 -81.5t-35 -82t-82 -34t-81.5 34t-34.5 82zM109 701q0 48 34.5 82t81.5 34t82 -33.5t35 -82t-35 -82t-82 -33.5t-81.5 33.5t-34.5 81.5zM109 994q0 48 34.5 82t81.5 34t82 -34t35 -82t-35 -81.5t-82 -33.5t-81.5 33.5 t-34.5 81.5zM401 116q0 48 35 81.5t82 33.5t82 -33.5t35 -81.5t-35 -82t-82 -34t-82 34t-35 82zM401 1287q0 48 35 82t82 34t82 -34t35 -82t-35 -82t-82 -34t-82 34t-35 82zM694 116q0 48 35 81.5t82 33.5t82 -33.5t35 -81.5t-35 -82t-82 -34t-82 34t-35 82zM694 701 q0 48 35 82t82 34t82 -33.5t35 -82t-35 -82t-82 -33.5t-82 33.5t-35 81.5zM694 1287q0 48 35 82t82 34t82 -34t35 -82t-35 -82t-82 -34t-82 34t-35 82zM987 116q0 48 35 81.5t82 33.5t82 -33.5t35 -81.5t-35 -82t-82 -34t-82 34t-35 82zM987 701q0 48 35 82t82 34t82 -33.5 t35 -82t-35 -82t-82 -33.5t-82 33.5t-35 81.5zM987 1287q0 48 35 82t82 34t82 -34t35 -82t-35 -82t-82 -34t-82 34t-35 82zM1280 116q0 48 35 81.5t82 33.5t81.5 -33.5t34.5 -81.5t-34.5 -82t-81.5 -34t-82 34t-35 82zM1280 409q0 48 35 81.5t82 33.5t81.5 -33.5t34.5 -81.5 t-34.5 -82t-81.5 -34t-82 34t-35 82zM1280 701q0 48 35 82t82 34t81.5 -33.5t34.5 -82t-34.5 -82t-81.5 -33.5t-82 33.5t-35 81.5zM1280 1287q0 48 35 82t82 34t81.5 -34t34.5 -82t-34.5 -82t-81.5 -34t-82 34t-35 82z" />
<glyph unicode="H" d="M109 116q0 48 34.5 81.5t81.5 33.5t82 -33.5t35 -81.5t-35 -82t-82 -34t-81.5 34t-34.5 82zM109 409q0 48 34.5 81.5t81.5 33.5t82 -33.5t35 -81.5t-35 -82t-82 -34t-81.5 34t-34.5 82zM109 701q0 48 34.5 82t81.5 34t82 -33.5t35 -82t-35 -82t-82 -33.5t-81.5 33.5 t-34.5 81.5zM109 994q0 48 34.5 82t81.5 34t82 -34t35 -82t-35 -81.5t-82 -33.5t-81.5 33.5t-34.5 81.5zM109 1287q0 48 34.5 82t81.5 34t82 -34t35 -82t-35 -82t-82 -34t-81.5 34t-34.5 82zM401 701q0 48 35 82t82 34t82 -33.5t35 -82t-35 -82t-82 -33.5t-82 33.5t-35 81.5 zM694 701q0 48 35 82t82 34t82 -33.5t35 -82t-35 -82t-82 -33.5t-82 33.5t-35 81.5zM987 701q0 48 35 82t82 34t82 -33.5t35 -82t-35 -82t-82 -33.5t-82 33.5t-35 81.5zM1280 116q0 48 35 81.5t82 33.5t81.5 -33.5t34.5 -81.5t-34.5 -82t-81.5 -34t-82 34t-35 82zM1280 409 q0 48 35 81.5t82 33.5t81.5 -33.5t34.5 -81.5t-34.5 -82t-81.5 -34t-82 34t-35 82zM1280 701q0 48 35 82t82 34t81.5 -33.5t34.5 -82t-34.5 -82t-81.5 -33.5t-82 33.5t-35 81.5zM1280 994q0 48 35 82t82 34t81.5 -34t34.5 -82t-34.5 -81.5t-81.5 -33.5t-82 33.5t-35 81.5z M1280 1287q0 48 35 82t82 34t81.5 -34t34.5 -82t-34.5 -82t-81.5 -34t-82 34t-35 82z" />
<glyph unicode="I" horiz-adv-x="450" d="M109 116q0 48 34.5 81.5t81.5 33.5t82 -33.5t35 -81.5t-35 -82t-82 -34t-81.5 34t-34.5 82zM109 409q0 48 34.5 81.5t81.5 33.5t82 -33.5t35 -81.5t-35 -82t-82 -34t-81.5 34t-34.5 82zM109 701q0 48 34.5 82t81.5 34t82 -33.5t35 -82t-35 -82t-82 -33.5t-81.5 33.5 t-34.5 81.5zM109 994q0 48 34.5 82t81.5 34t82 -34t35 -82t-35 -81.5t-82 -33.5t-81.5 33.5t-34.5 81.5zM109 1287q0 48 34.5 82t81.5 34t82 -34t35 -82t-35 -82t-82 -34t-81.5 34t-34.5 82z" />
<glyph unicode="J" d="M109 409q0 48 34.5 81.5t81.5 33.5t82 -33.5t35 -81.5t-35 -82t-82 -34t-81.5 34t-34.5 82zM401 116q0 48 35 81.5t82 33.5t82 -33.5t35 -81.5t-35 -82t-82 -34t-82 34t-35 82zM694 116q0 48 35 81.5t82 33.5t82 -33.5t35 -81.5t-35 -82t-82 -34t-82 34t-35 82zM694 1287 q0 48 35 82t82 34t82 -34t35 -82t-35 -82t-82 -34t-82 34t-35 82zM987 116q0 48 35 81.5t82 33.5t82 -33.5t35 -81.5t-35 -82t-82 -34t-82 34t-35 82zM987 1287q0 48 35 82t82 34t82 -34t35 -82t-35 -82t-82 -34t-82 34t-35 82zM1280 409q0 48 35 81.5t82 33.5t81.5 -33.5 t34.5 -81.5t-34.5 -82t-81.5 -34t-82 34t-35 82zM1280 701q0 48 35 82t82 34t81.5 -33.5t34.5 -82t-34.5 -82t-81.5 -33.5t-82 33.5t-35 81.5zM1280 994q0 48 35 82t82 34t81.5 -34t34.5 -82t-34.5 -81.5t-81.5 -33.5t-82 33.5t-35 81.5zM1280 1287q0 48 35 82t82 34 t81.5 -34t34.5 -82t-34.5 -82t-81.5 -34t-82 34t-35 82z" />
<glyph unicode="K" d="M109 116q0 48 34.5 81.5t81.5 33.5t82 -33.5t35 -81.5t-35 -82t-82 -34t-81.5 34t-34.5 82zM109 409q0 48 34.5 81.5t81.5 33.5t82 -33.5t35 -81.5t-35 -82t-82 -34t-81.5 34t-34.5 82zM109 701q0 48 34.5 82t81.5 34t82 -33.5t35 -82t-35 -82t-82 -33.5t-81.5 33.5 t-34.5 81.5zM109 994q0 48 34.5 82t81.5 34t82 -34t35 -82t-35 -81.5t-82 -33.5t-81.5 33.5t-34.5 81.5zM109 1287q0 48 34.5 82t81.5 34t82 -34t35 -82t-35 -82t-82 -34t-81.5 34t-34.5 82zM401 701q0 48 35 82t82 34t82 -33.5t35 -82t-35 -82t-82 -33.5t-82 33.5t-35 81.5 zM694 701q0 48 35 82t82 34t82 -33.5t35 -82t-35 -82t-82 -33.5t-82 33.5t-35 81.5zM694 994q0 48 35 82t82 34t82 -34t35 -82t-35 -81.5t-82 -33.5t-82 33.5t-35 81.5zM987 701q0 48 35 82t82 34t82 -33.5t35 -82t-35 -82t-82 -33.5t-82 33.5t-35 81.5zM987 1287 q0 48 35 82t82 34t82 -34t35 -82t-35 -82t-82 -34t-82 34t-35 82zM1280 116q0 48 35 81.5t82 33.5t81.5 -33.5t34.5 -81.5t-34.5 -82t-81.5 -34t-82 34t-35 82zM1280 409q0 48 35 81.5t82 33.5t81.5 -33.5t34.5 -81.5t-34.5 -82t-81.5 -34t-82 34t-35 82z" />
<glyph unicode="L" d="M109 116q0 48 34.5 81.5t81.5 33.5t82 -33.5t35 -81.5t-35 -82t-82 -34t-81.5 34t-34.5 82zM109 409q0 48 34.5 81.5t81.5 33.5t82 -33.5t35 -81.5t-35 -82t-82 -34t-81.5 34t-34.5 82zM109 701q0 48 34.5 82t81.5 34t82 -33.5t35 -82t-35 -82t-82 -33.5t-81.5 33.5 t-34.5 81.5zM109 994q0 48 34.5 82t81.5 34t82 -34t35 -82t-35 -81.5t-82 -33.5t-81.5 33.5t-34.5 81.5zM109 1287q0 48 34.5 82t81.5 34t82 -34t35 -82t-35 -82t-82 -34t-81.5 34t-34.5 82zM401 116q0 48 35 81.5t82 33.5t82 -33.5t35 -81.5t-35 -82t-82 -34t-82 34t-35 82 zM694 116q0 48 35 81.5t82 33.5t82 -33.5t35 -81.5t-35 -82t-82 -34t-82 34t-35 82zM987 116q0 48 35 81.5t82 33.5t82 -33.5t35 -81.5t-35 -82t-82 -34t-82 34t-35 82zM1280 116q0 48 35 81.5t82 33.5t81.5 -33.5t34.5 -81.5t-34.5 -82t-81.5 -34t-82 34t-35 82z" />
<glyph unicode="M" d="M109 116q0 48 34.5 81.5t81.5 33.5t82 -33.5t35 -81.5t-35 -82t-82 -34t-81.5 34t-34.5 82zM109 409q0 48 34.5 81.5t81.5 33.5t82 -33.5t35 -81.5t-35 -82t-82 -34t-81.5 34t-34.5 82zM109 701q0 48 34.5 82t81.5 34t82 -33.5t35 -82t-35 -82t-82 -33.5t-81.5 33.5 t-34.5 81.5zM109 994q0 48 34.5 82t81.5 34t82 -34t35 -82t-35 -81.5t-82 -33.5t-81.5 33.5t-34.5 81.5zM109 1287q0 48 34.5 82t81.5 34t82 -34t35 -82t-35 -82t-82 -34t-81.5 34t-34.5 82zM401 994q0 48 35 82t82 34t82 -34t35 -82t-35 -81.5t-82 -33.5t-82 33.5t-35 81.5 zM694 701q0 48 35 82t82 34t82 -33.5t35 -82t-35 -82t-82 -33.5t-82 33.5t-35 81.5zM987 994q0 48 35 82t82 34t82 -34t35 -82t-35 -81.5t-82 -33.5t-82 33.5t-35 81.5zM1280 116q0 48 35 81.5t82 33.5t81.5 -33.5t34.5 -81.5t-34.5 -82t-81.5 -34t-82 34t-35 82zM1280 409 q0 48 35 81.5t82 33.5t81.5 -33.5t34.5 -81.5t-34.5 -82t-81.5 -34t-82 34t-35 82zM1280 701q0 48 35 82t82 34t81.5 -33.5t34.5 -82t-34.5 -82t-81.5 -33.5t-82 33.5t-35 81.5zM1280 994q0 48 35 82t82 34t81.5 -34t34.5 -82t-34.5 -81.5t-81.5 -33.5t-82 33.5t-35 81.5z M1280 1287q0 48 35 82t82 34t81.5 -34t34.5 -82t-34.5 -82t-81.5 -34t-82 34t-35 82z" />
<glyph unicode="N" d="M109 116q0 48 34.5 81.5t81.5 33.5t82 -33.5t35 -81.5t-35 -82t-82 -34t-81.5 34t-34.5 82zM109 409q0 48 34.5 81.5t81.5 33.5t82 -33.5t35 -81.5t-35 -82t-82 -34t-81.5 34t-34.5 82zM109 701q0 48 34.5 82t81.5 34t82 -33.5t35 -82t-35 -82t-82 -33.5t-81.5 33.5 t-34.5 81.5zM109 994q0 48 34.5 82t81.5 34t82 -34t35 -82t-35 -81.5t-82 -33.5t-81.5 33.5t-34.5 81.5zM109 1287q0 48 34.5 82t81.5 34t82 -34t35 -82t-35 -82t-82 -34t-81.5 34t-34.5 82zM401 1287q0 48 35 82t82 34t82 -34t35 -82t-35 -82t-82 -34t-82 34t-35 82z M694 409q0 48 35 81.5t82 33.5t82 -33.5t35 -81.5t-35 -82t-82 -34t-82 34t-35 82zM694 701q0 48 35 82t82 34t82 -33.5t35 -82t-35 -82t-82 -33.5t-82 33.5t-35 81.5zM694 994q0 48 35 82t82 34t82 -34t35 -82t-35 -81.5t-82 -33.5t-82 33.5t-35 81.5zM987 116 q0 48 35 81.5t82 33.5t82 -33.5t35 -81.5t-35 -82t-82 -34t-82 34t-35 82zM1280 116q0 48 35 81.5t82 33.5t81.5 -33.5t34.5 -81.5t-34.5 -82t-81.5 -34t-82 34t-35 82zM1280 409q0 48 35 81.5t82 33.5t81.5 -33.5t34.5 -81.5t-34.5 -82t-81.5 -34t-82 34t-35 82zM1280 701 q0 48 35 82t82 34t81.5 -33.5t34.5 -82t-34.5 -82t-81.5 -33.5t-82 33.5t-35 81.5zM1280 994q0 48 35 82t82 34t81.5 -34t34.5 -82t-34.5 -81.5t-81.5 -33.5t-82 33.5t-35 81.5zM1280 1287q0 48 35 82t82 34t81.5 -34t34.5 -82t-34.5 -82t-81.5 -34t-82 34t-35 82z" />
<glyph unicode="O" d="M109 409q0 48 34.5 81.5t81.5 33.5t82 -33.5t35 -81.5t-35 -82t-82 -34t-81.5 34t-34.5 82zM109 701q0 48 34.5 82t81.5 34t82 -33.5t35 -82t-35 -82t-82 -33.5t-81.5 33.5t-34.5 81.5zM109 994q0 48 34.5 82t81.5 34t82 -34t35 -82t-35 -81.5t-82 -33.5t-81.5 33.5 t-34.5 81.5zM401 116q0 48 35 81.5t82 33.5t82 -33.5t35 -81.5t-35 -82t-82 -34t-82 34t-35 82zM401 1287q0 48 35 82t82 34t82 -34t35 -82t-35 -82t-82 -34t-82 34t-35 82zM694 116q0 48 35 81.5t82 33.5t82 -33.5t35 -81.5t-35 -82t-82 -34t-82 34t-35 82zM694 1287 q0 48 35 82t82 34t82 -34t35 -82t-35 -82t-82 -34t-82 34t-35 82zM987 116q0 48 35 81.5t82 33.5t82 -33.5t35 -81.5t-35 -82t-82 -34t-82 34t-35 82zM987 1287q0 48 35 82t82 34t82 -34t35 -82t-35 -82t-82 -34t-82 34t-35 82zM1280 409q0 48 35 81.5t82 33.5t81.5 -33.5 t34.5 -81.5t-34.5 -82t-81.5 -34t-82 34t-35 82zM1280 701q0 48 35 82t82 34t81.5 -33.5t34.5 -82t-34.5 -82t-81.5 -33.5t-82 33.5t-35 81.5zM1280 994q0 48 35 82t82 34t81.5 -34t34.5 -82t-34.5 -81.5t-81.5 -33.5t-82 33.5t-35 81.5z" />
<glyph unicode="P" d="M109 116q0 48 34.5 81.5t81.5 33.5t82 -33.5t35 -81.5t-35 -82t-82 -34t-81.5 34t-34.5 82zM109 409q0 48 34.5 81.5t81.5 33.5t82 -33.5t35 -81.5t-35 -82t-82 -34t-81.5 34t-34.5 82zM109 701q0 48 34.5 82t81.5 34t82 -33.5t35 -82t-35 -82t-82 -33.5t-81.5 33.5 t-34.5 81.5zM109 994q0 48 34.5 82t81.5 34t82 -34t35 -82t-35 -81.5t-82 -33.5t-81.5 33.5t-34.5 81.5zM109 1287q0 48 34.5 82t81.5 34t82 -34t35 -82t-35 -82t-82 -34t-81.5 34t-34.5 82zM401 701q0 48 35 82t82 34t82 -33.5t35 -82t-35 -82t-82 -33.5t-82 33.5t-35 81.5 zM401 1287q0 48 35 82t82 34t82 -34t35 -82t-35 -82t-82 -34t-82 34t-35 82zM694 701q0 48 35 82t82 34t82 -33.5t35 -82t-35 -82t-82 -33.5t-82 33.5t-35 81.5zM694 1287q0 48 35 82t82 34t82 -34t35 -82t-35 -82t-82 -34t-82 34t-35 82zM987 701q0 48 35 82t82 34 t82 -33.5t35 -82t-35 -82t-82 -33.5t-82 33.5t-35 81.5zM987 1287q0 48 35 82t82 34t82 -34t35 -82t-35 -82t-82 -34t-82 34t-35 82zM1280 994q0 48 35 82t82 34t81.5 -34t34.5 -82t-34.5 -81.5t-81.5 -33.5t-82 33.5t-35 81.5z" />
<glyph unicode="Q" d="M109 409q0 48 34.5 81.5t81.5 33.5t82 -33.5t35 -81.5t-35 -82t-82 -34t-81.5 34t-34.5 82zM109 701q0 48 34.5 82t81.5 34t82 -33.5t35 -82t-35 -82t-82 -33.5t-81.5 33.5t-34.5 81.5zM109 994q0 48 34.5 82t81.5 34t82 -34t35 -82t-35 -81.5t-82 -33.5t-81.5 33.5 t-34.5 81.5zM401 116q0 48 35 81.5t82 33.5t82 -33.5t35 -81.5t-35 -82t-82 -34t-82 34t-35 82zM401 1287q0 48 35 82t82 34t82 -34t35 -82t-35 -82t-82 -34t-82 34t-35 82zM694 116q0 48 35 81.5t82 33.5t82 -33.5t35 -81.5t-35 -82t-82 -34t-82 34t-35 82zM694 1287 q0 48 35 82t82 34t82 -34t35 -82t-35 -82t-82 -34t-82 34t-35 82zM987 116q0 48 35 81.5t82 33.5t82 -33.5t35 -81.5t-35 -82t-82 -34t-82 34t-35 82zM987 409q0 48 35 81.5t82 33.5t82 -33.5t35 -81.5t-35 -82t-82 -34t-82 34t-35 82zM987 701q0 48 35 82t82 34t82 -33.5 t35 -82t-35 -82t-82 -33.5t-82 33.5t-35 81.5zM987 994q0 48 35 82t82 34t82 -34t35 -82t-35 -81.5t-82 -33.5t-82 33.5t-35 81.5zM1280 116q0 48 35 81.5t82 33.5t81.5 -33.5t34.5 -81.5t-34.5 -82t-81.5 -34t-82 34t-35 82z" />
<glyph unicode="R" d="M109 116q0 48 34.5 81.5t81.5 33.5t82 -33.5t35 -81.5t-35 -82t-82 -34t-81.5 34t-34.5 82zM109 409q0 48 34.5 81.5t81.5 33.5t82 -33.5t35 -81.5t-35 -82t-82 -34t-81.5 34t-34.5 82zM109 701q0 48 34.5 82t81.5 34t82 -33.5t35 -82t-35 -82t-82 -33.5t-81.5 33.5 t-34.5 81.5zM109 994q0 48 34.5 82t81.5 34t82 -34t35 -82t-35 -81.5t-82 -33.5t-81.5 33.5t-34.5 81.5zM109 1287q0 48 34.5 82t81.5 34t82 -34t35 -82t-35 -82t-82 -34t-81.5 34t-34.5 82zM401 701q0 48 35 82t82 34t82 -33.5t35 -82t-35 -82t-82 -33.5t-82 33.5t-35 81.5 zM401 1287q0 48 35 82t82 34t82 -34t35 -82t-35 -82t-82 -34t-82 34t-35 82zM694 701q0 48 35 82t82 34t82 -33.5t35 -82t-35 -82t-82 -33.5t-82 33.5t-35 81.5zM694 1287q0 48 35 82t82 34t82 -34t35 -82t-35 -82t-82 -34t-82 34t-35 82zM987 409q0 48 35 81.5t82 33.5 t82 -33.5t35 -81.5t-35 -82t-82 -34t-82 34t-35 82zM987 701q0 48 35 82t82 34t82 -33.5t35 -82t-35 -82t-82 -33.5t-82 33.5t-35 81.5zM987 1287q0 48 35 82t82 34t82 -34t35 -82t-35 -82t-82 -34t-82 34t-35 82zM1280 116q0 48 35 81.5t82 33.5t81.5 -33.5t34.5 -81.5 t-34.5 -82t-81.5 -34t-82 34t-35 82zM1280 994q0 48 35 82t82 34t81.5 -34t34.5 -82t-34.5 -81.5t-81.5 -33.5t-82 33.5t-35 81.5z" />
<glyph unicode="S" d="M109 116q0 48 34.5 81.5t81.5 33.5t82 -33.5t35 -81.5t-35 -82t-82 -34t-81.5 34t-34.5 82zM109 994q0 48 34.5 82t81.5 34t82 -34t35 -82t-35 -81.5t-82 -33.5t-81.5 33.5t-34.5 81.5zM401 116q0 48 35 81.5t82 33.5t82 -33.5t35 -81.5t-35 -82t-82 -34t-82 34t-35 82z M401 701q0 48 35 82t82 34t82 -33.5t35 -82t-35 -82t-82 -33.5t-82 33.5t-35 81.5zM401 1287q0 48 35 82t82 34t82 -34t35 -82t-35 -82t-82 -34t-82 34t-35 82zM694 116q0 48 35 81.5t82 33.5t82 -33.5t35 -81.5t-35 -82t-82 -34t-82 34t-35 82zM694 701q0 48 35 82t82 34 t82 -33.5t35 -82t-35 -82t-82 -33.5t-82 33.5t-35 81.5zM694 1287q0 48 35 82t82 34t82 -34t35 -82t-35 -82t-82 -34t-82 34t-35 82zM987 116q0 48 35 81.5t82 33.5t82 -33.5t35 -81.5t-35 -82t-82 -34t-82 34t-35 82zM987 701q0 48 35 82t82 34t82 -33.5t35 -82t-35 -82 t-82 -33.5t-82 33.5t-35 81.5zM987 1287q0 48 35 82t82 34t82 -34t35 -82t-35 -82t-82 -34t-82 34t-35 82zM1280 409q0 48 35 81.5t82 33.5t81.5 -33.5t34.5 -81.5t-34.5 -82t-81.5 -34t-82 34t-35 82zM1280 1287q0 48 35 82t82 34t81.5 -34t34.5 -82t-34.5 -82t-81.5 -34 t-82 34t-35 82z" />
<glyph unicode="T" d="M109 1287q0 48 34.5 82t81.5 34t82 -34t35 -82t-35 -82t-82 -34t-81.5 34t-34.5 82zM401 1287q0 48 35 82t82 34t82 -34t35 -82t-35 -82t-82 -34t-82 34t-35 82zM694 116q0 48 35 81.5t82 33.5t82 -33.5t35 -81.5t-35 -82t-82 -34t-82 34t-35 82zM694 409q0 48 35 81.5 t82 33.5t82 -33.5t35 -81.5t-35 -82t-82 -34t-82 34t-35 82zM694 701q0 48 35 82t82 34t82 -33.5t35 -82t-35 -82t-82 -33.5t-82 33.5t-35 81.5zM694 994q0 48 35 82t82 34t82 -34t35 -82t-35 -81.5t-82 -33.5t-82 33.5t-35 81.5zM694 1287q0 48 35 82t82 34t82 -34t35 -82 t-35 -82t-82 -34t-82 34t-35 82zM987 1287q0 48 35 82t82 34t82 -34t35 -82t-35 -82t-82 -34t-82 34t-35 82zM1280 1287q0 48 35 82t82 34t81.5 -34t34.5 -82t-34.5 -82t-81.5 -34t-82 34t-35 82z" />
<glyph unicode="U" d="M109 409q0 48 34.5 81.5t81.5 33.5t82 -33.5t35 -81.5t-35 -82t-82 -34t-81.5 34t-34.5 82zM109 701q0 48 34.5 82t81.5 34t82 -33.5t35 -82t-35 -82t-82 -33.5t-81.5 33.5t-34.5 81.5zM109 994q0 48 34.5 82t81.5 34t82 -34t35 -82t-35 -81.5t-82 -33.5t-81.5 33.5 t-34.5 81.5zM109 1287q0 48 34.5 82t81.5 34t82 -34t35 -82t-35 -82t-82 -34t-81.5 34t-34.5 82zM401 116q0 48 35 81.5t82 33.5t82 -33.5t35 -81.5t-35 -82t-82 -34t-82 34t-35 82zM694 116q0 48 35 81.5t82 33.5t82 -33.5t35 -81.5t-35 -82t-82 -34t-82 34t-35 82z M987 116q0 48 35 81.5t82 33.5t82 -33.5t35 -81.5t-35 -82t-82 -34t-82 34t-35 82zM1280 409q0 48 35 81.5t82 33.5t81.5 -33.5t34.5 -81.5t-34.5 -82t-81.5 -34t-82 34t-35 82zM1280 701q0 48 35 82t82 34t81.5 -33.5t34.5 -82t-34.5 -82t-81.5 -33.5t-82 33.5t-35 81.5z M1280 994q0 48 35 82t82 34t81.5 -34t34.5 -82t-34.5 -81.5t-81.5 -33.5t-82 33.5t-35 81.5zM1280 1287q0 48 35 82t82 34t81.5 -34t34.5 -82t-34.5 -82t-81.5 -34t-82 34t-35 82z" />
<glyph unicode="V" d="M109 994q0 48 34.5 82t81.5 34t82 -34t35 -82t-35 -81.5t-82 -33.5t-81.5 33.5t-34.5 81.5zM109 1287q0 48 34.5 82t81.5 34t82 -34t35 -82t-35 -82t-82 -34t-81.5 34t-34.5 82zM401 409q0 48 35 81.5t82 33.5t82 -33.5t35 -81.5t-35 -82t-82 -34t-82 34t-35 82zM401 701 q0 48 35 82t82 34t82 -33.5t35 -82t-35 -82t-82 -33.5t-82 33.5t-35 81.5zM694 116q0 48 35 81.5t82 33.5t82 -33.5t35 -81.5t-35 -82t-82 -34t-82 34t-35 82zM987 409q0 48 35 81.5t82 33.5t82 -33.5t35 -81.5t-35 -82t-82 -34t-82 34t-35 82zM987 701q0 48 35 82t82 34 t82 -33.5t35 -82t-35 -82t-82 -33.5t-82 33.5t-35 81.5zM1280 994q0 48 35 82t82 34t81.5 -34t34.5 -82t-34.5 -81.5t-81.5 -33.5t-82 33.5t-35 81.5zM1280 1287q0 48 35 82t82 34t81.5 -34t34.5 -82t-34.5 -82t-81.5 -34t-82 34t-35 82z" />
<glyph unicode="W" d="M109 116q0 48 34.5 81.5t81.5 33.5t82 -33.5t35 -81.5t-35 -82t-82 -34t-81.5 34t-34.5 82zM109 409q0 48 34.5 81.5t81.5 33.5t82 -33.5t35 -81.5t-35 -82t-82 -34t-81.5 34t-34.5 82zM109 701q0 48 34.5 82t81.5 34t82 -33.5t35 -82t-35 -82t-82 -33.5t-81.5 33.5 t-34.5 81.5zM109 994q0 48 34.5 82t81.5 34t82 -34t35 -82t-35 -81.5t-82 -33.5t-81.5 33.5t-34.5 81.5zM109 1287q0 48 34.5 82t81.5 34t82 -34t35 -82t-35 -82t-82 -34t-81.5 34t-34.5 82zM401 409q0 48 35 81.5t82 33.5t82 -33.5t35 -81.5t-35 -82t-82 -34t-82 34t-35 82 zM694 701q0 48 35 82t82 34t82 -33.5t35 -82t-35 -82t-82 -33.5t-82 33.5t-35 81.5zM987 409q0 48 35 81.5t82 33.5t82 -33.5t35 -81.5t-35 -82t-82 -34t-82 34t-35 82zM1280 116q0 48 35 81.5t82 33.5t81.5 -33.5t34.5 -81.5t-34.5 -82t-81.5 -34t-82 34t-35 82zM1280 409 q0 48 35 81.5t82 33.5t81.5 -33.5t34.5 -81.5t-34.5 -82t-81.5 -34t-82 34t-35 82zM1280 701q0 48 35 82t82 34t81.5 -33.5t34.5 -82t-34.5 -82t-81.5 -33.5t-82 33.5t-35 81.5zM1280 994q0 48 35 82t82 34t81.5 -34t34.5 -82t-34.5 -81.5t-81.5 -33.5t-82 33.5t-35 81.5z M1280 1287q0 48 35 82t82 34t81.5 -34t34.5 -82t-34.5 -82t-81.5 -34t-82 34t-35 82z" />
<glyph unicode="X" d="M109 116q0 48 34.5 81.5t81.5 33.5t82 -33.5t35 -81.5t-35 -82t-82 -34t-81.5 34t-34.5 82zM109 1287q0 48 34.5 82t81.5 34t82 -34t35 -82t-35 -82t-82 -34t-81.5 34t-34.5 82zM401 409q0 48 35 81.5t82 33.5t82 -33.5t35 -81.5t-35 -82t-82 -34t-82 34t-35 82zM401 994 q0 48 35 82t82 34t82 -34t35 -82t-35 -81.5t-82 -33.5t-82 33.5t-35 81.5zM694 701q0 48 35 82t82 34t82 -33.5t35 -82t-35 -82t-82 -33.5t-82 33.5t-35 81.5zM987 409q0 48 35 81.5t82 33.5t82 -33.5t35 -81.5t-35 -82t-82 -34t-82 34t-35 82zM987 994q0 48 35 82t82 34 t82 -34t35 -82t-35 -81.5t-82 -33.5t-82 33.5t-35 81.5zM1280 116q0 48 35 81.5t82 33.5t81.5 -33.5t34.5 -81.5t-34.5 -82t-81.5 -34t-82 34t-35 82zM1280 1287q0 48 35 82t82 34t81.5 -34t34.5 -82t-34.5 -82t-81.5 -34t-82 34t-35 82z" />
<glyph unicode="Y" d="M109 994q0 48 34.5 82t81.5 34t82 -34t35 -82t-35 -81.5t-82 -33.5t-81.5 33.5t-34.5 81.5zM109 1287q0 48 34.5 82t81.5 34t82 -34t35 -82t-35 -82t-82 -34t-81.5 34t-34.5 82zM401 701q0 48 35 82t82 34t82 -33.5t35 -82t-35 -82t-82 -33.5t-82 33.5t-35 81.5zM694 116 q0 48 35 81.5t82 33.5t82 -33.5t35 -81.5t-35 -82t-82 -34t-82 34t-35 82zM694 409q0 48 35 81.5t82 33.5t82 -33.5t35 -81.5t-35 -82t-82 -34t-82 34t-35 82zM694 701q0 48 35 82t82 34t82 -33.5t35 -82t-35 -82t-82 -33.5t-82 33.5t-35 81.5zM987 701q0 48 35 82t82 34 t82 -33.5t35 -82t-35 -82t-82 -33.5t-82 33.5t-35 81.5zM1280 994q0 48 35 82t82 34t81.5 -34t34.5 -82t-34.5 -81.5t-81.5 -33.5t-82 33.5t-35 81.5zM1280 1287q0 48 35 82t82 34t81.5 -34t34.5 -82t-34.5 -82t-81.5 -34t-82 34t-35 82z" />
<glyph unicode="Z" d="M109 116q0 48 34.5 81.5t81.5 33.5t82 -33.5t35 -81.5t-35 -82t-82 -34t-81.5 34t-34.5 82zM109 409q0 48 34.5 81.5t81.5 33.5t82 -33.5t35 -81.5t-35 -82t-82 -34t-81.5 34t-34.5 82zM109 1287q0 48 34.5 82t81.5 34t82 -34t35 -82t-35 -82t-82 -34t-81.5 34t-34.5 82z M401 116q0 48 35 81.5t82 33.5t82 -33.5t35 -81.5t-35 -82t-82 -34t-82 34t-35 82zM401 701q0 48 35 82t82 34t82 -33.5t35 -82t-35 -82t-82 -33.5t-82 33.5t-35 81.5zM401 1287q0 48 35 82t82 34t82 -34t35 -82t-35 -82t-82 -34t-82 34t-35 82zM694 116q0 48 35 81.5 t82 33.5t82 -33.5t35 -81.5t-35 -82t-82 -34t-82 34t-35 82zM694 701q0 48 35 82t82 34t82 -33.5t35 -82t-35 -82t-82 -33.5t-82 33.5t-35 81.5zM694 1287q0 48 35 82t82 34t82 -34t35 -82t-35 -82t-82 -34t-82 34t-35 82zM987 116q0 48 35 81.5t82 33.5t82 -33.5t35 -81.5 t-35 -82t-82 -34t-82 34t-35 82zM987 701q0 48 35 82t82 34t82 -33.5t35 -82t-35 -82t-82 -33.5t-82 33.5t-35 81.5zM987 1287q0 48 35 82t82 34t82 -34t35 -82t-35 -82t-82 -34t-82 34t-35 82zM1280 116q0 48 35 81.5t82 33.5t81.5 -33.5t34.5 -81.5t-34.5 -82t-81.5 -34 t-82 34t-35 82zM1280 994q0 48 35 82t82 34t81.5 -34t34.5 -82t-34.5 -81.5t-81.5 -33.5t-82 33.5t-35 81.5zM1280 1287q0 48 35 82t82 34t81.5 -34t34.5 -82t-34.5 -82t-81.5 -34t-82 34t-35 82z" />
<glyph unicode="[" horiz-adv-x="741" d="M109 116q0 48 33.5 81.5t81.5 33.5t82 -33.5t34 -81.5t-34 -82t-82 -34t-81.5 34t-33.5 82zM109 409q0 48 33.5 81.5t81.5 33.5t82 -33.5t34 -81.5t-34 -82t-82 -34t-81.5 34t-33.5 82zM109 701q0 48 33.5 82t81.5 34t82 -33.5t34 -82t-34 -82t-82 -33.5t-81.5 33.5 t-33.5 81.5zM109 994q0 48 33.5 82t81.5 34t82 -34t34 -82t-34 -81.5t-82 -33.5t-81.5 33.5t-33.5 81.5zM109 1287q0 48 33.5 82t81.5 34t82 -34t34 -82t-34 -82t-82 -34t-81.5 34t-33.5 82zM401 116q0 48 34 81.5t82 33.5t82 -33.5t34 -81.5t-34 -82t-82 -34t-82 34t-34 82 zM401 1287q0 48 34 82t82 34t82 -34t34 -82t-34 -82t-82 -34t-82 34t-34 82z" />
<glyph unicode="\" d="M109 1287q0 -48 34.5 -82t81.5 -34t82 34t35 82t-35 82t-82 34t-81.5 -34t-34.5 -82zM401 994q0 -48 35 -81.5t82 -33.5t82 33.5t35 81.5t-35 82t-82 34t-82 -34t-35 -82zM694 701.5q0 -48.5 35 -82t82 -33.5t82 33.5t35 81.5t-35 82t-82 34t-82 -33.5t-35 -82zM987 409 q0 -48 35 -82t82 -34t82 34t35 82t-35 81.5t-82 33.5t-82 -33.5t-35 -81.5zM1280 116q0 -48 35 -82t82 -34t81.5 34t34.5 82t-34.5 81.5t-81.5 33.5t-82 -33.5t-35 -81.5z" />
<glyph unicode="]" horiz-adv-x="741" d="M109 116q0 48 33.5 81.5t81.5 33.5t82 -33.5t34 -81.5t-34 -82t-82 -34t-81.5 34t-33.5 82zM109 1287q0 48 33.5 82t81.5 34t82 -34t34 -82t-34 -82t-82 -34t-81.5 34t-33.5 82zM401 116q0 48 34 81.5t82 33.5t82 -33.5t34 -81.5t-34 -82t-82 -34t-82 34t-34 82zM401 409 q0 48 34 81.5t82 33.5t82 -33.5t34 -81.5t-34 -82t-82 -34t-82 34t-34 82zM401 701q0 48 34 82t82 34t82 -33.5t34 -82t-34 -82t-82 -33.5t-82 33.5t-34 81.5zM401 994q0 48 34 82t82 34t82 -34t34 -82t-34 -81.5t-82 -33.5t-82 33.5t-34 81.5zM401 1287q0 48 34 82t82 34 t82 -34t34 -82t-34 -82t-82 -34t-82 34t-34 82z" />
<glyph unicode="^" horiz-adv-x="1036" d="M109 994q0 48 34.5 82t81.5 34t82 -34t35 -82t-35 -81.5t-82 -33.5t-81.5 33.5t-34.5 81.5zM401 1287q0 48 35 82t82 34t82 -34t35 -82t-35 -82t-82 -34t-82 34t-35 82zM694 994q0 48 35 82t82 34t82 -34t35 -82t-35 -81.5t-82 -33.5t-82 33.5t-35 81.5z" />
<glyph unicode="_" d="M109 116q0 48 34.5 81.5t81.5 33.5t82 -33.5t35 -81.5t-35 -82t-82 -34t-81.5 34t-34.5 82zM401 116q0 48 35 81.5t82 33.5t82 -33.5t35 -81.5t-35 -82t-82 -34t-82 34t-35 82zM694 116q0 48 35 81.5t82 33.5t82 -33.5t35 -81.5t-35 -82t-82 -34t-82 34t-35 82zM987 116 q0 48 35 81.5t82 33.5t82 -33.5t35 -81.5t-35 -82t-82 -34t-82 34t-35 82zM1280 116q0 48 35 81.5t82 33.5t81.5 -33.5t34.5 -81.5t-34.5 -82t-81.5 -34t-82 34t-35 82z" />
<glyph unicode="`" horiz-adv-x="450" d="M109 994q0 48 34.5 82t81.5 34t82 -34t35 -82t-35 -81.5t-82 -33.5t-81.5 33.5t-34.5 81.5zM109 1287q0 48 34.5 82t81.5 34t82 -34t35 -82t-35 -82t-82 -34t-81.5 34t-34.5 82z" />
<glyph unicode="a" d="M109 409q0 48 34.5 81.5t81.5 33.5t82 -33.5t35 -81.5t-35 -82t-82 -34t-81.5 34t-34.5 82zM109 1287q0 48 34.5 82t81.5 34t82 -34t35 -82t-35 -82t-82 -34t-81.5 34t-34.5 82zM401 116q0 48 35 81.5t82 33.5t82 -33.5t35 -81.5t-35 -82t-82 -34t-82 34t-35 82zM401 701 q0 48 35 82t82 34t82 -33.5t35 -82t-35 -82t-82 -33.5t-82 33.5t-35 81.5zM401 1287q0 48 35 82t82 34t82 -34t35 -82t-35 -82t-82 -34t-82 34t-35 82zM694 116q0 48 35 81.5t82 33.5t82 -33.5t35 -81.5t-35 -82t-82 -34t-82 34t-35 82zM694 701q0 48 35 82t82 34t82 -33.5 t35 -82t-35 -82t-82 -33.5t-82 33.5t-35 81.5zM694 1287q0 48 35 82t82 34t82 -34t35 -82t-35 -82t-82 -34t-82 34t-35 82zM987 116q0 48 35 81.5t82 33.5t82 -33.5t35 -81.5t-35 -82t-82 -34t-82 34t-35 82zM987 701q0 48 35 82t82 34t82 -33.5t35 -82t-35 -82t-82 -33.5 t-82 33.5t-35 81.5zM987 1287q0 48 35 82t82 34t82 -34t35 -82t-35 -82t-82 -34t-82 34t-35 82zM1280 116q0 48 35 81.5t82 33.5t81.5 -33.5t34.5 -81.5t-34.5 -82t-81.5 -34t-82 34t-35 82zM1280 409q0 48 35 81.5t82 33.5t81.5 -33.5t34.5 -81.5t-34.5 -82t-81.5 -34 t-82 34t-35 82zM1280 701q0 48 35 82t82 34t81.5 -33.5t34.5 -82t-34.5 -82t-81.5 -33.5t-82 33.5t-35 81.5zM1280 994q0 48 35 82t82 34t81.5 -34t34.5 -82t-34.5 -81.5t-81.5 -33.5t-82 33.5t-35 81.5z" />
<glyph unicode="b" d="M109 116q0 48 34.5 81.5t81.5 33.5t82 -33.5t35 -81.5t-35 -82t-82 -34t-81.5 34t-34.5 82zM109 409q0 48 34.5 81.5t81.5 33.5t82 -33.5t35 -81.5t-35 -82t-82 -34t-81.5 34t-34.5 82zM109 701q0 48 34.5 82t81.5 34t82 -33.5t35 -82t-35 -82t-82 -33.5t-81.5 33.5 t-34.5 81.5zM109 994q0 48 34.5 82t81.5 34t82 -34t35 -82t-35 -81.5t-82 -33.5t-81.5 33.5t-34.5 81.5zM109 1287q0 48 34.5 82t81.5 34t82 -34t35 -82t-35 -82t-82 -34t-81.5 34t-34.5 82zM401 116q0 48 35 81.5t82 33.5t82 -33.5t35 -81.5t-35 -82t-82 -34t-82 34t-35 82 zM401 994q0 48 35 82t82 34t82 -34t35 -82t-35 -81.5t-82 -33.5t-82 33.5t-35 81.5zM694 116q0 48 35 81.5t82 33.5t82 -33.5t35 -81.5t-35 -82t-82 -34t-82 34t-35 82zM694 994q0 48 35 82t82 34t82 -34t35 -82t-35 -81.5t-82 -33.5t-82 33.5t-35 81.5zM987 116 q0 48 35 81.5t82 33.5t82 -33.5t35 -81.5t-35 -82t-82 -34t-82 34t-35 82zM987 994q0 48 35 82t82 34t82 -34t35 -82t-35 -81.5t-82 -33.5t-82 33.5t-35 81.5zM1280 409q0 48 35 81.5t82 33.5t81.5 -33.5t34.5 -81.5t-34.5 -82t-81.5 -34t-82 34t-35 82zM1280 701 q0 48 35 82t82 34t81.5 -33.5t34.5 -82t-34.5 -82t-81.5 -33.5t-82 33.5t-35 81.5z" />
<glyph unicode="c" d="M109 409q0 48 34.5 81.5t81.5 33.5t82 -33.5t35 -81.5t-35 -82t-82 -34t-81.5 34t-34.5 82zM109 701q0 48 34.5 82t81.5 34t82 -33.5t35 -82t-35 -82t-82 -33.5t-81.5 33.5t-34.5 81.5zM109 994q0 48 34.5 82t81.5 34t82 -34t35 -82t-35 -81.5t-82 -33.5t-81.5 33.5 t-34.5 81.5zM401 116q0 48 35 81.5t82 33.5t82 -33.5t35 -81.5t-35 -82t-82 -34t-82 34t-35 82zM401 1287q0 48 35 82t82 34t82 -34t35 -82t-35 -82t-82 -34t-82 34t-35 82zM694 116q0 48 35 81.5t82 33.5t82 -33.5t35 -81.5t-35 -82t-82 -34t-82 34t-35 82zM694 1287 q0 48 35 82t82 34t82 -34t35 -82t-35 -82t-82 -34t-82 34t-35 82zM987 116q0 48 35 81.5t82 33.5t82 -33.5t35 -81.5t-35 -82t-82 -34t-82 34t-35 82zM987 1287q0 48 35 82t82 34t82 -34t35 -82t-35 -82t-82 -34t-82 34t-35 82zM1280 409q0 48 35 81.5t82 33.5t81.5 -33.5 t34.5 -81.5t-34.5 -82t-81.5 -34t-82 34t-35 82zM1280 994q0 48 35 82t82 34t81.5 -34t34.5 -82t-34.5 -81.5t-81.5 -33.5t-82 33.5t-35 81.5z" />
<glyph unicode="d" d="M109 409q0 48 34.5 81.5t81.5 33.5t82 -33.5t35 -81.5t-35 -82t-82 -34t-81.5 34t-34.5 82zM109 701q0 48 34.5 82t81.5 34t82 -33.5t35 -82t-35 -82t-82 -33.5t-81.5 33.5t-34.5 81.5zM401 116q0 48 35 81.5t82 33.5t82 -33.5t35 -81.5t-35 -82t-82 -34t-82 34t-35 82z M401 994q0 48 35 82t82 34t82 -34t35 -82t-35 -81.5t-82 -33.5t-82 33.5t-35 81.5zM694 116q0 48 35 81.5t82 33.5t82 -33.5t35 -81.5t-35 -82t-82 -34t-82 34t-35 82zM694 994q0 48 35 82t82 34t82 -34t35 -82t-35 -81.5t-82 -33.5t-82 33.5t-35 81.5zM987 116 q0 48 35 81.5t82 33.5t82 -33.5t35 -81.5t-35 -82t-82 -34t-82 34t-35 82zM987 994q0 48 35 82t82 34t82 -34t35 -82t-35 -81.5t-82 -33.5t-82 33.5t-35 81.5zM1280 116q0 48 35 81.5t82 33.5t81.5 -33.5t34.5 -81.5t-34.5 -82t-81.5 -34t-82 34t-35 82zM1280 409 q0 48 35 81.5t82 33.5t81.5 -33.5t34.5 -81.5t-34.5 -82t-81.5 -34t-82 34t-35 82zM1280 701q0 48 35 82t82 34t81.5 -33.5t34.5 -82t-34.5 -82t-81.5 -33.5t-82 33.5t-35 81.5zM1280 994q0 48 35 82t82 34t81.5 -34t34.5 -82t-34.5 -81.5t-81.5 -33.5t-82 33.5t-35 81.5z M1280 1287q0 48 35 82t82 34t81.5 -34t34.5 -82t-34.5 -82t-81.5 -34t-82 34t-35 82z" />
<glyph unicode="e" d="M109 409q0 48 34.5 81.5t81.5 33.5t82 -33.5t35 -81.5t-35 -82t-82 -34t-81.5 34t-34.5 82zM109 701q0 48 34.5 82t81.5 34t82 -33.5t35 -82t-35 -82t-82 -33.5t-81.5 33.5t-34.5 81.5zM109 994q0 48 34.5 82t81.5 34t82 -34t35 -82t-35 -81.5t-82 -33.5t-81.5 33.5 t-34.5 81.5zM401 116q0 48 35 81.5t82 33.5t82 -33.5t35 -81.5t-35 -82t-82 -34t-82 34t-35 82zM401 701q0 48 35 82t82 34t82 -33.5t35 -82t-35 -82t-82 -33.5t-82 33.5t-35 81.5zM401 1287q0 48 35 82t82 34t82 -34t35 -82t-35 -82t-82 -34t-82 34t-35 82zM694 116 q0 48 35 81.5t82 33.5t82 -33.5t35 -81.5t-35 -82t-82 -34t-82 34t-35 82zM694 701q0 48 35 82t82 34t82 -33.5t35 -82t-35 -82t-82 -33.5t-82 33.5t-35 81.5zM694 1287q0 48 35 82t82 34t82 -34t35 -82t-35 -82t-82 -34t-82 34t-35 82zM987 116q0 48 35 81.5t82 33.5 t82 -33.5t35 -81.5t-35 -82t-82 -34t-82 34t-35 82zM987 701q0 48 35 82t82 34t82 -33.5t35 -82t-35 -82t-82 -33.5t-82 33.5t-35 81.5zM987 1287q0 48 35 82t82 34t82 -34t35 -82t-35 -82t-82 -34t-82 34t-35 82zM1280 116q0 48 35 81.5t82 33.5t81.5 -33.5t34.5 -81.5 t-34.5 -82t-81.5 -34t-82 34t-35 82zM1280 701q0 48 35 82t82 34t81.5 -33.5t34.5 -82t-34.5 -82t-81.5 -33.5t-82 33.5t-35 81.5zM1280 994q0 48 35 82t82 34t81.5 -34t34.5 -82t-34.5 -81.5t-81.5 -33.5t-82 33.5t-35 81.5z" />
<glyph unicode="f" d="M109 116q0 48 34.5 81.5t81.5 33.5t82 -33.5t35 -81.5t-35 -82t-82 -34t-81.5 34t-34.5 82zM109 409q0 48 34.5 81.5t81.5 33.5t82 -33.5t35 -81.5t-35 -82t-82 -34t-81.5 34t-34.5 82zM109 701q0 48 34.5 82t81.5 34t82 -33.5t35 -82t-35 -82t-82 -33.5t-81.5 33.5 t-34.5 81.5zM109 994q0 48 34.5 82t81.5 34t82 -34t35 -82t-35 -81.5t-82 -33.5t-81.5 33.5t-34.5 81.5zM401 701q0 48 35 82t82 34t82 -33.5t35 -82t-35 -82t-82 -33.5t-82 33.5t-35 81.5zM401 1287q0 48 35 82t82 34t82 -34t35 -82t-35 -82t-82 -34t-82 34t-35 82z M694 701q0 48 35 82t82 34t82 -33.5t35 -82t-35 -82t-82 -33.5t-82 33.5t-35 81.5zM694 1287q0 48 35 82t82 34t82 -34t35 -82t-35 -82t-82 -34t-82 34t-35 82zM987 1287q0 48 35 82t82 34t82 -34t35 -82t-35 -82t-82 -34t-82 34t-35 82zM1280 1287q0 48 35 82t82 34 t81.5 -34t34.5 -82t-34.5 -82t-81.5 -34t-82 34t-35 82z" />
<glyph unicode="g" d="M109 116q0 48 34.5 81.5t81.5 33.5t82 -33.5t35 -81.5t-35 -82t-82 -34t-81.5 34t-34.5 82zM109 994q0 48 34.5 82t81.5 34t82 -34t35 -82t-35 -81.5t-82 -33.5t-81.5 33.5t-34.5 81.5zM401 116q0 48 35 81.5t82 33.5t82 -33.5t35 -81.5t-35 -82t-82 -34t-82 34t-35 82z M401 701q0 48 35 82t82 34t82 -33.5t35 -82t-35 -82t-82 -33.5t-82 33.5t-35 81.5zM401 1287q0 48 35 82t82 34t82 -34t35 -82t-35 -82t-82 -34t-82 34t-35 82zM694 116q0 48 35 81.5t82 33.5t82 -33.5t35 -81.5t-35 -82t-82 -34t-82 34t-35 82zM694 701q0 48 35 82t82 34 t82 -33.5t35 -82t-35 -82t-82 -33.5t-82 33.5t-35 81.5zM694 1287q0 48 35 82t82 34t82 -34t35 -82t-35 -82t-82 -34t-82 34t-35 82zM987 116q0 48 35 81.5t82 33.5t82 -33.5t35 -81.5t-35 -82t-82 -34t-82 34t-35 82zM987 701q0 48 35 82t82 34t82 -33.5t35 -82t-35 -82 t-82 -33.5t-82 33.5t-35 81.5zM987 1287q0 48 35 82t82 34t82 -34t35 -82t-35 -82t-82 -34t-82 34t-35 82zM1280 409q0 48 35 81.5t82 33.5t81.5 -33.5t34.5 -81.5t-34.5 -82t-81.5 -34t-82 34t-35 82zM1280 701q0 48 35 82t82 34t81.5 -33.5t34.5 -82t-34.5 -82 t-81.5 -33.5t-82 33.5t-35 81.5zM1280 994q0 48 35 82t82 34t81.5 -34t34.5 -82t-34.5 -81.5t-81.5 -33.5t-82 33.5t-35 81.5z" />
<glyph unicode="h" d="M109 116q0 48 34.5 81.5t81.5 33.5t82 -33.5t35 -81.5t-35 -82t-82 -34t-81.5 34t-34.5 82zM109 409q0 48 34.5 81.5t81.5 33.5t82 -33.5t35 -81.5t-35 -82t-82 -34t-81.5 34t-34.5 82zM109 701q0 48 34.5 82t81.5 34t82 -33.5t35 -82t-35 -82t-82 -33.5t-81.5 33.5 t-34.5 81.5zM109 994q0 48 34.5 82t81.5 34t82 -34t35 -82t-35 -81.5t-82 -33.5t-81.5 33.5t-34.5 81.5zM109 1287q0 48 34.5 82t81.5 34t82 -34t35 -82t-35 -82t-82 -34t-81.5 34t-34.5 82zM401 994q0 48 35 82t82 34t82 -34t35 -82t-35 -81.5t-82 -33.5t-82 33.5t-35 81.5 zM694 994q0 48 35 82t82 34t82 -34t35 -82t-35 -81.5t-82 -33.5t-82 33.5t-35 81.5zM987 994q0 48 35 82t82 34t82 -34t35 -82t-35 -81.5t-82 -33.5t-82 33.5t-35 81.5zM1280 116q0 48 35 81.5t82 33.5t81.5 -33.5t34.5 -81.5t-34.5 -82t-81.5 -34t-82 34t-35 82zM1280 409 q0 48 35 81.5t82 33.5t81.5 -33.5t34.5 -81.5t-34.5 -82t-81.5 -34t-82 34t-35 82zM1280 701q0 48 35 82t82 34t81.5 -33.5t34.5 -82t-34.5 -82t-81.5 -33.5t-82 33.5t-35 81.5z" />
<glyph unicode="i" horiz-adv-x="450" d="M109 116q0 48 34.5 81.5t81.5 33.5t82 -33.5t35 -81.5t-35 -82t-82 -34t-81.5 34t-34.5 82zM109 409q0 48 34.5 81.5t81.5 33.5t82 -33.5t35 -81.5t-35 -82t-82 -34t-81.5 34t-34.5 82zM109 701q0 48 34.5 82t81.5 34t82 -33.5t35 -82t-35 -82t-82 -33.5t-81.5 33.5 t-34.5 81.5zM109 1287q0 48 34.5 82t81.5 34t82 -34t35 -82t-35 -82t-82 -34t-81.5 34t-34.5 82z" />
<glyph unicode="j" d="M109 116q0 48 34.5 81.5t81.5 33.5t82 -33.5t35 -81.5t-35 -82t-82 -34t-81.5 34t-34.5 82zM401 116q0 48 35 81.5t82 33.5t82 -33.5t35 -81.5t-35 -82t-82 -34t-82 34t-35 82zM694 116q0 48 35 81.5t82 33.5t82 -33.5t35 -81.5t-35 -82t-82 -34t-82 34t-35 82zM987 116 q0 48 35 81.5t82 33.5t82 -33.5t35 -81.5t-35 -82t-82 -34t-82 34t-35 82zM1280 409q0 48 35 81.5t82 33.5t81.5 -33.5t34.5 -81.5t-34.5 -82t-81.5 -34t-82 34t-35 82zM1280 701q0 48 35 82t82 34t81.5 -33.5t34.5 -82t-34.5 -82t-81.5 -33.5t-82 33.5t-35 81.5zM1280 994 q0 48 35 82t82 34t81.5 -34t34.5 -82t-34.5 -81.5t-81.5 -33.5t-82 33.5t-35 81.5zM1280 1287q0 48 35 82t82 34t81.5 -34t34.5 -82t-34.5 -82t-81.5 -34t-82 34t-35 82z" />
<glyph unicode="k" d="M109 116q0 48 34.5 81.5t81.5 33.5t82 -33.5t35 -81.5t-35 -82t-82 -34t-81.5 34t-34.5 82zM109 409q0 48 34.5 81.5t81.5 33.5t82 -33.5t35 -81.5t-35 -82t-82 -34t-81.5 34t-34.5 82zM109 701q0 48 34.5 82t81.5 34t82 -33.5t35 -82t-35 -82t-82 -33.5t-81.5 33.5 t-34.5 81.5zM109 994q0 48 34.5 82t81.5 34t82 -34t35 -82t-35 -81.5t-82 -33.5t-81.5 33.5t-34.5 81.5zM109 1287q0 48 34.5 82t81.5 34t82 -34t35 -82t-35 -82t-82 -34t-81.5 34t-34.5 82zM401 701q0 48 35 82t82 34t82 -33.5t35 -82t-35 -82t-82 -33.5t-82 33.5t-35 81.5 zM694 701q0 48 35 82t82 34t82 -33.5t35 -82t-35 -82t-82 -33.5t-82 33.5t-35 81.5zM987 409q0 48 35 81.5t82 33.5t82 -33.5t35 -81.5t-35 -82t-82 -34t-82 34t-35 82zM987 994q0 48 35 82t82 34t82 -34t35 -82t-35 -81.5t-82 -33.5t-82 33.5t-35 81.5zM1280 116 q0 48 35 81.5t82 33.5t81.5 -33.5t34.5 -81.5t-34.5 -82t-81.5 -34t-82 34t-35 82zM1280 1287q0 48 35 82t82 34t81.5 -34t34.5 -82t-34.5 -82t-81.5 -34t-82 34t-35 82z" />
<glyph unicode="l" d="M109 409q0 48 34.5 81.5t81.5 33.5t82 -33.5t35 -81.5t-35 -82t-82 -34t-81.5 34t-34.5 82zM109 701q0 48 34.5 82t81.5 34t82 -33.5t35 -82t-35 -82t-82 -33.5t-81.5 33.5t-34.5 81.5zM109 994q0 48 34.5 82t81.5 34t82 -34t35 -82t-35 -81.5t-82 -33.5t-81.5 33.5 t-34.5 81.5zM109 1287q0 48 34.5 82t81.5 34t82 -34t35 -82t-35 -82t-82 -34t-81.5 34t-34.5 82zM401 116q0 48 35 81.5t82 33.5t82 -33.5t35 -81.5t-35 -82t-82 -34t-82 34t-35 82zM694 116q0 48 35 81.5t82 33.5t82 -33.5t35 -81.5t-35 -82t-82 -34t-82 34t-35 82z M987 116q0 48 35 81.5t82 33.5t82 -33.5t35 -81.5t-35 -82t-82 -34t-82 34t-35 82zM1280 116q0 48 35 81.5t82 33.5t81.5 -33.5t34.5 -81.5t-34.5 -82t-81.5 -34t-82 34t-35 82z" />
<glyph unicode="m" d="M109 116q0 48 34.5 81.5t81.5 33.5t82 -33.5t35 -81.5t-35 -82t-82 -34t-81.5 34t-34.5 82zM109 409q0 48 34.5 81.5t81.5 33.5t82 -33.5t35 -81.5t-35 -82t-82 -34t-81.5 34t-34.5 82zM109 701q0 48 34.5 82t81.5 34t82 -33.5t35 -82t-35 -82t-82 -33.5t-81.5 33.5 t-34.5 81.5zM109 994q0 48 34.5 82t81.5 34t82 -34t35 -82t-35 -81.5t-82 -33.5t-81.5 33.5t-34.5 81.5zM401 1287q0 48 35 82t82 34t82 -34t35 -82t-35 -82t-82 -34t-82 34t-35 82zM694 116q0 48 35 81.5t82 33.5t82 -33.5t35 -81.5t-35 -82t-82 -34t-82 34t-35 82z M694 409q0 48 35 81.5t82 33.5t82 -33.5t35 -81.5t-35 -82t-82 -34t-82 34t-35 82zM694 701q0 48 35 82t82 34t82 -33.5t35 -82t-35 -82t-82 -33.5t-82 33.5t-35 81.5zM694 994q0 48 35 82t82 34t82 -34t35 -82t-35 -81.5t-82 -33.5t-82 33.5t-35 81.5zM987 1287q0 48 35 82 t82 34t82 -34t35 -82t-35 -82t-82 -34t-82 34t-35 82zM1280 116q0 48 35 81.5t82 33.5t81.5 -33.5t34.5 -81.5t-34.5 -82t-81.5 -34t-82 34t-35 82zM1280 409q0 48 35 81.5t82 33.5t81.5 -33.5t34.5 -81.5t-34.5 -82t-81.5 -34t-82 34t-35 82zM1280 701q0 48 35 82t82 34 t81.5 -33.5t34.5 -82t-34.5 -82t-81.5 -33.5t-82 33.5t-35 81.5zM1280 994q0 48 35 82t82 34t81.5 -34t34.5 -82t-34.5 -81.5t-81.5 -33.5t-82 33.5t-35 81.5z" />
<glyph unicode="n" d="M109 116q0 48 34.5 81.5t81.5 33.5t82 -33.5t35 -81.5t-35 -82t-82 -34t-81.5 34t-34.5 82zM109 409q0 48 34.5 81.5t81.5 33.5t82 -33.5t35 -81.5t-35 -82t-82 -34t-81.5 34t-34.5 82zM109 701q0 48 34.5 82t81.5 34t82 -33.5t35 -82t-35 -82t-82 -33.5t-81.5 33.5 t-34.5 81.5zM109 994q0 48 34.5 82t81.5 34t82 -34t35 -82t-35 -81.5t-82 -33.5t-81.5 33.5t-34.5 81.5zM109 1287q0 48 34.5 82t81.5 34t82 -34t35 -82t-35 -82t-82 -34t-81.5 34t-34.5 82zM401 1287q0 48 35 82t82 34t82 -34t35 -82t-35 -82t-82 -34t-82 34t-35 82z M694 1287q0 48 35 82t82 34t82 -34t35 -82t-35 -82t-82 -34t-82 34t-35 82zM987 1287q0 48 35 82t82 34t82 -34t35 -82t-35 -82t-82 -34t-82 34t-35 82zM1280 116q0 48 35 81.5t82 33.5t81.5 -33.5t34.5 -81.5t-34.5 -82t-81.5 -34t-82 34t-35 82zM1280 409q0 48 35 81.5 t82 33.5t81.5 -33.5t34.5 -81.5t-34.5 -82t-81.5 -34t-82 34t-35 82zM1280 701q0 48 35 82t82 34t81.5 -33.5t34.5 -82t-34.5 -82t-81.5 -33.5t-82 33.5t-35 81.5zM1280 994q0 48 35 82t82 34t81.5 -34t34.5 -82t-34.5 -81.5t-81.5 -33.5t-82 33.5t-35 81.5z" />
<glyph unicode="o" d="M109 409q0 48 34.5 81.5t81.5 33.5t82 -33.5t35 -81.5t-35 -82t-82 -34t-81.5 34t-34.5 82zM109 701q0 48 34.5 82t81.5 34t82 -33.5t35 -82t-35 -82t-82 -33.5t-81.5 33.5t-34.5 81.5zM109 994q0 48 34.5 82t81.5 34t82 -34t35 -82t-35 -81.5t-82 -33.5t-81.5 33.5 t-34.5 81.5zM401 116q0 48 35 81.5t82 33.5t82 -33.5t35 -81.5t-35 -82t-82 -34t-82 34t-35 82zM401 1287q0 48 35 82t82 34t82 -34t35 -82t-35 -82t-82 -34t-82 34t-35 82zM694 116q0 48 35 81.5t82 33.5t82 -33.5t35 -81.5t-35 -82t-82 -34t-82 34t-35 82zM694 1287 q0 48 35 82t82 34t82 -34t35 -82t-35 -82t-82 -34t-82 34t-35 82zM987 116q0 48 35 81.5t82 33.5t82 -33.5t35 -81.5t-35 -82t-82 -34t-82 34t-35 82zM987 1287q0 48 35 82t82 34t82 -34t35 -82t-35 -82t-82 -34t-82 34t-35 82zM1280 409q0 48 35 81.5t82 33.5t81.5 -33.5 t34.5 -81.5t-34.5 -82t-81.5 -34t-82 34t-35 82zM1280 701q0 48 35 82t82 34t81.5 -33.5t34.5 -82t-34.5 -82t-81.5 -33.5t-82 33.5t-35 81.5zM1280 994q0 48 35 82t82 34t81.5 -34t34.5 -82t-34.5 -81.5t-81.5 -33.5t-82 33.5t-35 81.5z" />
<glyph unicode="p" d="M109 116q0 48 34.5 81.5t81.5 33.5t82 -33.5t35 -81.5t-35 -82t-82 -34t-81.5 34t-34.5 82zM109 409q0 48 34.5 81.5t81.5 33.5t82 -33.5t35 -81.5t-35 -82t-82 -34t-81.5 34t-34.5 82zM109 701q0 48 34.5 82t81.5 34t82 -33.5t35 -82t-35 -82t-82 -33.5t-81.5 33.5 t-34.5 81.5zM109 994q0 48 34.5 82t81.5 34t82 -34t35 -82t-35 -81.5t-82 -33.5t-81.5 33.5t-34.5 81.5zM109 1287q0 48 34.5 82t81.5 34t82 -34t35 -82t-35 -82t-82 -34t-81.5 34t-34.5 82zM401 409q0 48 35 81.5t82 33.5t82 -33.5t35 -81.5t-35 -82t-82 -34t-82 34t-35 82 zM401 1287q0 48 35 82t82 34t82 -34t35 -82t-35 -82t-82 -34t-82 34t-35 82zM694 409q0 48 35 81.5t82 33.5t82 -33.5t35 -81.5t-35 -82t-82 -34t-82 34t-35 82zM694 1287q0 48 35 82t82 34t82 -34t35 -82t-35 -82t-82 -34t-82 34t-35 82zM987 409q0 48 35 81.5t82 33.5 t82 -33.5t35 -81.5t-35 -82t-82 -34t-82 34t-35 82zM987 1287q0 48 35 82t82 34t82 -34t35 -82t-35 -82t-82 -34t-82 34t-35 82zM1280 701q0 48 35 82t82 34t81.5 -33.5t34.5 -82t-34.5 -82t-81.5 -33.5t-82 33.5t-35 81.5zM1280 994q0 48 35 82t82 34t81.5 -34t34.5 -82 t-34.5 -81.5t-81.5 -33.5t-82 33.5t-35 81.5z" />
<glyph unicode="q" d="M109 701q0 48 34.5 82t81.5 34t82 -33.5t35 -82t-35 -82t-82 -33.5t-81.5 33.5t-34.5 81.5zM109 994q0 48 34.5 82t81.5 34t82 -34t35 -82t-35 -81.5t-82 -33.5t-81.5 33.5t-34.5 81.5zM401 409q0 48 35 81.5t82 33.5t82 -33.5t35 -81.5t-35 -82t-82 -34t-82 34t-35 82z M401 1287q0 48 35 82t82 34t82 -34t35 -82t-35 -82t-82 -34t-82 34t-35 82zM694 409q0 48 35 81.5t82 33.5t82 -33.5t35 -81.5t-35 -82t-82 -34t-82 34t-35 82zM694 1287q0 48 35 82t82 34t82 -34t35 -82t-35 -82t-82 -34t-82 34t-35 82zM987 409q0 48 35 81.5t82 33.5 t82 -33.5t35 -81.5t-35 -82t-82 -34t-82 34t-35 82zM987 1287q0 48 35 82t82 34t82 -34t35 -82t-35 -82t-82 -34t-82 34t-35 82zM1280 116q0 48 35 81.5t82 33.5t81.5 -33.5t34.5 -81.5t-34.5 -82t-81.5 -34t-82 34t-35 82zM1280 409q0 48 35 81.5t82 33.5t81.5 -33.5 t34.5 -81.5t-34.5 -82t-81.5 -34t-82 34t-35 82zM1280 701q0 48 35 82t82 34t81.5 -33.5t34.5 -82t-34.5 -82t-81.5 -33.5t-82 33.5t-35 81.5zM1280 994q0 48 35 82t82 34t81.5 -34t34.5 -82t-34.5 -81.5t-81.5 -33.5t-82 33.5t-35 81.5zM1280 1287q0 48 35 82t82 34 t81.5 -34t34.5 -82t-34.5 -82t-81.5 -34t-82 34t-35 82z" />
<glyph unicode="r" d="M109 116q0 48 34.5 81.5t81.5 33.5t82 -33.5t35 -81.5t-35 -82t-82 -34t-81.5 34t-34.5 82zM109 409q0 48 34.5 81.5t81.5 33.5t82 -33.5t35 -81.5t-35 -82t-82 -34t-81.5 34t-34.5 82zM109 701q0 48 34.5 82t81.5 34t82 -33.5t35 -82t-35 -82t-82 -33.5t-81.5 33.5 t-34.5 81.5zM109 994q0 48 34.5 82t81.5 34t82 -34t35 -82t-35 -81.5t-82 -33.5t-81.5 33.5t-34.5 81.5zM109 1287q0 48 34.5 82t81.5 34t82 -34t35 -82t-35 -82t-82 -34t-81.5 34t-34.5 82zM401 994q0 48 35 82t82 34t82 -34t35 -82t-35 -81.5t-82 -33.5t-82 33.5t-35 81.5 zM694 1287q0 48 35 82t82 34t82 -34t35 -82t-35 -82t-82 -34t-82 34t-35 82zM987 1287q0 48 35 82t82 34t82 -34t35 -82t-35 -82t-82 -34t-82 34t-35 82zM1280 994q0 48 35 82t82 34t81.5 -34t34.5 -82t-34.5 -81.5t-81.5 -33.5t-82 33.5t-35 81.5z" />
<glyph unicode="s" d="M109 116q0 48 34.5 81.5t81.5 33.5t82 -33.5t35 -81.5t-35 -82t-82 -34t-81.5 34t-34.5 82zM109 994q0 48 34.5 82t81.5 34t82 -34t35 -82t-35 -81.5t-82 -33.5t-81.5 33.5t-34.5 81.5zM401 116q0 48 35 81.5t82 33.5t82 -33.5t35 -81.5t-35 -82t-82 -34t-82 34t-35 82z M401 701q0 48 35 82t82 34t82 -33.5t35 -82t-35 -82t-82 -33.5t-82 33.5t-35 81.5zM401 1287q0 48 35 82t82 34t82 -34t35 -82t-35 -82t-82 -34t-82 34t-35 82zM694 116q0 48 35 81.5t82 33.5t82 -33.5t35 -81.5t-35 -82t-82 -34t-82 34t-35 82zM694 701q0 48 35 82t82 34 t82 -33.5t35 -82t-35 -82t-82 -33.5t-82 33.5t-35 81.5zM694 1287q0 48 35 82t82 34t82 -34t35 -82t-35 -82t-82 -34t-82 34t-35 82zM987 116q0 48 35 81.5t82 33.5t82 -33.5t35 -81.5t-35 -82t-82 -34t-82 34t-35 82zM987 701q0 48 35 82t82 34t82 -33.5t35 -82t-35 -82 t-82 -33.5t-82 33.5t-35 81.5zM987 1287q0 48 35 82t82 34t82 -34t35 -82t-35 -82t-82 -34t-82 34t-35 82zM1280 409q0 48 35 81.5t82 33.5t81.5 -33.5t34.5 -81.5t-34.5 -82t-81.5 -34t-82 34t-35 82zM1280 1287q0 48 35 82t82 34t81.5 -34t34.5 -82t-34.5 -82t-81.5 -34 t-82 34t-35 82z" />
<glyph unicode="t" d="M109 409q0 48 34.5 81.5t81.5 33.5t82 -33.5t35 -81.5t-35 -82t-82 -34t-81.5 34t-34.5 82zM109 701q0 48 34.5 82t81.5 34t82 -33.5t35 -82t-35 -82t-82 -33.5t-81.5 33.5t-34.5 81.5zM109 994q0 48 34.5 82t81.5 34t82 -34t35 -82t-35 -81.5t-82 -33.5t-81.5 33.5 t-34.5 81.5zM109 1287q0 48 34.5 82t81.5 34t82 -34t35 -82t-35 -82t-82 -34t-81.5 34t-34.5 82zM401 116q0 48 35 81.5t82 33.5t82 -33.5t35 -81.5t-35 -82t-82 -34t-82 34t-35 82zM401 994q0 48 35 82t82 34t82 -34t35 -82t-35 -81.5t-82 -33.5t-82 33.5t-35 81.5z M694 116q0 48 35 81.5t82 33.5t82 -33.5t35 -81.5t-35 -82t-82 -34t-82 34t-35 82zM694 994q0 48 35 82t82 34t82 -34t35 -82t-35 -81.5t-82 -33.5t-82 33.5t-35 81.5zM987 116q0 48 35 81.5t82 33.5t82 -33.5t35 -81.5t-35 -82t-82 -34t-82 34t-35 82zM1280 409 q0 48 35 81.5t82 33.5t81.5 -33.5t34.5 -81.5t-34.5 -82t-81.5 -34t-82 34t-35 82z" />
<glyph unicode="u" d="M109 409q0 48 34.5 81.5t81.5 33.5t82 -33.5t35 -81.5t-35 -82t-82 -34t-81.5 34t-34.5 82zM109 701q0 48 34.5 82t81.5 34t82 -33.5t35 -82t-35 -82t-82 -33.5t-81.5 33.5t-34.5 81.5zM109 994q0 48 34.5 82t81.5 34t82 -34t35 -82t-35 -81.5t-82 -33.5t-81.5 33.5 t-34.5 81.5zM109 1287q0 48 34.5 82t81.5 34t82 -34t35 -82t-35 -82t-82 -34t-81.5 34t-34.5 82zM401 116q0 48 35 81.5t82 33.5t82 -33.5t35 -81.5t-35 -82t-82 -34t-82 34t-35 82zM694 116q0 48 35 81.5t82 33.5t82 -33.5t35 -81.5t-35 -82t-82 -34t-82 34t-35 82z M987 409q0 48 35 81.5t82 33.5t82 -33.5t35 -81.5t-35 -82t-82 -34t-82 34t-35 82zM1280 116q0 48 35 81.5t82 33.5t81.5 -33.5t34.5 -81.5t-34.5 -82t-81.5 -34t-82 34t-35 82zM1280 409q0 48 35 81.5t82 33.5t81.5 -33.5t34.5 -81.5t-34.5 -82t-81.5 -34t-82 34t-35 82z M1280 701q0 48 35 82t82 34t81.5 -33.5t34.5 -82t-34.5 -82t-81.5 -33.5t-82 33.5t-35 81.5zM1280 994q0 48 35 82t82 34t81.5 -34t34.5 -82t-34.5 -81.5t-81.5 -33.5t-82 33.5t-35 81.5zM1280 1287q0 48 35 82t82 34t81.5 -34t34.5 -82t-34.5 -82t-81.5 -34t-82 34t-35 82z " />
<glyph unicode="v" d="M109 994q0 48 34.5 82t81.5 34t82 -34t35 -82t-35 -81.5t-82 -33.5t-81.5 33.5t-34.5 81.5zM109 1287q0 48 34.5 82t81.5 34t82 -34t35 -82t-35 -82t-82 -34t-81.5 34t-34.5 82zM401 409q0 48 35 81.5t82 33.5t82 -33.5t35 -81.5t-35 -82t-82 -34t-82 34t-35 82zM401 701 q0 48 35 82t82 34t82 -33.5t35 -82t-35 -82t-82 -33.5t-82 33.5t-35 81.5zM694 116q0 48 35 81.5t82 33.5t82 -33.5t35 -81.5t-35 -82t-82 -34t-82 34t-35 82zM987 409q0 48 35 81.5t82 33.5t82 -33.5t35 -81.5t-35 -82t-82 -34t-82 34t-35 82zM987 701q0 48 35 82t82 34 t82 -33.5t35 -82t-35 -82t-82 -33.5t-82 33.5t-35 81.5zM1280 994q0 48 35 82t82 34t81.5 -34t34.5 -82t-34.5 -81.5t-81.5 -33.5t-82 33.5t-35 81.5zM1280 1287q0 48 35 82t82 34t81.5 -34t34.5 -82t-34.5 -82t-81.5 -34t-82 34t-35 82z" />
<glyph unicode="w" d="M109 409q0 48 34.5 81.5t81.5 33.5t82 -33.5t35 -81.5t-35 -82t-82 -34t-81.5 34t-34.5 82zM109 701q0 48 34.5 82t81.5 34t82 -33.5t35 -82t-35 -82t-82 -33.5t-81.5 33.5t-34.5 81.5zM109 994q0 48 34.5 82t81.5 34t82 -34t35 -82t-35 -81.5t-82 -33.5t-81.5 33.5 t-34.5 81.5zM109 1287q0 48 34.5 82t81.5 34t82 -34t35 -82t-35 -82t-82 -34t-81.5 34t-34.5 82zM401 116q0 48 35 81.5t82 33.5t82 -33.5t35 -81.5t-35 -82t-82 -34t-82 34t-35 82zM694 409q0 48 35 81.5t82 33.5t82 -33.5t35 -81.5t-35 -82t-82 -34t-82 34t-35 82z M694 701q0 48 35 82t82 34t82 -33.5t35 -82t-35 -82t-82 -33.5t-82 33.5t-35 81.5zM694 994q0 48 35 82t82 34t82 -34t35 -82t-35 -81.5t-82 -33.5t-82 33.5t-35 81.5zM694 1287q0 48 35 82t82 34t82 -34t35 -82t-35 -82t-82 -34t-82 34t-35 82zM987 116q0 48 35 81.5 t82 33.5t82 -33.5t35 -81.5t-35 -82t-82 -34t-82 34t-35 82zM1280 409q0 48 35 81.5t82 33.5t81.5 -33.5t34.5 -81.5t-34.5 -82t-81.5 -34t-82 34t-35 82zM1280 701q0 48 35 82t82 34t81.5 -33.5t34.5 -82t-34.5 -82t-81.5 -33.5t-82 33.5t-35 81.5zM1280 994q0 48 35 82 t82 34t81.5 -34t34.5 -82t-34.5 -81.5t-81.5 -33.5t-82 33.5t-35 81.5zM1280 1287q0 48 35 82t82 34t81.5 -34t34.5 -82t-34.5 -82t-81.5 -34t-82 34t-35 82z" />
<glyph unicode="x" d="M109 116q0 48 34.5 81.5t81.5 33.5t82 -33.5t35 -81.5t-35 -82t-82 -34t-81.5 34t-34.5 82zM109 409q0 48 34.5 81.5t81.5 33.5t82 -33.5t35 -81.5t-35 -82t-82 -34t-81.5 34t-34.5 82zM109 994q0 48 34.5 82t81.5 34t82 -34t35 -82t-35 -81.5t-82 -33.5t-81.5 33.5 t-34.5 81.5zM109 1287q0 48 34.5 82t81.5 34t82 -34t35 -82t-35 -82t-82 -34t-81.5 34t-34.5 82zM401 701q0 48 35 82t82 34t82 -33.5t35 -82t-35 -82t-82 -33.5t-82 33.5t-35 81.5zM694 701q0 48 35 82t82 34t82 -33.5t35 -82t-35 -82t-82 -33.5t-82 33.5t-35 81.5z M987 701q0 48 35 82t82 34t82 -33.5t35 -82t-35 -82t-82 -33.5t-82 33.5t-35 81.5zM1280 116q0 48 35 81.5t82 33.5t81.5 -33.5t34.5 -81.5t-34.5 -82t-81.5 -34t-82 34t-35 82zM1280 409q0 48 35 81.5t82 33.5t81.5 -33.5t34.5 -81.5t-34.5 -82t-81.5 -34t-82 34t-35 82z M1280 994q0 48 35 82t82 34t81.5 -34t34.5 -82t-34.5 -81.5t-81.5 -33.5t-82 33.5t-35 81.5zM1280 1287q0 48 35 82t82 34t81.5 -34t34.5 -82t-34.5 -82t-81.5 -34t-82 34t-35 82z" />
<glyph unicode="y" d="M109 116q0 48 34.5 81.5t81.5 33.5t82 -33.5t35 -81.5t-35 -82t-82 -34t-81.5 34t-34.5 82zM109 994q0 48 34.5 82t81.5 34t82 -34t35 -82t-35 -81.5t-82 -33.5t-81.5 33.5t-34.5 81.5zM109 1287q0 48 34.5 82t81.5 34t82 -34t35 -82t-35 -82t-82 -34t-81.5 34t-34.5 82z M401 116q0 48 35 81.5t82 33.5t82 -33.5t35 -81.5t-35 -82t-82 -34t-82 34t-35 82zM401 701q0 48 35 82t82 34t82 -33.5t35 -82t-35 -82t-82 -33.5t-82 33.5t-35 81.5zM694 116q0 48 35 81.5t82 33.5t82 -33.5t35 -81.5t-35 -82t-82 -34t-82 34t-35 82zM694 701q0 48 35 82 t82 34t82 -33.5t35 -82t-35 -82t-82 -33.5t-82 33.5t-35 81.5zM987 116q0 48 35 81.5t82 33.5t82 -33.5t35 -81.5t-35 -82t-82 -34t-82 34t-35 82zM987 701q0 48 35 82t82 34t82 -33.5t35 -82t-35 -82t-82 -33.5t-82 33.5t-35 81.5zM1280 409q0 48 35 81.5t82 33.5 t81.5 -33.5t34.5 -81.5t-34.5 -82t-81.5 -34t-82 34t-35 82zM1280 701q0 48 35 82t82 34t81.5 -33.5t34.5 -82t-34.5 -82t-81.5 -33.5t-82 33.5t-35 81.5zM1280 994q0 48 35 82t82 34t81.5 -34t34.5 -82t-34.5 -81.5t-81.5 -33.5t-82 33.5t-35 81.5zM1280 1287q0 48 35 82 t82 34t81.5 -34t34.5 -82t-34.5 -82t-81.5 -34t-82 34t-35 82z" />
<glyph unicode="z" d="M109 116q0 48 34.5 81.5t81.5 33.5t82 -33.5t35 -81.5t-35 -82t-82 -34t-81.5 34t-34.5 82zM109 1287q0 48 34.5 82t81.5 34t82 -34t35 -82t-35 -82t-82 -34t-81.5 34t-34.5 82zM401 116q0 48 35 81.5t82 33.5t82 -33.5t35 -81.5t-35 -82t-82 -34t-82 34t-35 82zM401 409 q0 48 35 81.5t82 33.5t82 -33.5t35 -81.5t-35 -82t-82 -34t-82 34t-35 82zM401 1287q0 48 35 82t82 34t82 -34t35 -82t-35 -82t-82 -34t-82 34t-35 82zM694 116q0 48 35 81.5t82 33.5t82 -33.5t35 -81.5t-35 -82t-82 -34t-82 34t-35 82zM694 701q0 48 35 82t82 34t82 -33.5 t35 -82t-35 -82t-82 -33.5t-82 33.5t-35 81.5zM694 1287q0 48 35 82t82 34t82 -34t35 -82t-35 -82t-82 -34t-82 34t-35 82zM987 116q0 48 35 81.5t82 33.5t82 -33.5t35 -81.5t-35 -82t-82 -34t-82 34t-35 82zM987 994q0 48 35 82t82 34t82 -34t35 -82t-35 -81.5t-82 -33.5 t-82 33.5t-35 81.5zM987 1287q0 48 35 82t82 34t82 -34t35 -82t-35 -82t-82 -34t-82 34t-35 82zM1280 116q0 48 35 81.5t82 33.5t81.5 -33.5t34.5 -81.5t-34.5 -82t-81.5 -34t-82 34t-35 82zM1280 1287q0 48 35 82t82 34t81.5 -34t34.5 -82t-34.5 -82t-81.5 -34t-82 34 t-35 82z" />
<glyph unicode="{" horiz-adv-x="1036" d="M109 701q0 48 34.5 82t81.5 34t82 -33.5t35 -82t-35 -82t-82 -33.5t-81.5 33.5t-34.5 81.5zM401 409q0 48 35 81.5t82 33.5t82 -33.5t35 -81.5t-35 -82t-82 -34t-82 34t-35 82zM401 701q0 48 35 82t82 34t82 -33.5t35 -82t-35 -82t-82 -33.5t-82 33.5t-35 81.5zM401 994 q0 48 35 82t82 34t82 -34t35 -82t-35 -81.5t-82 -33.5t-82 33.5t-35 81.5zM694 116q0 48 35 81.5t82 33.5t82 -33.5t35 -81.5t-35 -82t-82 -34t-82 34t-35 82zM694 1287q0 48 35 82t82 34t82 -34t35 -82t-35 -82t-82 -34t-82 34t-35 82z" />
<glyph unicode="|" horiz-adv-x="450" d="M109 116q0 48 34.5 81.5t81.5 33.5t82 -33.5t35 -81.5t-35 -82t-82 -34t-81.5 34t-34.5 82zM109 409q0 48 34.5 81.5t81.5 33.5t82 -33.5t35 -81.5t-35 -82t-82 -34t-81.5 34t-34.5 82zM109 701q0 48 34.5 82t81.5 34t82 -33.5t35 -82t-35 -82t-82 -33.5t-81.5 33.5 t-34.5 81.5zM109 994q0 48 34.5 82t81.5 34t82 -34t35 -82t-35 -81.5t-82 -33.5t-81.5 33.5t-34.5 81.5zM109 1287q0 48 34.5 82t81.5 34t82 -34t35 -82t-35 -82t-82 -34t-81.5 34t-34.5 82z" />
<glyph unicode="}" horiz-adv-x="1036" d="M109 116q0 48 34.5 81.5t81.5 33.5t82 -33.5t35 -81.5t-35 -82t-82 -34t-81.5 34t-34.5 82zM109 1287q0 48 34.5 82t81.5 34t82 -34t35 -82t-35 -82t-82 -34t-81.5 34t-34.5 82zM401 409q0 48 35 81.5t82 33.5t82 -33.5t35 -81.5t-35 -82t-82 -34t-82 34t-35 82zM401 701 q0 48 35 82t82 34t82 -33.5t35 -82t-35 -82t-82 -33.5t-82 33.5t-35 81.5zM401 994q0 48 35 82t82 34t82 -34t35 -82t-35 -81.5t-82 -33.5t-82 33.5t-35 81.5zM694 701q0 48 35 82t82 34t82 -33.5t35 -82t-35 -82t-82 -33.5t-82 33.5t-35 81.5z" />
<glyph unicode="~" horiz-adv-x="1331" d="M111 994q0 48 33.5 82t81.5 34t82 -34t34 -82t-34 -81.5t-82 -33.5t-81.5 33.5t-33.5 81.5zM403 1287q0 48 34 82t82 34t82 -34t34 -82t-34 -82t-82 -34t-82 34t-34 82zM696 994q0 48 34 82t82 34t82 -34t34 -82t-34 -81.5t-82 -33.5t-82 33.5t-34 81.5zM989 1287 q0 48 34 82t82 34t82 -34t34 -82t-34 -82t-82 -34t-82 34t-34 82z" />
<glyph unicode="&#xa1;" horiz-adv-x="450" d="M109 116q0 48 34.5 81.5t81.5 33.5t82 -33.5t35 -81.5t-35 -82t-82 -34t-81.5 34t-34.5 82zM109 409q0 48 34.5 81.5t81.5 33.5t82 -33.5t35 -81.5t-35 -82t-82 -34t-81.5 34t-34.5 82zM109 701q0 48 34.5 82t81.5 34t82 -33.5t35 -82t-35 -82t-82 -33.5t-81.5 33.5 t-34.5 81.5zM109 1287q0 48 34.5 82t81.5 34t82 -34t35 -82t-35 -82t-82 -34t-81.5 34t-34.5 82z" />
<glyph unicode="&#xa2;" d="M109 409q0 48 34.5 81.5t81.5 33.5t82 -33.5t35 -81.5t-35 -82t-82 -34t-81.5 34t-34.5 82zM109 701q0 48 34.5 82t81.5 34t82 -33.5t35 -82t-35 -82t-82 -33.5t-81.5 33.5t-34.5 81.5zM109 994q0 48 34.5 82t81.5 34t82 -34t35 -82t-35 -81.5t-82 -33.5t-81.5 33.5 t-34.5 81.5zM401 116q0 48 35 81.5t82 33.5t82 -33.5t35 -81.5t-35 -82t-82 -34t-82 34t-35 82zM401 1287q0 48 35 82t82 34t82 -34t35 -82t-35 -82t-82 -34t-82 34t-35 82zM694 116q0 48 35 81.5t82 33.5t82 -33.5t35 -81.5t-35 -82t-82 -34t-82 34t-35 82zM694 409 q0 48 35 81.5t82 33.5t82 -33.5t35 -81.5t-35 -82t-82 -34t-82 34t-35 82zM694 701q0 48 35 82t82 34t82 -33.5t35 -82t-35 -82t-82 -33.5t-82 33.5t-35 81.5zM694 994q0 48 35 82t82 34t82 -34t35 -82t-35 -81.5t-82 -33.5t-82 33.5t-35 81.5zM694 1287q0 48 35 82t82 34 t82 -34t35 -82t-35 -82t-82 -34t-82 34t-35 82zM987 116q0 48 35 81.5t82 33.5t82 -33.5t35 -81.5t-35 -82t-82 -34t-82 34t-35 82zM987 1287q0 48 35 82t82 34t82 -34t35 -82t-35 -82t-82 -34t-82 34t-35 82zM1280 116q0 48 35 81.5t82 33.5t81.5 -33.5t34.5 -81.5 t-34.5 -82t-81.5 -34t-82 34t-35 82zM1280 1287q0 48 35 82t82 34t81.5 -34t34.5 -82t-34.5 -82t-81.5 -34t-82 34t-35 82z" />
<glyph unicode="&#xa3;" d="M109 116q0 48 34.5 81.5t81.5 33.5t82 -33.5t35 -81.5t-35 -82t-82 -34t-81.5 34t-34.5 82zM109 701q0 48 34.5 82t81.5 34t82 -33.5t35 -82t-35 -82t-82 -33.5t-81.5 33.5t-34.5 81.5zM401 116q0 48 35 81.5t82 33.5t82 -33.5t35 -81.5t-35 -82t-82 -34t-82 34t-35 82z M401 409q0 48 35 81.5t82 33.5t82 -33.5t35 -81.5t-35 -82t-82 -34t-82 34t-35 82zM401 701q0 48 35 82t82 34t82 -33.5t35 -82t-35 -82t-82 -33.5t-82 33.5t-35 81.5zM401 994q0 48 35 82t82 34t82 -34t35 -82t-35 -81.5t-82 -33.5t-82 33.5t-35 81.5zM694 116 q0 48 35 81.5t82 33.5t82 -33.5t35 -81.5t-35 -82t-82 -34t-82 34t-35 82zM694 701q0 48 35 82t82 34t82 -33.5t35 -82t-35 -82t-82 -33.5t-82 33.5t-35 81.5zM694 1287q0 48 35 82t82 34t82 -34t35 -82t-35 -82t-82 -34t-82 34t-35 82zM987 116q0 48 35 81.5t82 33.5 t82 -33.5t35 -81.5t-35 -82t-82 -34t-82 34t-35 82zM987 1287q0 48 35 82t82 34t82 -34t35 -82t-35 -82t-82 -34t-82 34t-35 82zM1280 116q0 48 35 81.5t82 33.5t81.5 -33.5t34.5 -81.5t-34.5 -82t-81.5 -34t-82 34t-35 82zM1280 994q0 48 35 82t82 34t81.5 -34t34.5 -82 t-34.5 -81.5t-81.5 -33.5t-82 33.5t-35 81.5z" />
<glyph unicode="&#xa4;" d="M109 116q0 48 34.5 81.5t81.5 33.5t82 -33.5t35 -81.5t-35 -82t-82 -34t-81.5 34t-34.5 82zM109 1287q0 48 34.5 82t81.5 34t82 -34t35 -82t-35 -82t-82 -34t-81.5 34t-34.5 82zM401 409q0 48 35 81.5t82 33.5t82 -33.5t35 -81.5t-35 -82t-82 -34t-82 34t-35 82zM401 701 q0 48 35 82t82 34t82 -33.5t35 -82t-35 -82t-82 -33.5t-82 33.5t-35 81.5zM401 994q0 48 35 82t82 34t82 -34t35 -82t-35 -81.5t-82 -33.5t-82 33.5t-35 81.5zM694 409q0 48 35 81.5t82 33.5t82 -33.5t35 -81.5t-35 -82t-82 -34t-82 34t-35 82zM694 994q0 48 35 82t82 34 t82 -34t35 -82t-35 -81.5t-82 -33.5t-82 33.5t-35 81.5zM987 409q0 48 35 81.5t82 33.5t82 -33.5t35 -81.5t-35 -82t-82 -34t-82 34t-35 82zM987 701q0 48 35 82t82 34t82 -33.5t35 -82t-35 -82t-82 -33.5t-82 33.5t-35 81.5zM987 994q0 48 35 82t82 34t82 -34t35 -82 t-35 -81.5t-82 -33.5t-82 33.5t-35 81.5zM1280 116q0 48 35 81.5t82 33.5t81.5 -33.5t34.5 -81.5t-34.5 -82t-81.5 -34t-82 34t-35 82zM1280 1287q0 48 35 82t82 34t81.5 -34t34.5 -82t-34.5 -82t-81.5 -34t-82 34t-35 82z" />
<glyph unicode="&#xa5;" d="M109 1287q0 48 34.5 82t81.5 34t82 -34t35 -82t-35 -82t-82 -34t-81.5 34t-34.5 82zM401 409q0 48 35 81.5t82 33.5t82 -33.5t35 -81.5t-35 -82t-82 -34t-82 34t-35 82zM401 994q0 48 35 82t82 34t82 -34t35 -82t-35 -81.5t-82 -33.5t-82 33.5t-35 81.5zM694 116 q0 48 35 81.5t82 33.5t82 -33.5t35 -81.5t-35 -82t-82 -34t-82 34t-35 82zM694 409q0 48 35 81.5t82 33.5t82 -33.5t35 -81.5t-35 -82t-82 -34t-82 34t-35 82zM694 701q0 48 35 82t82 34t82 -33.5t35 -82t-35 -82t-82 -33.5t-82 33.5t-35 81.5zM694 994q0 48 35 82t82 34 t82 -34t35 -82t-35 -81.5t-82 -33.5t-82 33.5t-35 81.5zM987 409q0 48 35 81.5t82 33.5t82 -33.5t35 -81.5t-35 -82t-82 -34t-82 34t-35 82zM987 994q0 48 35 82t82 34t82 -34t35 -82t-35 -81.5t-82 -33.5t-82 33.5t-35 81.5zM1280 1287q0 48 35 82t82 34t81.5 -34t34.5 -82 t-34.5 -82t-81.5 -34t-82 34t-35 82z" />
<glyph unicode="&#xa6;" horiz-adv-x="450" d="M109 116q0 48 34.5 81.5t81.5 33.5t82 -33.5t35 -81.5t-35 -82t-82 -34t-81.5 34t-34.5 82zM109 409q0 48 34.5 81.5t81.5 33.5t82 -33.5t35 -81.5t-35 -82t-82 -34t-81.5 34t-34.5 82zM109 994q0 48 34.5 82t81.5 34t82 -34t35 -82t-35 -81.5t-82 -33.5t-81.5 33.5 t-34.5 81.5zM109 1287q0 48 34.5 82t81.5 34t82 -34t35 -82t-35 -82t-82 -34t-81.5 34t-34.5 82z" />
<glyph unicode="&#xa7;" horiz-adv-x="1036" d="M109 116q0 48 34.5 81.5t81.5 33.5t82 -33.5t35 -81.5t-35 -82t-82 -34t-81.5 34t-34.5 82zM109 994q0 48 34.5 82t81.5 34t82 -34t35 -82t-35 -81.5t-82 -33.5t-81.5 33.5t-34.5 81.5zM401 116q0 48 35 81.5t82 33.5t82 -33.5t35 -81.5t-35 -82t-82 -34t-82 34t-35 82z M401 701q0 48 35 82t82 34t82 -33.5t35 -82t-35 -82t-82 -33.5t-82 33.5t-35 81.5zM401 1287q0 48 35 82t82 34t82 -34t35 -82t-35 -82t-82 -34t-82 34t-35 82zM694 409q0 48 35 81.5t82 33.5t82 -33.5t35 -81.5t-35 -82t-82 -34t-82 34t-35 82zM694 1287q0 48 35 82t82 34 t82 -34t35 -82t-35 -82t-82 -34t-82 34t-35 82z" />
<glyph unicode="&#xa8;" horiz-adv-x="1036" d="M109 1287q0 48 34.5 82t81.5 34t82 -34t35 -82t-35 -82t-82 -34t-81.5 34t-34.5 82zM694 1287q0 48 35 82t82 34t82 -34t35 -82t-35 -82t-82 -34t-82 34t-35 82z" />
<glyph unicode="&#xa9;" d="M109 409q0 48 34.5 81.5t81.5 33.5t82 -33.5t35 -81.5t-35 -82t-82 -34t-81.5 34t-34.5 82zM109 701q0 48 34.5 82t81.5 34t82 -33.5t35 -82t-35 -82t-82 -33.5t-81.5 33.5t-34.5 81.5zM109 994q0 48 34.5 82t81.5 34t82 -34t35 -82t-35 -81.5t-82 -33.5t-81.5 33.5 t-34.5 81.5zM401 116q0 48 35 81.5t82 33.5t82 -33.5t35 -81.5t-35 -82t-82 -34t-82 34t-35 82zM401 1287q0 48 35 82t82 34t82 -34t35 -82t-35 -82t-82 -34t-82 34t-35 82zM694 116q0 48 35 81.5t82 33.5t82 -33.5t35 -81.5t-35 -82t-82 -34t-82 34t-35 82zM694 701 q0 48 35 82t82 34t82 -33.5t35 -82t-35 -82t-82 -33.5t-82 33.5t-35 81.5zM694 1287q0 48 35 82t82 34t82 -34t35 -82t-35 -82t-82 -34t-82 34t-35 82zM987 116q0 48 35 81.5t82 33.5t82 -33.5t35 -81.5t-35 -82t-82 -34t-82 34t-35 82zM987 1287q0 48 35 82t82 34t82 -34 t35 -82t-35 -82t-82 -34t-82 34t-35 82zM1280 409q0 48 35 81.5t82 33.5t81.5 -33.5t34.5 -81.5t-34.5 -82t-81.5 -34t-82 34t-35 82zM1280 701q0 48 35 82t82 34t81.5 -33.5t34.5 -82t-34.5 -82t-81.5 -33.5t-82 33.5t-35 81.5zM1280 994q0 48 35 82t82 34t81.5 -34 t34.5 -82t-34.5 -81.5t-81.5 -33.5t-82 33.5t-35 81.5z" />
<glyph unicode="&#xaa;" d="M109 116q0 48 34.5 81.5t81.5 33.5t82 -33.5t35 -81.5t-35 -82t-82 -34t-81.5 34t-34.5 82zM109 994q0 48 34.5 82t81.5 34t82 -34t35 -82t-35 -81.5t-82 -33.5t-81.5 33.5t-34.5 81.5zM401 116q0 48 35 81.5t82 33.5t82 -33.5t35 -81.5t-35 -82t-82 -34t-82 34t-35 82z M401 701q0 48 35 82t82 34t82 -33.5t35 -82t-35 -82t-82 -33.5t-82 33.5t-35 81.5zM401 1287q0 48 35 82t82 34t82 -34t35 -82t-35 -82t-82 -34t-82 34t-35 82zM694 116q0 48 35 81.5t82 33.5t82 -33.5t35 -81.5t-35 -82t-82 -34t-82 34t-35 82zM694 701q0 48 35 82t82 34 t82 -33.5t35 -82t-35 -82t-82 -33.5t-82 33.5t-35 81.5zM694 1287q0 48 35 82t82 34t82 -34t35 -82t-35 -82t-82 -34t-82 34t-35 82zM987 116q0 48 35 81.5t82 33.5t82 -33.5t35 -81.5t-35 -82t-82 -34t-82 34t-35 82zM987 701q0 48 35 82t82 34t82 -33.5t35 -82t-35 -82 t-82 -33.5t-82 33.5t-35 81.5zM987 1287q0 48 35 82t82 34t82 -34t35 -82t-35 -82t-82 -34t-82 34t-35 82zM1280 116q0 48 35 81.5t82 33.5t81.5 -33.5t34.5 -81.5t-34.5 -82t-81.5 -34t-82 34t-35 82zM1280 701q0 48 35 82t82 34t81.5 -33.5t34.5 -82t-34.5 -82 t-81.5 -33.5t-82 33.5t-35 81.5zM1280 994q0 48 35 82t82 34t81.5 -34t34.5 -82t-34.5 -81.5t-81.5 -33.5t-82 33.5t-35 81.5z" />
<glyph unicode="&#xab;" d="M109 701q0 48 34.5 82t81.5 34t82 -33.5t35 -82t-35 -82t-82 -33.5t-81.5 33.5t-34.5 81.5zM401 409q0 48 35 81.5t82 33.5t82 -33.5t35 -81.5t-35 -82t-82 -34t-82 34t-35 82zM401 994q0 48 35 82t82 34t82 -34t35 -82t-35 -81.5t-82 -33.5t-82 33.5t-35 81.5zM694 116 q0 48 35 81.5t82 33.5t82 -33.5t35 -81.5t-35 -82t-82 -34t-82 34t-35 82zM694 701q0 48 35 82t82 34t82 -33.5t35 -82t-35 -82t-82 -33.5t-82 33.5t-35 81.5zM694 1287q0 48 35 82t82 34t82 -34t35 -82t-35 -82t-82 -34t-82 34t-35 82zM987 409q0 48 35 81.5t82 33.5 t82 -33.5t35 -81.5t-35 -82t-82 -34t-82 34t-35 82zM987 994q0 48 35 82t82 34t82 -34t35 -82t-35 -81.5t-82 -33.5t-82 33.5t-35 81.5zM1280 116q0 48 35 81.5t82 33.5t81.5 -33.5t34.5 -81.5t-34.5 -82t-81.5 -34t-82 34t-35 82zM1280 1287q0 48 35 82t82 34t81.5 -34 t34.5 -82t-34.5 -82t-81.5 -34t-82 34t-35 82z" />
<glyph unicode="&#xac;" horiz-adv-x="1331" d="M111 409q0 48 33.5 81.5t81.5 33.5t82 -33.5t34 -81.5t-34 -82t-82 -34t-81.5 34t-33.5 82zM403 409q0 48 34 81.5t82 33.5t82 -33.5t34 -81.5t-34 -82t-82 -34t-82 34t-34 82zM696 409q0 48 34 81.5t82 33.5t82 -33.5t34 -81.5t-34 -82t-82 -34t-82 34t-34 82zM989 116 q0 48 34 81.5t82 33.5t82 -33.5t34 -81.5t-34 -82t-82 -34t-82 34t-34 82zM989 409q0 48 34 81.5t82 33.5t82 -33.5t34 -81.5t-34 -82t-82 -34t-82 34t-34 82z" />
<glyph unicode="&#xad;" horiz-adv-x="1036" d="M109 701q0 48 34.5 82t81.5 34t82 -33.5t35 -82t-35 -82t-82 -33.5t-81.5 33.5t-34.5 81.5zM401 701q0 48 35 82t82 34t82 -33.5t35 -82t-35 -82t-82 -33.5t-82 33.5t-35 81.5zM694 701q0 48 35 82t82 34t82 -33.5t35 -82t-35 -82t-82 -33.5t-82 33.5t-35 81.5z" />
<glyph unicode="&#xae;" d="M109 409q0 48 34.5 81.5t81.5 33.5t82 -33.5t35 -81.5t-35 -82t-82 -34t-81.5 34t-34.5 82zM109 701q0 48 34.5 82t81.5 34t82 -33.5t35 -82t-35 -82t-82 -33.5t-81.5 33.5t-34.5 81.5zM109 994q0 48 34.5 82t81.5 34t82 -34t35 -82t-35 -81.5t-82 -33.5t-81.5 33.5 t-34.5 81.5zM401 116q0 48 35 81.5t82 33.5t82 -33.5t35 -81.5t-35 -82t-82 -34t-82 34t-35 82zM401 1287q0 48 35 82t82 34t82 -34t35 -82t-35 -82t-82 -34t-82 34t-35 82zM694 116q0 48 35 81.5t82 33.5t82 -33.5t35 -81.5t-35 -82t-82 -34t-82 34t-35 82zM694 701 q0 48 35 82t82 34t82 -33.5t35 -82t-35 -82t-82 -33.5t-82 33.5t-35 81.5zM694 1287q0 48 35 82t82 34t82 -34t35 -82t-35 -82t-82 -34t-82 34t-35 82zM987 116q0 48 35 81.5t82 33.5t82 -33.5t35 -81.5t-35 -82t-82 -34t-82 34t-35 82zM987 1287q0 48 35 82t82 34t82 -34 t35 -82t-35 -82t-82 -34t-82 34t-35 82zM1280 409q0 48 35 81.5t82 33.5t81.5 -33.5t34.5 -81.5t-34.5 -82t-81.5 -34t-82 34t-35 82zM1280 701q0 48 35 82t82 34t81.5 -33.5t34.5 -82t-34.5 -82t-81.5 -33.5t-82 33.5t-35 81.5zM1280 994q0 48 35 82t82 34t81.5 -34 t34.5 -82t-34.5 -81.5t-81.5 -33.5t-82 33.5t-35 81.5z" />
<glyph unicode="&#xaf;" d="M109 1287q0 48 34.5 82t81.5 34t82 -34t35 -82t-35 -82t-82 -34t-81.5 34t-34.5 82zM401 1287q0 48 35 82t82 34t82 -34t35 -82t-35 -82t-82 -34t-82 34t-35 82zM694 1287q0 48 35 82t82 34t82 -34t35 -82t-35 -82t-82 -34t-82 34t-35 82zM987 1287q0 48 35 82t82 34 t82 -34t35 -82t-35 -82t-82 -34t-82 34t-35 82zM1280 1287q0 48 35 82t82 34t81.5 -34t34.5 -82t-34.5 -82t-81.5 -34t-82 34t-35 82z" />
<glyph unicode="&#xb1;" horiz-adv-x="1036" d="M109 116q0 48 34.5 81.5t81.5 33.5t82 -33.5t35 -81.5t-35 -82t-82 -34t-81.5 34t-34.5 82zM109 994q0 48 34.5 82t81.5 34t82 -34t35 -82t-35 -81.5t-82 -33.5t-81.5 33.5t-34.5 81.5zM401 116q0 48 35 81.5t82 33.5t82 -33.5t35 -81.5t-35 -82t-82 -34t-82 34t-35 82z M401 701q0 48 35 82t82 34t82 -33.5t35 -82t-35 -82t-82 -33.5t-82 33.5t-35 81.5zM401 994q0 48 35 82t82 34t82 -34t35 -82t-35 -81.5t-82 -33.5t-82 33.5t-35 81.5zM401 1287q0 48 35 82t82 34t82 -34t35 -82t-35 -82t-82 -34t-82 34t-35 82zM694 116q0 48 35 81.5 t82 33.5t82 -33.5t35 -81.5t-35 -82t-82 -34t-82 34t-35 82zM694 994q0 48 35 82t82 34t82 -34t35 -82t-35 -81.5t-82 -33.5t-82 33.5t-35 81.5z" />
<glyph unicode="&#xb6;" d="M109 701q0 48 34.5 82t81.5 34t82 -33.5t35 -82t-35 -82t-82 -33.5t-81.5 33.5t-34.5 81.5zM109 994q0 48 34.5 82t81.5 34t82 -34t35 -82t-35 -81.5t-82 -33.5t-81.5 33.5t-34.5 81.5zM401 116q0 48 35 81.5t82 33.5t82 -33.5t35 -81.5t-35 -82t-82 -34t-82 34t-35 82z M401 409q0 48 35 81.5t82 33.5t82 -33.5t35 -81.5t-35 -82t-82 -34t-82 34t-35 82zM401 701q0 48 35 82t82 34t82 -33.5t35 -82t-35 -82t-82 -33.5t-82 33.5t-35 81.5zM401 994q0 48 35 82t82 34t82 -34t35 -82t-35 -81.5t-82 -33.5t-82 33.5t-35 81.5zM401 1287q0 48 35 82 t82 34t82 -34t35 -82t-35 -82t-82 -34t-82 34t-35 82zM694 1287q0 48 35 82t82 34t82 -34t35 -82t-35 -82t-82 -34t-82 34t-35 82zM987 116q0 48 35 81.5t82 33.5t82 -33.5t35 -81.5t-35 -82t-82 -34t-82 34t-35 82zM987 409q0 48 35 81.5t82 33.5t82 -33.5t35 -81.5 t-35 -82t-82 -34t-82 34t-35 82zM987 701q0 48 35 82t82 34t82 -33.5t35 -82t-35 -82t-82 -33.5t-82 33.5t-35 81.5zM987 994q0 48 35 82t82 34t82 -34t35 -82t-35 -81.5t-82 -33.5t-82 33.5t-35 81.5zM987 1287q0 48 35 82t82 34t82 -34t35 -82t-35 -82t-82 -34t-82 34 t-35 82zM1280 1287q0 48 35 82t82 34t81.5 -34t34.5 -82t-34.5 -82t-81.5 -34t-82 34t-35 82z" />
<glyph unicode="&#xbb;" d="M109 116q0 -48 34.5 -82t81.5 -34t82 34t35 82t-35 81.5t-82 33.5t-81.5 -33.5t-34.5 -81.5zM109 1287q0 -48 34.5 -82t81.5 -34t82 34t35 82t-35 82t-82 34t-81.5 -34t-34.5 -82zM401 409q0 -48 35 -82t82 -34t82 34t35 82t-35 81.5t-82 33.5t-82 -33.5t-35 -81.5z M401 994q0 -48 35 -81.5t82 -33.5t82 33.5t35 81.5t-35 82t-82 34t-82 -34t-35 -82zM694 116q0 -48 35 -82t82 -34t82 34t35 82t-35 81.5t-82 33.5t-82 -33.5t-35 -81.5zM694 701.5q0 -48.5 35 -82t82 -33.5t82 33.5t35 81.5t-35 82t-82 34t-82 -33.5t-35 -82zM694 1287 q0 -48 35 -82t82 -34t82 34t35 82t-35 82t-82 34t-82 -34t-35 -82zM987 409q0 -48 35 -82t82 -34t82 34t35 82t-35 81.5t-82 33.5t-82 -33.5t-35 -81.5zM987 994q0 -48 35 -81.5t82 -33.5t82 33.5t35 81.5t-35 82t-82 34t-82 -34t-35 -82zM1280 701.5q0 -48.5 35 -82 t82 -33.5t81.5 33.5t34.5 81.5t-34.5 82t-81.5 34t-82 -33.5t-35 -82z" />
<glyph unicode="&#xbf;" d="M109 408.5q0 48.5 34.5 82t81.5 33.5t82 -33.5t35 -81.5t-35 -82t-82 -34t-81.5 33.5t-34.5 82zM401 116q0 48 35 81.5t82 33.5t82 -33.5t35 -81.5t-35 -82t-82 -34t-82 34t-35 82zM401 701q0 48 35 82t82 34t82 -34t35 -82t-35 -81.5t-82 -33.5t-82 33.5t-35 81.5z M694 116q0 48 35 81.5t82 33.5t82 -33.5t35 -81.5t-35 -82t-82 -34t-82 34t-35 82zM694 701q0 48 35 82t82 34t82 -34t35 -82t-35 -81.5t-82 -33.5t-82 33.5t-35 81.5zM694 1287q0 48 35 82t82 34t82 -34t35 -82t-35 -82t-82 -34t-82 34t-35 82zM987 116q0 48 35 81.5 t82 33.5t82 -33.5t35 -81.5t-35 -82t-82 -34t-82 34t-35 82zM1280 408.5q0 48.5 35 82t82 33.5t81.5 -33.5t34.5 -81.5t-34.5 -82t-81.5 -34t-82 33.5t-35 82z" />
<glyph unicode="&#xc0;" d="M109 409q0 48 34.5 81.5t81.5 33.5t82 -33.5t35 -81.5t-35 -82t-82 -34t-81.5 34t-34.5 82zM401 116q0 48 35 81.5t82 33.5t82 -33.5t35 -81.5t-35 -82t-82 -34t-82 34t-35 82zM401 701q0 48 35 82t82 34t82 -33.5t35 -82t-35 -82t-82 -33.5t-82 33.5t-35 81.5zM401 1287 q0 48 35 82t82 34t82 -34t35 -82t-35 -82t-82 -34t-82 34t-35 82zM694 116q0 48 35 81.5t82 33.5t82 -33.5t35 -81.5t-35 -82t-82 -34t-82 34t-35 82zM694 701q0 48 35 82t82 34t82 -33.5t35 -82t-35 -82t-82 -33.5t-82 33.5t-35 81.5zM694 1287q0 48 35 82t82 34t82 -34 t35 -82t-35 -82t-82 -34t-82 34t-35 82zM987 116q0 48 35 81.5t82 33.5t82 -33.5t35 -81.5t-35 -82t-82 -34t-82 34t-35 82zM987 701q0 48 35 82t82 34t82 -33.5t35 -82t-35 -82t-82 -33.5t-82 33.5t-35 81.5zM1280 116q0 48 35 81.5t82 33.5t81.5 -33.5t34.5 -81.5 t-34.5 -82t-81.5 -34t-82 34t-35 82zM1280 409q0 48 35 81.5t82 33.5t81.5 -33.5t34.5 -81.5t-34.5 -82t-81.5 -34t-82 34t-35 82z" />
<glyph unicode="&#xc1;" d="M109 409q0 48 34.5 81.5t81.5 33.5t82 -33.5t35 -81.5t-35 -82t-82 -34t-81.5 34t-34.5 82zM401 116q0 48 35 81.5t82 33.5t82 -33.5t35 -81.5t-35 -82t-82 -34t-82 34t-35 82zM401 701q0 48 35 82t82 34t82 -33.5t35 -82t-35 -82t-82 -33.5t-82 33.5t-35 81.5zM694 116 q0 48 35 81.5t82 33.5t82 -33.5t35 -81.5t-35 -82t-82 -34t-82 34t-35 82zM694 701q0 48 35 82t82 34t82 -33.5t35 -82t-35 -82t-82 -33.5t-82 33.5t-35 81.5zM694 1287q0 48 35 82t82 34t82 -34t35 -82t-35 -82t-82 -34t-82 34t-35 82zM987 116q0 48 35 81.5t82 33.5 t82 -33.5t35 -81.5t-35 -82t-82 -34t-82 34t-35 82zM987 701q0 48 35 82t82 34t82 -33.5t35 -82t-35 -82t-82 -33.5t-82 33.5t-35 81.5zM987 1287q0 48 35 82t82 34t82 -34t35 -82t-35 -82t-82 -34t-82 34t-35 82zM1280 116q0 48 35 81.5t82 33.5t81.5 -33.5t34.5 -81.5 t-34.5 -82t-81.5 -34t-82 34t-35 82zM1280 409q0 48 35 81.5t82 33.5t81.5 -33.5t34.5 -81.5t-34.5 -82t-81.5 -34t-82 34t-35 82z" />
<glyph unicode="&#xc2;" d="M109 409q0 48 34.5 81.5t81.5 33.5t82 -33.5t35 -81.5t-35 -82t-82 -34t-81.5 34t-34.5 82zM401 116q0 48 35 81.5t82 33.5t82 -33.5t35 -81.5t-35 -82t-82 -34t-82 34t-35 82zM401 701q0 48 35 82t82 34t82 -33.5t35 -82t-35 -82t-82 -33.5t-82 33.5t-35 81.5zM401 994 q0 48 35 82t82 34t82 -34t35 -82t-35 -81.5t-82 -33.5t-82 33.5t-35 81.5zM694 116q0 48 35 81.5t82 33.5t82 -33.5t35 -81.5t-35 -82t-82 -34t-82 34t-35 82zM694 701q0 48 35 82t82 34t82 -33.5t35 -82t-35 -82t-82 -33.5t-82 33.5t-35 81.5zM694 1287q0 48 35 82t82 34 t82 -34t35 -82t-35 -82t-82 -34t-82 34t-35 82zM987 116q0 48 35 81.5t82 33.5t82 -33.5t35 -81.5t-35 -82t-82 -34t-82 34t-35 82zM987 701q0 48 35 82t82 34t82 -33.5t35 -82t-35 -82t-82 -33.5t-82 33.5t-35 81.5zM987 994q0 48 35 82t82 34t82 -34t35 -82t-35 -81.5 t-82 -33.5t-82 33.5t-35 81.5zM1280 116q0 48 35 81.5t82 33.5t81.5 -33.5t34.5 -81.5t-34.5 -82t-81.5 -34t-82 34t-35 82zM1280 409q0 48 35 81.5t82 33.5t81.5 -33.5t34.5 -81.5t-34.5 -82t-81.5 -34t-82 34t-35 82z" />
<glyph unicode="&#xc3;" d="M109 409q0 48 34.5 81.5t81.5 33.5t82 -33.5t35 -81.5t-35 -82t-82 -34t-81.5 34t-34.5 82zM401 116q0 48 35 81.5t82 33.5t82 -33.5t35 -81.5t-35 -82t-82 -34t-82 34t-35 82zM401 701q0 48 35 82t82 34t82 -33.5t35 -82t-35 -82t-82 -33.5t-82 33.5t-35 81.5zM401 994 q0 48 35 82t82 34t82 -34t35 -82t-35 -81.5t-82 -33.5t-82 33.5t-35 81.5zM694 116q0 48 35 81.5t82 33.5t82 -33.5t35 -81.5t-35 -82t-82 -34t-82 34t-35 82zM694 701q0 48 35 82t82 34t82 -33.5t35 -82t-35 -82t-82 -33.5t-82 33.5t-35 81.5zM694 1287q0 48 35 82t82 34 t82 -34t35 -82t-35 -82t-82 -34t-82 34t-35 82zM987 116q0 48 35 81.5t82 33.5t82 -33.5t35 -81.5t-35 -82t-82 -34t-82 34t-35 82zM987 701q0 48 35 82t82 34t82 -33.5t35 -82t-35 -82t-82 -33.5t-82 33.5t-35 81.5zM987 994q0 48 35 82t82 34t82 -34t35 -82t-35 -81.5 t-82 -33.5t-82 33.5t-35 81.5zM1280 116q0 48 35 81.5t82 33.5t81.5 -33.5t34.5 -81.5t-34.5 -82t-81.5 -34t-82 34t-35 82zM1280 409q0 48 35 81.5t82 33.5t81.5 -33.5t34.5 -81.5t-34.5 -82t-81.5 -34t-82 34t-35 82zM1280 1287q0 48 35 82t82 34t81.5 -34t34.5 -82 t-34.5 -82t-81.5 -34t-82 34t-35 82z" />
<glyph unicode="&#xc4;" d="M109 409q0 48 34.5 81.5t81.5 33.5t82 -33.5t35 -81.5t-35 -82t-82 -34t-81.5 34t-34.5 82zM401 116q0 48 35 81.5t82 33.5t82 -33.5t35 -81.5t-35 -82t-82 -34t-82 34t-35 82zM401 701q0 48 35 82t82 34t82 -33.5t35 -82t-35 -82t-82 -33.5t-82 33.5t-35 81.5zM401 1287 q0 48 35 82t82 34t82 -34t35 -82t-35 -82t-82 -34t-82 34t-35 82zM694 116q0 48 35 81.5t82 33.5t82 -33.5t35 -81.5t-35 -82t-82 -34t-82 34t-35 82zM694 701q0 48 35 82t82 34t82 -33.5t35 -82t-35 -82t-82 -33.5t-82 33.5t-35 81.5zM987 116q0 48 35 81.5t82 33.5 t82 -33.5t35 -81.5t-35 -82t-82 -34t-82 34t-35 82zM987 701q0 48 35 82t82 34t82 -33.5t35 -82t-35 -82t-82 -33.5t-82 33.5t-35 81.5zM987 1287q0 48 35 82t82 34t82 -34t35 -82t-35 -82t-82 -34t-82 34t-35 82zM1280 116q0 48 35 81.5t82 33.5t81.5 -33.5t34.5 -81.5 t-34.5 -82t-81.5 -34t-82 34t-35 82zM1280 409q0 48 35 81.5t82 33.5t81.5 -33.5t34.5 -81.5t-34.5 -82t-81.5 -34t-82 34t-35 82z" />
<glyph unicode="&#xc5;" d="M109 409q0 48 34.5 81.5t81.5 33.5t82 -33.5t35 -81.5t-35 -82t-82 -34t-81.5 34t-34.5 82zM401 116q0 48 35 81.5t82 33.5t82 -33.5t35 -81.5t-35 -82t-82 -34t-82 34t-35 82zM401 701q0 48 35 82t82 34t82 -33.5t35 -82t-35 -82t-82 -33.5t-82 33.5t-35 81.5zM694 116 q0 48 35 81.5t82 33.5t82 -33.5t35 -81.5t-35 -82t-82 -34t-82 34t-35 82zM694 701q0 48 35 82t82 34t82 -33.5t35 -82t-35 -82t-82 -33.5t-82 33.5t-35 81.5zM694 1287q0 48 35 82t82 34t82 -34t35 -82t-35 -82t-82 -34t-82 34t-35 82zM987 116q0 48 35 81.5t82 33.5 t82 -33.5t35 -81.5t-35 -82t-82 -34t-82 34t-35 82zM987 701q0 48 35 82t82 34t82 -33.5t35 -82t-35 -82t-82 -33.5t-82 33.5t-35 81.5zM1280 116q0 48 35 81.5t82 33.5t81.5 -33.5t34.5 -81.5t-34.5 -82t-81.5 -34t-82 34t-35 82zM1280 409q0 48 35 81.5t82 33.5 t81.5 -33.5t34.5 -81.5t-34.5 -82t-81.5 -34t-82 34t-35 82z" />
<glyph unicode="&#xc6;" d="M109 116q0 48 34.5 81.5t81.5 33.5t82 -33.5t35 -81.5t-35 -82t-82 -34t-81.5 34t-34.5 82zM109 409q0 48 34.5 81.5t81.5 33.5t82 -33.5t35 -81.5t-35 -82t-82 -34t-81.5 34t-34.5 82zM109 701q0 48 34.5 82t81.5 34t82 -33.5t35 -82t-35 -82t-82 -33.5t-81.5 33.5 t-34.5 81.5zM109 994q0 48 34.5 82t81.5 34t82 -34t35 -82t-35 -81.5t-82 -33.5t-81.5 33.5t-34.5 81.5zM401 701q0 48 35 82t82 34t82 -33.5t35 -82t-35 -82t-82 -33.5t-82 33.5t-35 81.5zM401 1287q0 48 35 82t82 34t82 -34t35 -82t-35 -82t-82 -34t-82 34t-35 82z M694 116q0 48 35 81.5t82 33.5t82 -33.5t35 -81.5t-35 -82t-82 -34t-82 34t-35 82zM694 409q0 48 35 81.5t82 33.5t82 -33.5t35 -81.5t-35 -82t-82 -34t-82 34t-35 82zM694 701q0 48 35 82t82 34t82 -33.5t35 -82t-35 -82t-82 -33.5t-82 33.5t-35 81.5zM694 994q0 48 35 82 t82 34t82 -34t35 -82t-35 -81.5t-82 -33.5t-82 33.5t-35 81.5zM987 116q0 48 35 81.5t82 33.5t82 -33.5t35 -81.5t-35 -82t-82 -34t-82 34t-35 82zM987 701q0 48 35 82t82 34t82 -33.5t35 -82t-35 -82t-82 -33.5t-82 33.5t-35 81.5zM987 1287q0 48 35 82t82 34t82 -34 t35 -82t-35 -82t-82 -34t-82 34t-35 82zM1280 116q0 48 35 81.5t82 33.5t81.5 -33.5t34.5 -81.5t-34.5 -82t-81.5 -34t-82 34t-35 82zM1280 701q0 48 35 82t82 34t81.5 -33.5t34.5 -82t-34.5 -82t-81.5 -33.5t-82 33.5t-35 81.5zM1280 1287q0 48 35 82t82 34t81.5 -34 t34.5 -82t-34.5 -82t-81.5 -34t-82 34t-35 82z" />
<glyph unicode="&#xc7;" d="M109 409q0 48 34.5 81.5t81.5 33.5t82 -33.5t35 -81.5t-35 -82t-82 -34t-81.5 34t-34.5 82zM109 701q0 48 34.5 82t81.5 34t82 -33.5t35 -82t-35 -82t-82 -33.5t-81.5 33.5t-34.5 81.5zM109 994q0 48 34.5 82t81.5 34t82 -34t35 -82t-35 -81.5t-82 -33.5t-81.5 33.5 t-34.5 81.5zM401 116q0 48 35 81.5t82 33.5t82 -33.5t35 -81.5t-35 -82t-82 -34t-82 34t-35 82zM401 1287q0 48 35 82t82 34t82 -34t35 -82t-35 -82t-82 -34t-82 34t-35 82zM694 116q0 48 35 81.5t82 33.5t82 -33.5t35 -81.5t-35 -82t-82 -34t-82 34t-35 82zM694 409 q0 48 35 81.5t82 33.5t82 -33.5t35 -81.5t-35 -82t-82 -34t-82 34t-35 82zM694 1287q0 48 35 82t82 34t82 -34t35 -82t-35 -82t-82 -34t-82 34t-35 82zM987 116q0 48 35 81.5t82 33.5t82 -33.5t35 -81.5t-35 -82t-82 -34t-82 34t-35 82zM987 1287q0 48 35 82t82 34t82 -34 t35 -82t-35 -82t-82 -34t-82 34t-35 82zM1280 116q0 48 35 81.5t82 33.5t81.5 -33.5t34.5 -81.5t-34.5 -82t-81.5 -34t-82 34t-35 82zM1280 1287q0 48 35 82t82 34t81.5 -34t34.5 -82t-34.5 -82t-81.5 -34t-82 34t-35 82z" />
<glyph unicode="&#xc8;" d="M109 116q0 48 34.5 81.5t81.5 33.5t82 -33.5t35 -81.5t-35 -82t-82 -34t-81.5 34t-34.5 82zM109 409q0 48 34.5 81.5t81.5 33.5t82 -33.5t35 -81.5t-35 -82t-82 -34t-81.5 34t-34.5 82zM109 701q0 48 34.5 82t81.5 34t82 -33.5t35 -82t-35 -82t-82 -33.5t-81.5 33.5 t-34.5 81.5zM401 116q0 48 35 81.5t82 33.5t82 -33.5t35 -81.5t-35 -82t-82 -34t-82 34t-35 82zM401 409q0 48 35 81.5t82 33.5t82 -33.5t35 -81.5t-35 -82t-82 -34t-82 34t-35 82zM401 701q0 48 35 82t82 34t82 -33.5t35 -82t-35 -82t-82 -33.5t-82 33.5t-35 81.5z M401 1287q0 48 35 82t82 34t82 -34t35 -82t-35 -82t-82 -34t-82 34t-35 82zM694 116q0 48 35 81.5t82 33.5t82 -33.5t35 -81.5t-35 -82t-82 -34t-82 34t-35 82zM694 409q0 48 35 81.5t82 33.5t82 -33.5t35 -81.5t-35 -82t-82 -34t-82 34t-35 82zM694 701q0 48 35 82t82 34 t82 -33.5t35 -82t-35 -82t-82 -33.5t-82 33.5t-35 81.5zM694 1287q0 48 35 82t82 34t82 -34t35 -82t-35 -82t-82 -34t-82 34t-35 82zM987 116q0 48 35 81.5t82 33.5t82 -33.5t35 -81.5t-35 -82t-82 -34t-82 34t-35 82zM987 701q0 48 35 82t82 34t82 -33.5t35 -82t-35 -82 t-82 -33.5t-82 33.5t-35 81.5zM1280 116q0 48 35 81.5t82 33.5t81.5 -33.5t34.5 -81.5t-34.5 -82t-81.5 -34t-82 34t-35 82zM1280 701q0 48 35 82t82 34t81.5 -33.5t34.5 -82t-34.5 -82t-81.5 -33.5t-82 33.5t-35 81.5z" />
<glyph unicode="&#xc9;" d="M109 116q0 48 34.5 81.5t81.5 33.5t82 -33.5t35 -81.5t-35 -82t-82 -34t-81.5 34t-34.5 82zM109 409q0 48 34.5 81.5t81.5 33.5t82 -33.5t35 -81.5t-35 -82t-82 -34t-81.5 34t-34.5 82zM109 701q0 48 34.5 82t81.5 34t82 -33.5t35 -82t-35 -82t-82 -33.5t-81.5 33.5 t-34.5 81.5zM401 116q0 48 35 81.5t82 33.5t82 -33.5t35 -81.5t-35 -82t-82 -34t-82 34t-35 82zM401 409q0 48 35 81.5t82 33.5t82 -33.5t35 -81.5t-35 -82t-82 -34t-82 34t-35 82zM401 701q0 48 35 82t82 34t82 -33.5t35 -82t-35 -82t-82 -33.5t-82 33.5t-35 81.5zM694 116 q0 48 35 81.5t82 33.5t82 -33.5t35 -81.5t-35 -82t-82 -34t-82 34t-35 82zM694 409q0 48 35 81.5t82 33.5t82 -33.5t35 -81.5t-35 -82t-82 -34t-82 34t-35 82zM694 701q0 48 35 82t82 34t82 -33.5t35 -82t-35 -82t-82 -33.5t-82 33.5t-35 81.5zM694 1287q0 48 35 82t82 34 t82 -34t35 -82t-35 -82t-82 -34t-82 34t-35 82zM987 116q0 48 35 81.5t82 33.5t82 -33.5t35 -81.5t-35 -82t-82 -34t-82 34t-35 82zM987 701q0 48 35 82t82 34t82 -33.5t35 -82t-35 -82t-82 -33.5t-82 33.5t-35 81.5zM987 1287q0 48 35 82t82 34t82 -34t35 -82t-35 -82 t-82 -34t-82 34t-35 82zM1280 116q0 48 35 81.5t82 33.5t81.5 -33.5t34.5 -81.5t-34.5 -82t-81.5 -34t-82 34t-35 82zM1280 701q0 48 35 82t82 34t81.5 -33.5t34.5 -82t-34.5 -82t-81.5 -33.5t-82 33.5t-35 81.5z" />
<glyph unicode="&#xca;" d="M109 116q0 48 34.5 81.5t81.5 33.5t82 -33.5t35 -81.5t-35 -82t-82 -34t-81.5 34t-34.5 82zM109 409q0 48 34.5 81.5t81.5 33.5t82 -33.5t35 -81.5t-35 -82t-82 -34t-81.5 34t-34.5 82zM109 701q0 48 34.5 82t81.5 34t82 -33.5t35 -82t-35 -82t-82 -33.5t-81.5 33.5 t-34.5 81.5zM401 116q0 48 35 81.5t82 33.5t82 -33.5t35 -81.5t-35 -82t-82 -34t-82 34t-35 82zM401 409q0 48 35 81.5t82 33.5t82 -33.5t35 -81.5t-35 -82t-82 -34t-82 34t-35 82zM401 701q0 48 35 82t82 34t82 -33.5t35 -82t-35 -82t-82 -33.5t-82 33.5t-35 81.5zM401 994 q0 48 35 82t82 34t82 -34t35 -82t-35 -81.5t-82 -33.5t-82 33.5t-35 81.5zM694 116q0 48 35 81.5t82 33.5t82 -33.5t35 -81.5t-35 -82t-82 -34t-82 34t-35 82zM694 409q0 48 35 81.5t82 33.5t82 -33.5t35 -81.5t-35 -82t-82 -34t-82 34t-35 82zM694 701q0 48 35 82t82 34 t82 -33.5t35 -82t-35 -82t-82 -33.5t-82 33.5t-35 81.5zM694 1287q0 48 35 82t82 34t82 -34t35 -82t-35 -82t-82 -34t-82 34t-35 82zM987 116q0 48 35 81.5t82 33.5t82 -33.5t35 -81.5t-35 -82t-82 -34t-82 34t-35 82zM987 701q0 48 35 82t82 34t82 -33.5t35 -82t-35 -82 t-82 -33.5t-82 33.5t-35 81.5zM987 994q0 48 35 82t82 34t82 -34t35 -82t-35 -81.5t-82 -33.5t-82 33.5t-35 81.5zM1280 116q0 48 35 81.5t82 33.5t81.5 -33.5t34.5 -81.5t-34.5 -82t-81.5 -34t-82 34t-35 82zM1280 701q0 48 35 82t82 34t81.5 -33.5t34.5 -82t-34.5 -82 t-81.5 -33.5t-82 33.5t-35 81.5z" />
<glyph unicode="&#xcb;" d="M109 116q0 48 34.5 81.5t81.5 33.5t82 -33.5t35 -81.5t-35 -82t-82 -34t-81.5 34t-34.5 82zM109 409q0 48 34.5 81.5t81.5 33.5t82 -33.5t35 -81.5t-35 -82t-82 -34t-81.5 34t-34.5 82zM109 701q0 48 34.5 82t81.5 34t82 -33.5t35 -82t-35 -82t-82 -33.5t-81.5 33.5 t-34.5 81.5zM401 116q0 48 35 81.5t82 33.5t82 -33.5t35 -81.5t-35 -82t-82 -34t-82 34t-35 82zM401 409q0 48 35 81.5t82 33.5t82 -33.5t35 -81.5t-35 -82t-82 -34t-82 34t-35 82zM401 701q0 48 35 82t82 34t82 -33.5t35 -82t-35 -82t-82 -33.5t-82 33.5t-35 81.5z M401 1287q0 48 35 82t82 34t82 -34t35 -82t-35 -82t-82 -34t-82 34t-35 82zM694 116q0 48 35 81.5t82 33.5t82 -33.5t35 -81.5t-35 -82t-82 -34t-82 34t-35 82zM694 409q0 48 35 81.5t82 33.5t82 -33.5t35 -81.5t-35 -82t-82 -34t-82 34t-35 82zM694 701q0 48 35 82t82 34 t82 -33.5t35 -82t-35 -82t-82 -33.5t-82 33.5t-35 81.5zM987 116q0 48 35 81.5t82 33.5t82 -33.5t35 -81.5t-35 -82t-82 -34t-82 34t-35 82zM987 701q0 48 35 82t82 34t82 -33.5t35 -82t-35 -82t-82 -33.5t-82 33.5t-35 81.5zM987 1287q0 48 35 82t82 34t82 -34t35 -82 t-35 -82t-82 -34t-82 34t-35 82zM1280 116q0 48 35 81.5t82 33.5t81.5 -33.5t34.5 -81.5t-34.5 -82t-81.5 -34t-82 34t-35 82zM1280 701q0 48 35 82t82 34t81.5 -33.5t34.5 -82t-34.5 -82t-81.5 -33.5t-82 33.5t-35 81.5z" />
<glyph unicode="&#xcc;" horiz-adv-x="741" d="M109 1287q0 48 33.5 82t81.5 34t82 -34t34 -82t-34 -82t-82 -34t-81.5 34t-33.5 82zM401 116q0 48 34 81.5t82 33.5t82 -33.5t34 -81.5t-34 -82t-82 -34t-82 34t-34 82zM401 409q0 48 34 81.5t82 33.5t82 -33.5t34 -81.5t-34 -82t-82 -34t-82 34t-34 82zM401 994 q0 48 34 82t82 34t82 -34t34 -82t-34 -81.5t-82 -33.5t-82 33.5t-34 81.5z" />
<glyph unicode="&#xcd;" horiz-adv-x="741" d="M109 116q0 48 33.5 81.5t81.5 33.5t82 -33.5t34 -81.5t-34 -82t-82 -34t-81.5 34t-33.5 82zM109 409q0 48 33.5 81.5t81.5 33.5t82 -33.5t34 -81.5t-34 -82t-82 -34t-81.5 34t-33.5 82zM109 994q0 48 33.5 82t81.5 34t82 -34t34 -82t-34 -81.5t-82 -33.5t-81.5 33.5 t-33.5 81.5zM401 1287q0 48 34 82t82 34t82 -34t34 -82t-34 -82t-82 -34t-82 34t-34 82z" />
<glyph unicode="&#xce;" horiz-adv-x="1036" d="M109 994q0 48 34.5 82t81.5 34t82 -34t35 -82t-35 -81.5t-82 -33.5t-81.5 33.5t-34.5 81.5zM401 116q0 48 35 81.5t82 33.5t82 -33.5t35 -81.5t-35 -82t-82 -34t-82 34t-35 82zM401 409q0 48 35 81.5t82 33.5t82 -33.5t35 -81.5t-35 -82t-82 -34t-82 34t-35 82zM401 701 q0 48 35 82t82 34t82 -33.5t35 -82t-35 -82t-82 -33.5t-82 33.5t-35 81.5zM401 1287q0 48 35 82t82 34t82 -34t35 -82t-35 -82t-82 -34t-82 34t-35 82zM694 994q0 48 35 82t82 34t82 -34t35 -82t-35 -81.5t-82 -33.5t-82 33.5t-35 81.5z" />
<glyph unicode="&#xcf;" horiz-adv-x="1036" d="M109 1287q0 48 34.5 82t81.5 34t82 -34t35 -82t-35 -82t-82 -34t-81.5 34t-34.5 82zM401 116q0 48 35 81.5t82 33.5t82 -33.5t35 -81.5t-35 -82t-82 -34t-82 34t-35 82zM401 409q0 48 35 81.5t82 33.5t82 -33.5t35 -81.5t-35 -82t-82 -34t-82 34t-35 82zM401 701 q0 48 35 82t82 34t82 -33.5t35 -82t-35 -82t-82 -33.5t-82 33.5t-35 81.5zM694 1287q0 48 35 82t82 34t82 -34t35 -82t-35 -82t-82 -34t-82 34t-35 82z" />
<glyph unicode="&#xd0;" d="M109 701q0 48 34.5 82t81.5 34t82 -33.5t35 -82t-35 -82t-82 -33.5t-81.5 33.5t-34.5 81.5zM401 116q0 48 35 81.5t82 33.5t82 -33.5t35 -81.5t-35 -82t-82 -34t-82 34t-35 82zM401 409q0 48 35 81.5t82 33.5t82 -33.5t35 -81.5t-35 -82t-82 -34t-82 34t-35 82zM401 701 q0 48 35 82t82 34t82 -33.5t35 -82t-35 -82t-82 -33.5t-82 33.5t-35 81.5zM401 994q0 48 35 82t82 34t82 -34t35 -82t-35 -81.5t-82 -33.5t-82 33.5t-35 81.5zM401 1287q0 48 35 82t82 34t82 -34t35 -82t-35 -82t-82 -34t-82 34t-35 82zM694 116q0 48 35 81.5t82 33.5 t82 -33.5t35 -81.5t-35 -82t-82 -34t-82 34t-35 82zM694 701q0 48 35 82t82 34t82 -33.5t35 -82t-35 -82t-82 -33.5t-82 33.5t-35 81.5zM694 1287q0 48 35 82t82 34t82 -34t35 -82t-35 -82t-82 -34t-82 34t-35 82zM987 116q0 48 35 81.5t82 33.5t82 -33.5t35 -81.5t-35 -82 t-82 -34t-82 34t-35 82zM987 1287q0 48 35 82t82 34t82 -34t35 -82t-35 -82t-82 -34t-82 34t-35 82zM1280 409q0 48 35 81.5t82 33.5t81.5 -33.5t34.5 -81.5t-34.5 -82t-81.5 -34t-82 34t-35 82zM1280 701q0 48 35 82t82 34t81.5 -33.5t34.5 -82t-34.5 -82t-81.5 -33.5 t-82 33.5t-35 81.5zM1280 994q0 48 35 82t82 34t81.5 -34t34.5 -82t-34.5 -81.5t-81.5 -33.5t-82 33.5t-35 81.5z" />
<glyph unicode="&#xd1;" d="M109 116q0 48 34.5 81.5t81.5 33.5t82 -33.5t35 -81.5t-35 -82t-82 -34t-81.5 34t-34.5 82zM109 409q0 48 34.5 81.5t81.5 33.5t82 -33.5t35 -81.5t-35 -82t-82 -34t-81.5 34t-34.5 82zM109 701q0 48 34.5 82t81.5 34t82 -33.5t35 -82t-35 -82t-82 -33.5t-81.5 33.5 t-34.5 81.5zM401 701q0 48 35 82t82 34t82 -33.5t35 -82t-35 -82t-82 -33.5t-82 33.5t-35 81.5zM401 994q0 48 35 82t82 34t82 -34t35 -82t-35 -81.5t-82 -33.5t-82 33.5t-35 81.5zM694 409q0 48 35 81.5t82 33.5t82 -33.5t35 -81.5t-35 -82t-82 -34t-82 34t-35 82z M694 1287q0 48 35 82t82 34t82 -34t35 -82t-35 -82t-82 -34t-82 34t-35 82zM987 116q0 48 35 81.5t82 33.5t82 -33.5t35 -81.5t-35 -82t-82 -34t-82 34t-35 82zM987 994q0 48 35 82t82 34t82 -34t35 -82t-35 -81.5t-82 -33.5t-82 33.5t-35 81.5zM1280 116q0 48 35 81.5 t82 33.5t81.5 -33.5t34.5 -81.5t-34.5 -82t-81.5 -34t-82 34t-35 82zM1280 409q0 48 35 81.5t82 33.5t81.5 -33.5t34.5 -81.5t-34.5 -82t-81.5 -34t-82 34t-35 82zM1280 701q0 48 35 82t82 34t81.5 -33.5t34.5 -82t-34.5 -82t-81.5 -33.5t-82 33.5t-35 81.5zM1280 1287 q0 48 35 82t82 34t81.5 -34t34.5 -82t-34.5 -82t-81.5 -34t-82 34t-35 82z" />
<glyph unicode="&#xd2;" d="M109 409q0 48 34.5 81.5t81.5 33.5t82 -33.5t35 -81.5t-35 -82t-82 -34t-81.5 34t-34.5 82zM401 116q0 48 35 81.5t82 33.5t82 -33.5t35 -81.5t-35 -82t-82 -34t-82 34t-35 82zM401 701q0 48 35 82t82 34t82 -33.5t35 -82t-35 -82t-82 -33.5t-82 33.5t-35 81.5zM401 1287 q0 48 35 82t82 34t82 -34t35 -82t-35 -82t-82 -34t-82 34t-35 82zM694 116q0 48 35 81.5t82 33.5t82 -33.5t35 -81.5t-35 -82t-82 -34t-82 34t-35 82zM694 701q0 48 35 82t82 34t82 -33.5t35 -82t-35 -82t-82 -33.5t-82 33.5t-35 81.5zM694 1287q0 48 35 82t82 34t82 -34 t35 -82t-35 -82t-82 -34t-82 34t-35 82zM987 116q0 48 35 81.5t82 33.5t82 -33.5t35 -81.5t-35 -82t-82 -34t-82 34t-35 82zM987 701q0 48 35 82t82 34t82 -33.5t35 -82t-35 -82t-82 -33.5t-82 33.5t-35 81.5zM1280 409q0 48 35 81.5t82 33.5t81.5 -33.5t34.5 -81.5 t-34.5 -82t-81.5 -34t-82 34t-35 82z" />
<glyph unicode="&#xd3;" d="M109 409q0 48 34.5 81.5t81.5 33.5t82 -33.5t35 -81.5t-35 -82t-82 -34t-81.5 34t-34.5 82zM401 116q0 48 35 81.5t82 33.5t82 -33.5t35 -81.5t-35 -82t-82 -34t-82 34t-35 82zM401 701q0 48 35 82t82 34t82 -33.5t35 -82t-35 -82t-82 -33.5t-82 33.5t-35 81.5zM694 116 q0 48 35 81.5t82 33.5t82 -33.5t35 -81.5t-35 -82t-82 -34t-82 34t-35 82zM694 701q0 48 35 82t82 34t82 -33.5t35 -82t-35 -82t-82 -33.5t-82 33.5t-35 81.5zM694 1287q0 48 35 82t82 34t82 -34t35 -82t-35 -82t-82 -34t-82 34t-35 82zM987 116q0 48 35 81.5t82 33.5 t82 -33.5t35 -81.5t-35 -82t-82 -34t-82 34t-35 82zM987 701q0 48 35 82t82 34t82 -33.5t35 -82t-35 -82t-82 -33.5t-82 33.5t-35 81.5zM987 1287q0 48 35 82t82 34t82 -34t35 -82t-35 -82t-82 -34t-82 34t-35 82zM1280 409q0 48 35 81.5t82 33.5t81.5 -33.5t34.5 -81.5 t-34.5 -82t-81.5 -34t-82 34t-35 82z" />
<glyph unicode="&#xd4;" d="M109 409q0 48 34.5 81.5t81.5 33.5t82 -33.5t35 -81.5t-35 -82t-82 -34t-81.5 34t-34.5 82zM401 116q0 48 35 81.5t82 33.5t82 -33.5t35 -81.5t-35 -82t-82 -34t-82 34t-35 82zM401 701q0 48 35 82t82 34t82 -33.5t35 -82t-35 -82t-82 -33.5t-82 33.5t-35 81.5zM401 994 q0 48 35 82t82 34t82 -34t35 -82t-35 -81.5t-82 -33.5t-82 33.5t-35 81.5zM694 116q0 48 35 81.5t82 33.5t82 -33.5t35 -81.5t-35 -82t-82 -34t-82 34t-35 82zM694 701q0 48 35 82t82 34t82 -33.5t35 -82t-35 -82t-82 -33.5t-82 33.5t-35 81.5zM694 1287q0 48 35 82t82 34 t82 -34t35 -82t-35 -82t-82 -34t-82 34t-35 82zM987 116q0 48 35 81.5t82 33.5t82 -33.5t35 -81.5t-35 -82t-82 -34t-82 34t-35 82zM987 701q0 48 35 82t82 34t82 -33.5t35 -82t-35 -82t-82 -33.5t-82 33.5t-35 81.5zM987 994q0 48 35 82t82 34t82 -34t35 -82t-35 -81.5 t-82 -33.5t-82 33.5t-35 81.5zM1280 409q0 48 35 81.5t82 33.5t81.5 -33.5t34.5 -81.5t-34.5 -82t-81.5 -34t-82 34t-35 82z" />
<glyph unicode="&#xd5;" d="M109 409q0 48 34.5 81.5t81.5 33.5t82 -33.5t35 -81.5t-35 -82t-82 -34t-81.5 34t-34.5 82zM109 409q0 48 34.5 81.5t81.5 33.5t82 -33.5t35 -81.5t-35 -82t-82 -34t-81.5 34t-34.5 82zM401 116q0 48 35 81.5t82 33.5t82 -33.5t35 -81.5t-35 -82t-82 -34t-82 34t-35 82z M401 116q0 48 35 81.5t82 33.5t82 -33.5t35 -81.5t-35 -82t-82 -34t-82 34t-35 82zM401 701q0 48 35 82t82 34t82 -33.5t35 -82t-35 -82t-82 -33.5t-82 33.5t-35 81.5zM401 701q0 48 35 82t82 34t82 -33.5t35 -82t-35 -82t-82 -33.5t-82 33.5t-35 81.5zM401 994q0 48 35 82 t82 34t82 -34t35 -82t-35 -81.5t-82 -33.5t-82 33.5t-35 81.5zM694 116q0 48 35 81.5t82 33.5t82 -33.5t35 -81.5t-35 -82t-82 -34t-82 34t-35 82zM694 116q0 48 35 81.5t82 33.5t82 -33.5t35 -81.5t-35 -82t-82 -34t-82 34t-35 82zM694 701q0 48 35 82t82 34t82 -33.5 t35 -82t-35 -82t-82 -33.5t-82 33.5t-35 81.5zM694 701q0 48 35 82t82 34t82 -33.5t35 -82t-35 -82t-82 -33.5t-82 33.5t-35 81.5zM694 1287q0 48 35 82t82 34t82 -34t35 -82t-35 -82t-82 -34t-82 34t-35 82zM694 1287q0 48 35 82t82 34t82 -34t35 -82t-35 -82t-82 -34 t-82 34t-35 82zM987 116q0 48 35 81.5t82 33.5t82 -33.5t35 -81.5t-35 -82t-82 -34t-82 34t-35 82zM987 116q0 48 35 81.5t82 33.5t82 -33.5t35 -81.5t-35 -82t-82 -34t-82 34t-35 82zM987 701q0 48 35 82t82 34t82 -33.5t35 -82t-35 -82t-82 -33.5t-82 33.5t-35 81.5z M987 701q0 48 35 82t82 34t82 -33.5t35 -82t-35 -82t-82 -33.5t-82 33.5t-35 81.5zM987 994q0 48 35 82t82 34t82 -34t35 -82t-35 -81.5t-82 -33.5t-82 33.5t-35 81.5zM1280 409q0 48 35 81.5t82 33.5t81.5 -33.5t34.5 -81.5t-34.5 -82t-81.5 -34t-82 34t-35 82zM1280 409 q0 48 35 81.5t82 33.5t81.5 -33.5t34.5 -81.5t-34.5 -82t-81.5 -34t-82 34t-35 82zM1280 1287q0 48 35 82t82 34t81.5 -34t34.5 -82t-34.5 -82t-81.5 -34t-82 34t-35 82zM1280 1287q0 48 35 82t82 34t81.5 -34t34.5 -82t-34.5 -82t-81.5 -34t-82 34t-35 82z" />
<glyph unicode="&#xd6;" d="M109 409q0 48 34.5 81.5t81.5 33.5t82 -33.5t35 -81.5t-35 -82t-82 -34t-81.5 34t-34.5 82zM401 116q0 48 35 81.5t82 33.5t82 -33.5t35 -81.5t-35 -82t-82 -34t-82 34t-35 82zM401 701q0 48 35 82t82 34t82 -33.5t35 -82t-35 -82t-82 -33.5t-82 33.5t-35 81.5zM401 1287 q0 48 35 82t82 34t82 -34t35 -82t-35 -82t-82 -34t-82 34t-35 82zM694 116q0 48 35 81.5t82 33.5t82 -33.5t35 -81.5t-35 -82t-82 -34t-82 34t-35 82zM694 701q0 48 35 82t82 34t82 -33.5t35 -82t-35 -82t-82 -33.5t-82 33.5t-35 81.5zM987 116q0 48 35 81.5t82 33.5 t82 -33.5t35 -81.5t-35 -82t-82 -34t-82 34t-35 82zM987 701q0 48 35 82t82 34t82 -33.5t35 -82t-35 -82t-82 -33.5t-82 33.5t-35 81.5zM987 1287q0 48 35 82t82 34t82 -34t35 -82t-35 -82t-82 -34t-82 34t-35 82zM1280 409q0 48 35 81.5t82 33.5t81.5 -33.5t34.5 -81.5 t-34.5 -82t-81.5 -34t-82 34t-35 82z" />
<glyph unicode="&#xd7;" d="M401 409q0 48 35 81.5t82 33.5t82 -33.5t35 -81.5t-35 -82t-82 -34t-82 34t-35 82zM401 994q0 48 35 82t82 34t82 -34t35 -82t-35 -81.5t-82 -33.5t-82 33.5t-35 81.5zM694 701q0 48 35 82t82 34t82 -33.5t35 -82t-35 -82t-82 -33.5t-82 33.5t-35 81.5zM987 409 q0 48 35 81.5t82 33.5t82 -33.5t35 -81.5t-35 -82t-82 -34t-82 34t-35 82zM987 994q0 48 35 82t82 34t82 -34t35 -82t-35 -81.5t-82 -33.5t-82 33.5t-35 81.5z" />
<glyph unicode="&#xd8;" d="M109 409q0 48 34.5 81.5t81.5 33.5t82 -33.5t35 -81.5t-35 -82t-82 -34t-81.5 34t-34.5 82zM109 701q0 48 34.5 82t81.5 34t82 -33.5t35 -82t-35 -82t-82 -33.5t-81.5 33.5t-34.5 81.5zM109 994q0 48 34.5 82t81.5 34t82 -34t35 -82t-35 -81.5t-82 -33.5t-81.5 33.5 t-34.5 81.5zM401 116q0 48 35 81.5t82 33.5t82 -33.5t35 -81.5t-35 -82t-82 -34t-82 34t-35 82zM401 409q0 48 35 81.5t82 33.5t82 -33.5t35 -81.5t-35 -82t-82 -34t-82 34t-35 82zM401 1287q0 48 35 82t82 34t82 -34t35 -82t-35 -82t-82 -34t-82 34t-35 82zM694 116 q0 48 35 81.5t82 33.5t82 -33.5t35 -81.5t-35 -82t-82 -34t-82 34t-35 82zM694 701q0 48 35 82t82 34t82 -33.5t35 -82t-35 -82t-82 -33.5t-82 33.5t-35 81.5zM694 1287q0 48 35 82t82 34t82 -34t35 -82t-35 -82t-82 -34t-82 34t-35 82zM987 116q0 48 35 81.5t82 33.5 t82 -33.5t35 -81.5t-35 -82t-82 -34t-82 34t-35 82zM987 994q0 48 35 82t82 34t82 -34t35 -82t-35 -81.5t-82 -33.5t-82 33.5t-35 81.5zM987 1287q0 48 35 82t82 34t82 -34t35 -82t-35 -82t-82 -34t-82 34t-35 82zM1280 409q0 48 35 81.5t82 33.5t81.5 -33.5t34.5 -81.5 t-34.5 -82t-81.5 -34t-82 34t-35 82zM1280 701q0 48 35 82t82 34t81.5 -33.5t34.5 -82t-34.5 -82t-81.5 -33.5t-82 33.5t-35 81.5zM1280 994q0 48 35 82t82 34t81.5 -34t34.5 -82t-34.5 -81.5t-81.5 -33.5t-82 33.5t-35 81.5z" />
<glyph unicode="&#xd9;" d="M109 409q0 48 34.5 81.5t81.5 33.5t82 -33.5t35 -81.5t-35 -82t-82 -34t-81.5 34t-34.5 82zM109 701q0 48 34.5 82t81.5 34t82 -33.5t35 -82t-35 -82t-82 -33.5t-81.5 33.5t-34.5 81.5zM401 116q0 48 35 81.5t82 33.5t82 -33.5t35 -81.5t-35 -82t-82 -34t-82 34t-35 82z M401 1287q0 48 35 82t82 34t82 -34t35 -82t-35 -82t-82 -34t-82 34t-35 82zM694 116q0 48 35 81.5t82 33.5t82 -33.5t35 -81.5t-35 -82t-82 -34t-82 34t-35 82zM694 1287q0 48 35 82t82 34t82 -34t35 -82t-35 -82t-82 -34t-82 34t-35 82zM987 116q0 48 35 81.5t82 33.5 t82 -33.5t35 -81.5t-35 -82t-82 -34t-82 34t-35 82zM1280 409q0 48 35 81.5t82 33.5t81.5 -33.5t34.5 -81.5t-34.5 -82t-81.5 -34t-82 34t-35 82zM1280 701q0 48 35 82t82 34t81.5 -33.5t34.5 -82t-34.5 -82t-81.5 -33.5t-82 33.5t-35 81.5z" />
<glyph unicode="&#xda;" d="M109 409q0 48 34.5 81.5t81.5 33.5t82 -33.5t35 -81.5t-35 -82t-82 -34t-81.5 34t-34.5 82zM109 701q0 48 34.5 82t81.5 34t82 -33.5t35 -82t-35 -82t-82 -33.5t-81.5 33.5t-34.5 81.5zM401 116q0 48 35 81.5t82 33.5t82 -33.5t35 -81.5t-35 -82t-82 -34t-82 34t-35 82z M694 116q0 48 35 81.5t82 33.5t82 -33.5t35 -81.5t-35 -82t-82 -34t-82 34t-35 82zM694 1287q0 48 35 82t82 34t82 -34t35 -82t-35 -82t-82 -34t-82 34t-35 82zM987 116q0 48 35 81.5t82 33.5t82 -33.5t35 -81.5t-35 -82t-82 -34t-82 34t-35 82zM987 1287q0 48 35 82t82 34 t82 -34t35 -82t-35 -82t-82 -34t-82 34t-35 82zM1280 409q0 48 35 81.5t82 33.5t81.5 -33.5t34.5 -81.5t-34.5 -82t-81.5 -34t-82 34t-35 82zM1280 701q0 48 35 82t82 34t81.5 -33.5t34.5 -82t-34.5 -82t-81.5 -33.5t-82 33.5t-35 81.5z" />
<glyph unicode="&#xdb;" d="M109 409q0 48 34.5 81.5t81.5 33.5t82 -33.5t35 -81.5t-35 -82t-82 -34t-81.5 34t-34.5 82zM109 701q0 48 34.5 82t81.5 34t82 -33.5t35 -82t-35 -82t-82 -33.5t-81.5 33.5t-34.5 81.5zM401 116q0 48 35 81.5t82 33.5t82 -33.5t35 -81.5t-35 -82t-82 -34t-82 34t-35 82z M401 994q0 48 35 82t82 34t82 -34t35 -82t-35 -81.5t-82 -33.5t-82 33.5t-35 81.5zM694 116q0 48 35 81.5t82 33.5t82 -33.5t35 -81.5t-35 -82t-82 -34t-82 34t-35 82zM694 1287q0 48 35 82t82 34t82 -34t35 -82t-35 -82t-82 -34t-82 34t-35 82zM987 116q0 48 35 81.5 t82 33.5t82 -33.5t35 -81.5t-35 -82t-82 -34t-82 34t-35 82zM987 994q0 48 35 82t82 34t82 -34t35 -82t-35 -81.5t-82 -33.5t-82 33.5t-35 81.5zM1280 409q0 48 35 81.5t82 33.5t81.5 -33.5t34.5 -81.5t-34.5 -82t-81.5 -34t-82 34t-35 82zM1280 701q0 48 35 82t82 34 t81.5 -33.5t34.5 -82t-34.5 -82t-81.5 -33.5t-82 33.5t-35 81.5z" />
<glyph unicode="&#xdc;" d="M109 409q0 48 34.5 81.5t81.5 33.5t82 -33.5t35 -81.5t-35 -82t-82 -34t-81.5 34t-34.5 82zM109 701q0 48 34.5 82t81.5 34t82 -33.5t35 -82t-35 -82t-82 -33.5t-81.5 33.5t-34.5 81.5zM109 1287q0 48 34.5 82t81.5 34t82 -34t35 -82t-35 -82t-82 -34t-81.5 34t-34.5 82z M401 116q0 48 35 81.5t82 33.5t82 -33.5t35 -81.5t-35 -82t-82 -34t-82 34t-35 82zM694 116q0 48 35 81.5t82 33.5t82 -33.5t35 -81.5t-35 -82t-82 -34t-82 34t-35 82zM987 116q0 48 35 81.5t82 33.5t82 -33.5t35 -81.5t-35 -82t-82 -34t-82 34t-35 82zM1280 409 q0 48 35 81.5t82 33.5t81.5 -33.5t34.5 -81.5t-34.5 -82t-81.5 -34t-82 34t-35 82zM1280 701q0 48 35 82t82 34t81.5 -33.5t34.5 -82t-34.5 -82t-81.5 -33.5t-82 33.5t-35 81.5zM1280 1287q0 48 35 82t82 34t81.5 -34t34.5 -82t-34.5 -82t-81.5 -34t-82 34t-35 82z" />
<glyph unicode="&#xdd;" d="M109 701q0 48 34.5 82t81.5 34t82 -33.5t35 -82t-35 -82t-82 -33.5t-81.5 33.5t-34.5 81.5zM401 409q0 48 35 81.5t82 33.5t82 -33.5t35 -81.5t-35 -82t-82 -34t-82 34t-35 82zM694 116q0 48 35 81.5t82 33.5t82 -33.5t35 -81.5t-35 -82t-82 -34t-82 34t-35 82zM694 409 q0 48 35 81.5t82 33.5t82 -33.5t35 -81.5t-35 -82t-82 -34t-82 34t-35 82zM694 1287q0 48 35 82t82 34t82 -34t35 -82t-35 -82t-82 -34t-82 34t-35 82zM987 409q0 48 35 81.5t82 33.5t82 -33.5t35 -81.5t-35 -82t-82 -34t-82 34t-35 82zM987 1287q0 48 35 82t82 34t82 -34 t35 -82t-35 -82t-82 -34t-82 34t-35 82zM1280 701q0 48 35 82t82 34t81.5 -33.5t34.5 -82t-34.5 -82t-81.5 -33.5t-82 33.5t-35 81.5z" />
<glyph unicode="&#xdf;" d="M109 116q0 48 34.5 81.5t81.5 33.5t82 -33.5t35 -81.5t-35 -82t-82 -34t-81.5 34t-34.5 82zM109 409q0 48 34.5 81.5t81.5 33.5t82 -33.5t35 -81.5t-35 -82t-82 -34t-81.5 34t-34.5 82zM109 701q0 48 34.5 82t81.5 34t82 -33.5t35 -82t-35 -82t-82 -33.5t-81.5 33.5 t-34.5 81.5zM109 994q0 48 34.5 82t81.5 34t82 -34t35 -82t-35 -81.5t-82 -33.5t-81.5 33.5t-34.5 81.5zM401 1287q0 48 35 82t82 34t82 -34t35 -82t-35 -82t-82 -34t-82 34t-35 82zM694 116q0 48 35 81.5t82 33.5t82 -33.5t35 -81.5t-35 -82t-82 -34t-82 34t-35 82z M694 994q0 48 35 82t82 34t82 -34t35 -82t-35 -81.5t-82 -33.5t-82 33.5t-35 81.5zM694 1287q0 48 35 82t82 34t82 -34t35 -82t-35 -82t-82 -34t-82 34t-35 82zM987 116q0 48 35 81.5t82 33.5t82 -33.5t35 -81.5t-35 -82t-82 -34t-82 34t-35 82zM987 701q0 48 35 82t82 34 t82 -33.5t35 -82t-35 -82t-82 -33.5t-82 33.5t-35 81.5zM987 1287q0 48 35 82t82 34t82 -34t35 -82t-35 -82t-82 -34t-82 34t-35 82zM1280 409q0 48 35 81.5t82 33.5t81.5 -33.5t34.5 -81.5t-34.5 -82t-81.5 -34t-82 34t-35 82zM1280 1287q0 48 35 82t82 34t81.5 -34 t34.5 -82t-34.5 -82t-81.5 -34t-82 34t-35 82z" />
<glyph unicode="&#xe0;" d="M109 409q0 48 34.5 81.5t81.5 33.5t82 -33.5t35 -81.5t-35 -82t-82 -34t-81.5 34t-34.5 82zM401 116q0 48 35 81.5t82 33.5t82 -33.5t35 -81.5t-35 -82t-82 -34t-82 34t-35 82zM401 701q0 48 35 82t82 34t82 -33.5t35 -82t-35 -82t-82 -33.5t-82 33.5t-35 81.5zM401 1287 q0 48 35 82t82 34t82 -34t35 -82t-35 -82t-82 -34t-82 34t-35 82zM694 116q0 48 35 81.5t82 33.5t82 -33.5t35 -81.5t-35 -82t-82 -34t-82 34t-35 82zM694 701q0 48 35 82t82 34t82 -33.5t35 -82t-35 -82t-82 -33.5t-82 33.5t-35 81.5zM694 1287q0 48 35 82t82 34t82 -34 t35 -82t-35 -82t-82 -34t-82 34t-35 82zM987 116q0 48 35 81.5t82 33.5t82 -33.5t35 -81.5t-35 -82t-82 -34t-82 34t-35 82zM987 701q0 48 35 82t82 34t82 -33.5t35 -82t-35 -82t-82 -33.5t-82 33.5t-35 81.5zM1280 116q0 48 35 81.5t82 33.5t81.5 -33.5t34.5 -81.5 t-34.5 -82t-81.5 -34t-82 34t-35 82zM1280 409q0 48 35 81.5t82 33.5t81.5 -33.5t34.5 -81.5t-34.5 -82t-81.5 -34t-82 34t-35 82z" />
<glyph unicode="&#xe1;" d="M109 409q0 48 34.5 81.5t81.5 33.5t82 -33.5t35 -81.5t-35 -82t-82 -34t-81.5 34t-34.5 82zM401 116q0 48 35 81.5t82 33.5t82 -33.5t35 -81.5t-35 -82t-82 -34t-82 34t-35 82zM401 701q0 48 35 82t82 34t82 -33.5t35 -82t-35 -82t-82 -33.5t-82 33.5t-35 81.5zM694 116 q0 48 35 81.5t82 33.5t82 -33.5t35 -81.5t-35 -82t-82 -34t-82 34t-35 82zM694 701q0 48 35 82t82 34t82 -33.5t35 -82t-35 -82t-82 -33.5t-82 33.5t-35 81.5zM694 1287q0 48 35 82t82 34t82 -34t35 -82t-35 -82t-82 -34t-82 34t-35 82zM987 116q0 48 35 81.5t82 33.5 t82 -33.5t35 -81.5t-35 -82t-82 -34t-82 34t-35 82zM987 701q0 48 35 82t82 34t82 -33.5t35 -82t-35 -82t-82 -33.5t-82 33.5t-35 81.5zM987 1287q0 48 35 82t82 34t82 -34t35 -82t-35 -82t-82 -34t-82 34t-35 82zM1280 116q0 48 35 81.5t82 33.5t81.5 -33.5t34.5 -81.5 t-34.5 -82t-81.5 -34t-82 34t-35 82zM1280 409q0 48 35 81.5t82 33.5t81.5 -33.5t34.5 -81.5t-34.5 -82t-81.5 -34t-82 34t-35 82z" />
<glyph unicode="&#xe2;" d="M109 409q0 48 34.5 81.5t81.5 33.5t82 -33.5t35 -81.5t-35 -82t-82 -34t-81.5 34t-34.5 82zM401 116q0 48 35 81.5t82 33.5t82 -33.5t35 -81.5t-35 -82t-82 -34t-82 34t-35 82zM401 701q0 48 35 82t82 34t82 -33.5t35 -82t-35 -82t-82 -33.5t-82 33.5t-35 81.5zM401 994 q0 48 35 82t82 34t82 -34t35 -82t-35 -81.5t-82 -33.5t-82 33.5t-35 81.5zM694 116q0 48 35 81.5t82 33.5t82 -33.5t35 -81.5t-35 -82t-82 -34t-82 34t-35 82zM694 701q0 48 35 82t82 34t82 -33.5t35 -82t-35 -82t-82 -33.5t-82 33.5t-35 81.5zM694 1287q0 48 35 82t82 34 t82 -34t35 -82t-35 -82t-82 -34t-82 34t-35 82zM987 116q0 48 35 81.5t82 33.5t82 -33.5t35 -81.5t-35 -82t-82 -34t-82 34t-35 82zM987 701q0 48 35 82t82 34t82 -33.5t35 -82t-35 -82t-82 -33.5t-82 33.5t-35 81.5zM987 994q0 48 35 82t82 34t82 -34t35 -82t-35 -81.5 t-82 -33.5t-82 33.5t-35 81.5zM1280 116q0 48 35 81.5t82 33.5t81.5 -33.5t34.5 -81.5t-34.5 -82t-81.5 -34t-82 34t-35 82zM1280 409q0 48 35 81.5t82 33.5t81.5 -33.5t34.5 -81.5t-34.5 -82t-81.5 -34t-82 34t-35 82z" />
<glyph unicode="&#xe3;" d="M109 409q0 48 34.5 81.5t81.5 33.5t82 -33.5t35 -81.5t-35 -82t-82 -34t-81.5 34t-34.5 82zM401 116q0 48 35 81.5t82 33.5t82 -33.5t35 -81.5t-35 -82t-82 -34t-82 34t-35 82zM401 701q0 48 35 82t82 34t82 -33.5t35 -82t-35 -82t-82 -33.5t-82 33.5t-35 81.5zM401 994 q0 48 35 82t82 34t82 -34t35 -82t-35 -81.5t-82 -33.5t-82 33.5t-35 81.5zM694 116q0 48 35 81.5t82 33.5t82 -33.5t35 -81.5t-35 -82t-82 -34t-82 34t-35 82zM694 701q0 48 35 82t82 34t82 -33.5t35 -82t-35 -82t-82 -33.5t-82 33.5t-35 81.5zM694 1287q0 48 35 82t82 34 t82 -34t35 -82t-35 -82t-82 -34t-82 34t-35 82zM987 116q0 48 35 81.5t82 33.5t82 -33.5t35 -81.5t-35 -82t-82 -34t-82 34t-35 82zM987 701q0 48 35 82t82 34t82 -33.5t35 -82t-35 -82t-82 -33.5t-82 33.5t-35 81.5zM987 994q0 48 35 82t82 34t82 -34t35 -82t-35 -81.5 t-82 -33.5t-82 33.5t-35 81.5zM1280 116q0 48 35 81.5t82 33.5t81.5 -33.5t34.5 -81.5t-34.5 -82t-81.5 -34t-82 34t-35 82zM1280 409q0 48 35 81.5t82 33.5t81.5 -33.5t34.5 -81.5t-34.5 -82t-81.5 -34t-82 34t-35 82zM1280 1287q0 48 35 82t82 34t81.5 -34t34.5 -82 t-34.5 -82t-81.5 -34t-82 34t-35 82z" />
<glyph unicode="&#xe4;" d="M109 409q0 48 34.5 81.5t81.5 33.5t82 -33.5t35 -81.5t-35 -82t-82 -34t-81.5 34t-34.5 82zM401 116q0 48 35 81.5t82 33.5t82 -33.5t35 -81.5t-35 -82t-82 -34t-82 34t-35 82zM401 701q0 48 35 82t82 34t82 -33.5t35 -82t-35 -82t-82 -33.5t-82 33.5t-35 81.5zM401 1287 q0 48 35 82t82 34t82 -34t35 -82t-35 -82t-82 -34t-82 34t-35 82zM694 116q0 48 35 81.5t82 33.5t82 -33.5t35 -81.5t-35 -82t-82 -34t-82 34t-35 82zM694 701q0 48 35 82t82 34t82 -33.5t35 -82t-35 -82t-82 -33.5t-82 33.5t-35 81.5zM987 116q0 48 35 81.5t82 33.5 t82 -33.5t35 -81.5t-35 -82t-82 -34t-82 34t-35 82zM987 701q0 48 35 82t82 34t82 -33.5t35 -82t-35 -82t-82 -33.5t-82 33.5t-35 81.5zM987 1287q0 48 35 82t82 34t82 -34t35 -82t-35 -82t-82 -34t-82 34t-35 82zM1280 116q0 48 35 81.5t82 33.5t81.5 -33.5t34.5 -81.5 t-34.5 -82t-81.5 -34t-82 34t-35 82zM1280 409q0 48 35 81.5t82 33.5t81.5 -33.5t34.5 -81.5t-34.5 -82t-81.5 -34t-82 34t-35 82z" />
<glyph unicode="&#xe5;" d="M109 409q0 48 34.5 81.5t81.5 33.5t82 -33.5t35 -81.5t-35 -82t-82 -34t-81.5 34t-34.5 82zM401 116q0 48 35 81.5t82 33.5t82 -33.5t35 -81.5t-35 -82t-82 -34t-82 34t-35 82zM401 701q0 48 35 82t82 34t82 -33.5t35 -82t-35 -82t-82 -33.5t-82 33.5t-35 81.5zM694 116 q0 48 35 81.5t82 33.5t82 -33.5t35 -81.5t-35 -82t-82 -34t-82 34t-35 82zM694 701q0 48 35 82t82 34t82 -33.5t35 -82t-35 -82t-82 -33.5t-82 33.5t-35 81.5zM694 1287q0 48 35 82t82 34t82 -34t35 -82t-35 -82t-82 -34t-82 34t-35 82zM987 116q0 48 35 81.5t82 33.5 t82 -33.5t35 -81.5t-35 -82t-82 -34t-82 34t-35 82zM987 701q0 48 35 82t82 34t82 -33.5t35 -82t-35 -82t-82 -33.5t-82 33.5t-35 81.5zM1280 116q0 48 35 81.5t82 33.5t81.5 -33.5t34.5 -81.5t-34.5 -82t-81.5 -34t-82 34t-35 82zM1280 409q0 48 35 81.5t82 33.5 t81.5 -33.5t34.5 -81.5t-34.5 -82t-81.5 -34t-82 34t-35 82z" />
<glyph unicode="&#xe6;" d="M109 409q0 48 34.5 81.5t81.5 33.5t82 -33.5t35 -81.5t-35 -82t-82 -34t-81.5 34t-34.5 82zM109 1287q0 48 34.5 82t81.5 34t82 -34t35 -82t-35 -82t-82 -34t-81.5 34t-34.5 82zM401 116q0 48 35 81.5t82 33.5t82 -33.5t35 -81.5t-35 -82t-82 -34t-82 34t-35 82zM401 701 q0 48 35 82t82 34t82 -33.5t35 -82t-35 -82t-82 -33.5t-82 33.5t-35 81.5zM401 1287q0 48 35 82t82 34t82 -34t35 -82t-35 -82t-82 -34t-82 34t-35 82zM694 116q0 48 35 81.5t82 33.5t82 -33.5t35 -81.5t-35 -82t-82 -34t-82 34t-35 82zM694 409q0 48 35 81.5t82 33.5 t82 -33.5t35 -81.5t-35 -82t-82 -34t-82 34t-35 82zM694 701q0 48 35 82t82 34t82 -33.5t35 -82t-35 -82t-82 -33.5t-82 33.5t-35 81.5zM694 994q0 48 35 82t82 34t82 -34t35 -82t-35 -81.5t-82 -33.5t-82 33.5t-35 81.5zM987 116q0 48 35 81.5t82 33.5t82 -33.5t35 -81.5 t-35 -82t-82 -34t-82 34t-35 82zM987 701q0 48 35 82t82 34t82 -33.5t35 -82t-35 -82t-82 -33.5t-82 33.5t-35 81.5zM987 1287q0 48 35 82t82 34t82 -34t35 -82t-35 -82t-82 -34t-82 34t-35 82zM1280 116q0 48 35 81.5t82 33.5t81.5 -33.5t34.5 -81.5t-34.5 -82t-81.5 -34 t-82 34t-35 82zM1280 701q0 48 35 82t82 34t81.5 -33.5t34.5 -82t-34.5 -82t-81.5 -33.5t-82 33.5t-35 81.5zM1280 994q0 48 35 82t82 34t81.5 -34t34.5 -82t-34.5 -81.5t-81.5 -33.5t-82 33.5t-35 81.5z" />
<glyph unicode="&#xe7;" d="M109 409q0 48 34.5 81.5t81.5 33.5t82 -33.5t35 -81.5t-35 -82t-82 -34t-81.5 34t-34.5 82zM109 701q0 48 34.5 82t81.5 34t82 -33.5t35 -82t-35 -82t-82 -33.5t-81.5 33.5t-34.5 81.5zM109 994q0 48 34.5 82t81.5 34t82 -34t35 -82t-35 -81.5t-82 -33.5t-81.5 33.5 t-34.5 81.5zM401 116q0 48 35 81.5t82 33.5t82 -33.5t35 -81.5t-35 -82t-82 -34t-82 34t-35 82zM401 1287q0 48 35 82t82 34t82 -34t35 -82t-35 -82t-82 -34t-82 34t-35 82zM694 116q0 48 35 81.5t82 33.5t82 -33.5t35 -81.5t-35 -82t-82 -34t-82 34t-35 82zM694 409 q0 48 35 81.5t82 33.5t82 -33.5t35 -81.5t-35 -82t-82 -34t-82 34t-35 82zM694 1287q0 48 35 82t82 34t82 -34t35 -82t-35 -82t-82 -34t-82 34t-35 82zM987 116q0 48 35 81.5t82 33.5t82 -33.5t35 -81.5t-35 -82t-82 -34t-82 34t-35 82zM987 1287q0 48 35 82t82 34t82 -34 t35 -82t-35 -82t-82 -34t-82 34t-35 82zM1280 409q0 48 35 81.5t82 33.5t81.5 -33.5t34.5 -81.5t-34.5 -82t-81.5 -34t-82 34t-35 82zM1280 994q0 48 35 82t82 34t81.5 -34t34.5 -82t-34.5 -81.5t-81.5 -33.5t-82 33.5t-35 81.5z" />
<glyph unicode="&#xe8;" d="M109 116q0 48 34.5 81.5t81.5 33.5t82 -33.5t35 -81.5t-35 -82t-82 -34t-81.5 34t-34.5 82zM109 409q0 48 34.5 81.5t81.5 33.5t82 -33.5t35 -81.5t-35 -82t-82 -34t-81.5 34t-34.5 82zM109 701q0 48 34.5 82t81.5 34t82 -33.5t35 -82t-35 -82t-82 -33.5t-81.5 33.5 t-34.5 81.5zM401 116q0 48 35 81.5t82 33.5t82 -33.5t35 -81.5t-35 -82t-82 -34t-82 34t-35 82zM401 409q0 48 35 81.5t82 33.5t82 -33.5t35 -81.5t-35 -82t-82 -34t-82 34t-35 82zM401 701q0 48 35 82t82 34t82 -33.5t35 -82t-35 -82t-82 -33.5t-82 33.5t-35 81.5z M401 1287q0 48 35 82t82 34t82 -34t35 -82t-35 -82t-82 -34t-82 34t-35 82zM694 116q0 48 35 81.5t82 33.5t82 -33.5t35 -81.5t-35 -82t-82 -34t-82 34t-35 82zM694 409q0 48 35 81.5t82 33.5t82 -33.5t35 -81.5t-35 -82t-82 -34t-82 34t-35 82zM694 701q0 48 35 82t82 34 t82 -33.5t35 -82t-35 -82t-82 -33.5t-82 33.5t-35 81.5zM694 1287q0 48 35 82t82 34t82 -34t35 -82t-35 -82t-82 -34t-82 34t-35 82zM987 116q0 48 35 81.5t82 33.5t82 -33.5t35 -81.5t-35 -82t-82 -34t-82 34t-35 82zM987 701q0 48 35 82t82 34t82 -33.5t35 -82t-35 -82 t-82 -33.5t-82 33.5t-35 81.5zM1280 116q0 48 35 81.5t82 33.5t81.5 -33.5t34.5 -81.5t-34.5 -82t-81.5 -34t-82 34t-35 82zM1280 701q0 48 35 82t82 34t81.5 -33.5t34.5 -82t-34.5 -82t-81.5 -33.5t-82 33.5t-35 81.5z" />
<glyph unicode="&#xe9;" d="M109 116q0 48 34.5 81.5t81.5 33.5t82 -33.5t35 -81.5t-35 -82t-82 -34t-81.5 34t-34.5 82zM109 409q0 48 34.5 81.5t81.5 33.5t82 -33.5t35 -81.5t-35 -82t-82 -34t-81.5 34t-34.5 82zM109 701q0 48 34.5 82t81.5 34t82 -33.5t35 -82t-35 -82t-82 -33.5t-81.5 33.5 t-34.5 81.5zM401 116q0 48 35 81.5t82 33.5t82 -33.5t35 -81.5t-35 -82t-82 -34t-82 34t-35 82zM401 409q0 48 35 81.5t82 33.5t82 -33.5t35 -81.5t-35 -82t-82 -34t-82 34t-35 82zM401 701q0 48 35 82t82 34t82 -33.5t35 -82t-35 -82t-82 -33.5t-82 33.5t-35 81.5zM694 116 q0 48 35 81.5t82 33.5t82 -33.5t35 -81.5t-35 -82t-82 -34t-82 34t-35 82zM694 409q0 48 35 81.5t82 33.5t82 -33.5t35 -81.5t-35 -82t-82 -34t-82 34t-35 82zM694 701q0 48 35 82t82 34t82 -33.5t35 -82t-35 -82t-82 -33.5t-82 33.5t-35 81.5zM694 1287q0 48 35 82t82 34 t82 -34t35 -82t-35 -82t-82 -34t-82 34t-35 82zM987 116q0 48 35 81.5t82 33.5t82 -33.5t35 -81.5t-35 -82t-82 -34t-82 34t-35 82zM987 701q0 48 35 82t82 34t82 -33.5t35 -82t-35 -82t-82 -33.5t-82 33.5t-35 81.5zM987 1287q0 48 35 82t82 34t82 -34t35 -82t-35 -82 t-82 -34t-82 34t-35 82zM1280 116q0 48 35 81.5t82 33.5t81.5 -33.5t34.5 -81.5t-34.5 -82t-81.5 -34t-82 34t-35 82zM1280 701q0 48 35 82t82 34t81.5 -33.5t34.5 -82t-34.5 -82t-81.5 -33.5t-82 33.5t-35 81.5z" />
<glyph unicode="&#xea;" d="M109 116q0 48 34.5 81.5t81.5 33.5t82 -33.5t35 -81.5t-35 -82t-82 -34t-81.5 34t-34.5 82zM109 409q0 48 34.5 81.5t81.5 33.5t82 -33.5t35 -81.5t-35 -82t-82 -34t-81.5 34t-34.5 82zM109 701q0 48 34.5 82t81.5 34t82 -33.5t35 -82t-35 -82t-82 -33.5t-81.5 33.5 t-34.5 81.5zM401 116q0 48 35 81.5t82 33.5t82 -33.5t35 -81.5t-35 -82t-82 -34t-82 34t-35 82zM401 409q0 48 35 81.5t82 33.5t82 -33.5t35 -81.5t-35 -82t-82 -34t-82 34t-35 82zM401 701q0 48 35 82t82 34t82 -33.5t35 -82t-35 -82t-82 -33.5t-82 33.5t-35 81.5zM401 994 q0 48 35 82t82 34t82 -34t35 -82t-35 -81.5t-82 -33.5t-82 33.5t-35 81.5zM694 116q0 48 35 81.5t82 33.5t82 -33.5t35 -81.5t-35 -82t-82 -34t-82 34t-35 82zM694 409q0 48 35 81.5t82 33.5t82 -33.5t35 -81.5t-35 -82t-82 -34t-82 34t-35 82zM694 701q0 48 35 82t82 34 t82 -33.5t35 -82t-35 -82t-82 -33.5t-82 33.5t-35 81.5zM694 1287q0 48 35 82t82 34t82 -34t35 -82t-35 -82t-82 -34t-82 34t-35 82zM987 116q0 48 35 81.5t82 33.5t82 -33.5t35 -81.5t-35 -82t-82 -34t-82 34t-35 82zM987 701q0 48 35 82t82 34t82 -33.5t35 -82t-35 -82 t-82 -33.5t-82 33.5t-35 81.5zM987 994q0 48 35 82t82 34t82 -34t35 -82t-35 -81.5t-82 -33.5t-82 33.5t-35 81.5zM1280 116q0 48 35 81.5t82 33.5t81.5 -33.5t34.5 -81.5t-34.5 -82t-81.5 -34t-82 34t-35 82zM1280 701q0 48 35 82t82 34t81.5 -33.5t34.5 -82t-34.5 -82 t-81.5 -33.5t-82 33.5t-35 81.5z" />
<glyph unicode="&#xeb;" d="M109 116q0 48 34.5 81.5t81.5 33.5t82 -33.5t35 -81.5t-35 -82t-82 -34t-81.5 34t-34.5 82zM109 409q0 48 34.5 81.5t81.5 33.5t82 -33.5t35 -81.5t-35 -82t-82 -34t-81.5 34t-34.5 82zM109 701q0 48 34.5 82t81.5 34t82 -33.5t35 -82t-35 -82t-82 -33.5t-81.5 33.5 t-34.5 81.5zM401 116q0 48 35 81.5t82 33.5t82 -33.5t35 -81.5t-35 -82t-82 -34t-82 34t-35 82zM401 409q0 48 35 81.5t82 33.5t82 -33.5t35 -81.5t-35 -82t-82 -34t-82 34t-35 82zM401 701q0 48 35 82t82 34t82 -33.5t35 -82t-35 -82t-82 -33.5t-82 33.5t-35 81.5z M401 1287q0 48 35 82t82 34t82 -34t35 -82t-35 -82t-82 -34t-82 34t-35 82zM694 116q0 48 35 81.5t82 33.5t82 -33.5t35 -81.5t-35 -82t-82 -34t-82 34t-35 82zM694 409q0 48 35 81.5t82 33.5t82 -33.5t35 -81.5t-35 -82t-82 -34t-82 34t-35 82zM694 701q0 48 35 82t82 34 t82 -33.5t35 -82t-35 -82t-82 -33.5t-82 33.5t-35 81.5zM987 116q0 48 35 81.5t82 33.5t82 -33.5t35 -81.5t-35 -82t-82 -34t-82 34t-35 82zM987 701q0 48 35 82t82 34t82 -33.5t35 -82t-35 -82t-82 -33.5t-82 33.5t-35 81.5zM987 1287q0 48 35 82t82 34t82 -34t35 -82 t-35 -82t-82 -34t-82 34t-35 82zM1280 116q0 48 35 81.5t82 33.5t81.5 -33.5t34.5 -81.5t-34.5 -82t-81.5 -34t-82 34t-35 82zM1280 701q0 48 35 82t82 34t81.5 -33.5t34.5 -82t-34.5 -82t-81.5 -33.5t-82 33.5t-35 81.5z" />
<glyph unicode="&#xec;" horiz-adv-x="741" d="M109 1287q0 48 33.5 82t81.5 34t82 -34t34 -82t-34 -82t-82 -34t-81.5 34t-33.5 82zM401 116q0 48 34 81.5t82 33.5t82 -33.5t34 -81.5t-34 -82t-82 -34t-82 34t-34 82zM401 409q0 48 34 81.5t82 33.5t82 -33.5t34 -81.5t-34 -82t-82 -34t-82 34t-34 82zM401 994 q0 48 34 82t82 34t82 -34t34 -82t-34 -81.5t-82 -33.5t-82 33.5t-34 81.5z" />
<glyph unicode="&#xed;" horiz-adv-x="741" d="M109 116q0 48 33.5 81.5t81.5 33.5t82 -33.5t34 -81.5t-34 -82t-82 -34t-81.5 34t-33.5 82zM109 409q0 48 33.5 81.5t81.5 33.5t82 -33.5t34 -81.5t-34 -82t-82 -34t-81.5 34t-33.5 82zM109 994q0 48 33.5 82t81.5 34t82 -34t34 -82t-34 -81.5t-82 -33.5t-81.5 33.5 t-33.5 81.5zM401 1287q0 48 34 82t82 34t82 -34t34 -82t-34 -82t-82 -34t-82 34t-34 82z" />
<glyph unicode="&#xee;" horiz-adv-x="1036" d="M109 994q0 48 34.5 82t81.5 34t82 -34t35 -82t-35 -81.5t-82 -33.5t-81.5 33.5t-34.5 81.5zM401 116q0 48 35 81.5t82 33.5t82 -33.5t35 -81.5t-35 -82t-82 -34t-82 34t-35 82zM401 409q0 48 35 81.5t82 33.5t82 -33.5t35 -81.5t-35 -82t-82 -34t-82 34t-35 82zM401 701 q0 48 35 82t82 34t82 -33.5t35 -82t-35 -82t-82 -33.5t-82 33.5t-35 81.5zM401 1287q0 48 35 82t82 34t82 -34t35 -82t-35 -82t-82 -34t-82 34t-35 82zM694 994q0 48 35 82t82 34t82 -34t35 -82t-35 -81.5t-82 -33.5t-82 33.5t-35 81.5z" />
<glyph unicode="&#xef;" horiz-adv-x="1036" d="M109 1287q0 48 34.5 82t81.5 34t82 -34t35 -82t-35 -82t-82 -34t-81.5 34t-34.5 82zM401 116q0 48 35 81.5t82 33.5t82 -33.5t35 -81.5t-35 -82t-82 -34t-82 34t-35 82zM401 409q0 48 35 81.5t82 33.5t82 -33.5t35 -81.5t-35 -82t-82 -34t-82 34t-35 82zM401 701 q0 48 35 82t82 34t82 -33.5t35 -82t-35 -82t-82 -33.5t-82 33.5t-35 81.5zM694 1287q0 48 35 82t82 34t82 -34t35 -82t-35 -82t-82 -34t-82 34t-35 82z" />
<glyph unicode="&#xf1;" d="M109 116q0 48 34.5 81.5t81.5 33.5t82 -33.5t35 -81.5t-35 -82t-82 -34t-81.5 34t-34.5 82zM109 409q0 48 34.5 81.5t81.5 33.5t82 -33.5t35 -81.5t-35 -82t-82 -34t-81.5 34t-34.5 82zM109 701q0 48 34.5 82t81.5 34t82 -33.5t35 -82t-35 -82t-82 -33.5t-81.5 33.5 t-34.5 81.5zM401 701q0 48 35 82t82 34t82 -33.5t35 -82t-35 -82t-82 -33.5t-82 33.5t-35 81.5zM401 994q0 48 35 82t82 34t82 -34t35 -82t-35 -81.5t-82 -33.5t-82 33.5t-35 81.5zM694 409q0 48 35 81.5t82 33.5t82 -33.5t35 -81.5t-35 -82t-82 -34t-82 34t-35 82z M694 1287q0 48 35 82t82 34t82 -34t35 -82t-35 -82t-82 -34t-82 34t-35 82zM987 116q0 48 35 81.5t82 33.5t82 -33.5t35 -81.5t-35 -82t-82 -34t-82 34t-35 82zM987 994q0 48 35 82t82 34t82 -34t35 -82t-35 -81.5t-82 -33.5t-82 33.5t-35 81.5zM1280 116q0 48 35 81.5 t82 33.5t81.5 -33.5t34.5 -81.5t-34.5 -82t-81.5 -34t-82 34t-35 82zM1280 409q0 48 35 81.5t82 33.5t81.5 -33.5t34.5 -81.5t-34.5 -82t-81.5 -34t-82 34t-35 82zM1280 701q0 48 35 82t82 34t81.5 -33.5t34.5 -82t-34.5 -82t-81.5 -33.5t-82 33.5t-35 81.5zM1280 1287 q0 48 35 82t82 34t81.5 -34t34.5 -82t-34.5 -82t-81.5 -34t-82 34t-35 82z" />
<glyph unicode="&#xf2;" d="M109 409q0 48 34.5 81.5t81.5 33.5t82 -33.5t35 -81.5t-35 -82t-82 -34t-81.5 34t-34.5 82zM401 116q0 48 35 81.5t82 33.5t82 -33.5t35 -81.5t-35 -82t-82 -34t-82 34t-35 82zM401 701q0 48 35 82t82 34t82 -33.5t35 -82t-35 -82t-82 -33.5t-82 33.5t-35 81.5zM401 1287 q0 48 35 82t82 34t82 -34t35 -82t-35 -82t-82 -34t-82 34t-35 82zM694 116q0 48 35 81.5t82 33.5t82 -33.5t35 -81.5t-35 -82t-82 -34t-82 34t-35 82zM694 701q0 48 35 82t82 34t82 -33.5t35 -82t-35 -82t-82 -33.5t-82 33.5t-35 81.5zM694 1287q0 48 35 82t82 34t82 -34 t35 -82t-35 -82t-82 -34t-82 34t-35 82zM987 116q0 48 35 81.5t82 33.5t82 -33.5t35 -81.5t-35 -82t-82 -34t-82 34t-35 82zM987 701q0 48 35 82t82 34t82 -33.5t35 -82t-35 -82t-82 -33.5t-82 33.5t-35 81.5zM1280 409q0 48 35 81.5t82 33.5t81.5 -33.5t34.5 -81.5 t-34.5 -82t-81.5 -34t-82 34t-35 82z" />
<glyph unicode="&#xf3;" d="M109 409q0 48 34.5 81.5t81.5 33.5t82 -33.5t35 -81.5t-35 -82t-82 -34t-81.5 34t-34.5 82zM401 116q0 48 35 81.5t82 33.5t82 -33.5t35 -81.5t-35 -82t-82 -34t-82 34t-35 82zM401 701q0 48 35 82t82 34t82 -33.5t35 -82t-35 -82t-82 -33.5t-82 33.5t-35 81.5zM694 116 q0 48 35 81.5t82 33.5t82 -33.5t35 -81.5t-35 -82t-82 -34t-82 34t-35 82zM694 701q0 48 35 82t82 34t82 -33.5t35 -82t-35 -82t-82 -33.5t-82 33.5t-35 81.5zM694 1287q0 48 35 82t82 34t82 -34t35 -82t-35 -82t-82 -34t-82 34t-35 82zM987 116q0 48 35 81.5t82 33.5 t82 -33.5t35 -81.5t-35 -82t-82 -34t-82 34t-35 82zM987 701q0 48 35 82t82 34t82 -33.5t35 -82t-35 -82t-82 -33.5t-82 33.5t-35 81.5zM987 1287q0 48 35 82t82 34t82 -34t35 -82t-35 -82t-82 -34t-82 34t-35 82zM1280 409q0 48 35 81.5t82 33.5t81.5 -33.5t34.5 -81.5 t-34.5 -82t-81.5 -34t-82 34t-35 82z" />
<glyph unicode="&#xf4;" d="M109 409q0 48 34.5 81.5t81.5 33.5t82 -33.5t35 -81.5t-35 -82t-82 -34t-81.5 34t-34.5 82zM401 116q0 48 35 81.5t82 33.5t82 -33.5t35 -81.5t-35 -82t-82 -34t-82 34t-35 82zM401 701q0 48 35 82t82 34t82 -33.5t35 -82t-35 -82t-82 -33.5t-82 33.5t-35 81.5zM401 994 q0 48 35 82t82 34t82 -34t35 -82t-35 -81.5t-82 -33.5t-82 33.5t-35 81.5zM694 116q0 48 35 81.5t82 33.5t82 -33.5t35 -81.5t-35 -82t-82 -34t-82 34t-35 82zM694 701q0 48 35 82t82 34t82 -33.5t35 -82t-35 -82t-82 -33.5t-82 33.5t-35 81.5zM694 1287q0 48 35 82t82 34 t82 -34t35 -82t-35 -82t-82 -34t-82 34t-35 82zM987 116q0 48 35 81.5t82 33.5t82 -33.5t35 -81.5t-35 -82t-82 -34t-82 34t-35 82zM987 701q0 48 35 82t82 34t82 -33.5t35 -82t-35 -82t-82 -33.5t-82 33.5t-35 81.5zM987 994q0 48 35 82t82 34t82 -34t35 -82t-35 -81.5 t-82 -33.5t-82 33.5t-35 81.5zM1280 409q0 48 35 81.5t82 33.5t81.5 -33.5t34.5 -81.5t-34.5 -82t-81.5 -34t-82 34t-35 82z" />
<glyph unicode="&#xf5;" d="M109 409q0 48 34.5 81.5t81.5 33.5t82 -33.5t35 -81.5t-35 -82t-82 -34t-81.5 34t-34.5 82zM109 409q0 48 34.5 81.5t81.5 33.5t82 -33.5t35 -81.5t-35 -82t-82 -34t-81.5 34t-34.5 82zM401 116q0 48 35 81.5t82 33.5t82 -33.5t35 -81.5t-35 -82t-82 -34t-82 34t-35 82z M401 116q0 48 35 81.5t82 33.5t82 -33.5t35 -81.5t-35 -82t-82 -34t-82 34t-35 82zM401 701q0 48 35 82t82 34t82 -33.5t35 -82t-35 -82t-82 -33.5t-82 33.5t-35 81.5zM401 701q0 48 35 82t82 34t82 -33.5t35 -82t-35 -82t-82 -33.5t-82 33.5t-35 81.5zM401 994q0 48 35 82 t82 34t82 -34t35 -82t-35 -81.5t-82 -33.5t-82 33.5t-35 81.5zM694 116q0 48 35 81.5t82 33.5t82 -33.5t35 -81.5t-35 -82t-82 -34t-82 34t-35 82zM694 116q0 48 35 81.5t82 33.5t82 -33.5t35 -81.5t-35 -82t-82 -34t-82 34t-35 82zM694 701q0 48 35 82t82 34t82 -33.5 t35 -82t-35 -82t-82 -33.5t-82 33.5t-35 81.5zM694 701q0 48 35 82t82 34t82 -33.5t35 -82t-35 -82t-82 -33.5t-82 33.5t-35 81.5zM694 1287q0 48 35 82t82 34t82 -34t35 -82t-35 -82t-82 -34t-82 34t-35 82zM694 1287q0 48 35 82t82 34t82 -34t35 -82t-35 -82t-82 -34 t-82 34t-35 82zM987 116q0 48 35 81.5t82 33.5t82 -33.5t35 -81.5t-35 -82t-82 -34t-82 34t-35 82zM987 116q0 48 35 81.5t82 33.5t82 -33.5t35 -81.5t-35 -82t-82 -34t-82 34t-35 82zM987 701q0 48 35 82t82 34t82 -33.5t35 -82t-35 -82t-82 -33.5t-82 33.5t-35 81.5z M987 701q0 48 35 82t82 34t82 -33.5t35 -82t-35 -82t-82 -33.5t-82 33.5t-35 81.5zM987 994q0 48 35 82t82 34t82 -34t35 -82t-35 -81.5t-82 -33.5t-82 33.5t-35 81.5zM1280 409q0 48 35 81.5t82 33.5t81.5 -33.5t34.5 -81.5t-34.5 -82t-81.5 -34t-82 34t-35 82zM1280 409 q0 48 35 81.5t82 33.5t81.5 -33.5t34.5 -81.5t-34.5 -82t-81.5 -34t-82 34t-35 82zM1280 1287q0 48 35 82t82 34t81.5 -34t34.5 -82t-34.5 -82t-81.5 -34t-82 34t-35 82zM1280 1287q0 48 35 82t82 34t81.5 -34t34.5 -82t-34.5 -82t-81.5 -34t-82 34t-35 82z" />
<glyph unicode="&#xf6;" d="M109 409q0 48 34.5 81.5t81.5 33.5t82 -33.5t35 -81.5t-35 -82t-82 -34t-81.5 34t-34.5 82zM401 116q0 48 35 81.5t82 33.5t82 -33.5t35 -81.5t-35 -82t-82 -34t-82 34t-35 82zM401 701q0 48 35 82t82 34t82 -33.5t35 -82t-35 -82t-82 -33.5t-82 33.5t-35 81.5zM401 1287 q0 48 35 82t82 34t82 -34t35 -82t-35 -82t-82 -34t-82 34t-35 82zM694 116q0 48 35 81.5t82 33.5t82 -33.5t35 -81.5t-35 -82t-82 -34t-82 34t-35 82zM694 701q0 48 35 82t82 34t82 -33.5t35 -82t-35 -82t-82 -33.5t-82 33.5t-35 81.5zM987 116q0 48 35 81.5t82 33.5 t82 -33.5t35 -81.5t-35 -82t-82 -34t-82 34t-35 82zM987 701q0 48 35 82t82 34t82 -33.5t35 -82t-35 -82t-82 -33.5t-82 33.5t-35 81.5zM987 1287q0 48 35 82t82 34t82 -34t35 -82t-35 -82t-82 -34t-82 34t-35 82zM1280 409q0 48 35 81.5t82 33.5t81.5 -33.5t34.5 -81.5 t-34.5 -82t-81.5 -34t-82 34t-35 82z" />
<glyph unicode="&#xf8;" d="M109 409q0 48 34.5 81.5t81.5 33.5t82 -33.5t35 -81.5t-35 -82t-82 -34t-81.5 34t-34.5 82zM109 701q0 48 34.5 82t81.5 34t82 -33.5t35 -82t-35 -82t-82 -33.5t-81.5 33.5t-34.5 81.5zM109 994q0 48 34.5 82t81.5 34t82 -34t35 -82t-35 -81.5t-82 -33.5t-81.5 33.5 t-34.5 81.5zM401 116q0 48 35 81.5t82 33.5t82 -33.5t35 -81.5t-35 -82t-82 -34t-82 34t-35 82zM401 409q0 48 35 81.5t82 33.5t82 -33.5t35 -81.5t-35 -82t-82 -34t-82 34t-35 82zM401 1287q0 48 35 82t82 34t82 -34t35 -82t-35 -82t-82 -34t-82 34t-35 82zM694 116 q0 48 35 81.5t82 33.5t82 -33.5t35 -81.5t-35 -82t-82 -34t-82 34t-35 82zM694 701q0 48 35 82t82 34t82 -33.5t35 -82t-35 -82t-82 -33.5t-82 33.5t-35 81.5zM694 1287q0 48 35 82t82 34t82 -34t35 -82t-35 -82t-82 -34t-82 34t-35 82zM987 116q0 48 35 81.5t82 33.5 t82 -33.5t35 -81.5t-35 -82t-82 -34t-82 34t-35 82zM987 994q0 48 35 82t82 34t82 -34t35 -82t-35 -81.5t-82 -33.5t-82 33.5t-35 81.5zM987 1287q0 48 35 82t82 34t82 -34t35 -82t-35 -82t-82 -34t-82 34t-35 82zM1280 409q0 48 35 81.5t82 33.5t81.5 -33.5t34.5 -81.5 t-34.5 -82t-81.5 -34t-82 34t-35 82zM1280 701q0 48 35 82t82 34t81.5 -33.5t34.5 -82t-34.5 -82t-81.5 -33.5t-82 33.5t-35 81.5zM1280 994q0 48 35 82t82 34t81.5 -34t34.5 -82t-34.5 -81.5t-81.5 -33.5t-82 33.5t-35 81.5z" />
<glyph unicode="&#xf9;" d="M109 409q0 48 34.5 81.5t81.5 33.5t82 -33.5t35 -81.5t-35 -82t-82 -34t-81.5 34t-34.5 82zM109 701q0 48 34.5 82t81.5 34t82 -33.5t35 -82t-35 -82t-82 -33.5t-81.5 33.5t-34.5 81.5zM401 116q0 48 35 81.5t82 33.5t82 -33.5t35 -81.5t-35 -82t-82 -34t-82 34t-35 82z M401 1287q0 48 35 82t82 34t82 -34t35 -82t-35 -82t-82 -34t-82 34t-35 82zM694 116q0 48 35 81.5t82 33.5t82 -33.5t35 -81.5t-35 -82t-82 -34t-82 34t-35 82zM694 1287q0 48 35 82t82 34t82 -34t35 -82t-35 -82t-82 -34t-82 34t-35 82zM987 116q0 48 35 81.5t82 33.5 t82 -33.5t35 -81.5t-35 -82t-82 -34t-82 34t-35 82zM1280 409q0 48 35 81.5t82 33.5t81.5 -33.5t34.5 -81.5t-34.5 -82t-81.5 -34t-82 34t-35 82zM1280 701q0 48 35 82t82 34t81.5 -33.5t34.5 -82t-34.5 -82t-81.5 -33.5t-82 33.5t-35 81.5z" />
<glyph unicode="&#xfa;" d="M109 409q0 48 34.5 81.5t81.5 33.5t82 -33.5t35 -81.5t-35 -82t-82 -34t-81.5 34t-34.5 82zM109 701q0 48 34.5 82t81.5 34t82 -33.5t35 -82t-35 -82t-82 -33.5t-81.5 33.5t-34.5 81.5zM401 116q0 48 35 81.5t82 33.5t82 -33.5t35 -81.5t-35 -82t-82 -34t-82 34t-35 82z M694 116q0 48 35 81.5t82 33.5t82 -33.5t35 -81.5t-35 -82t-82 -34t-82 34t-35 82zM694 1287q0 48 35 82t82 34t82 -34t35 -82t-35 -82t-82 -34t-82 34t-35 82zM987 116q0 48 35 81.5t82 33.5t82 -33.5t35 -81.5t-35 -82t-82 -34t-82 34t-35 82zM987 1287q0 48 35 82t82 34 t82 -34t35 -82t-35 -82t-82 -34t-82 34t-35 82zM1280 409q0 48 35 81.5t82 33.5t81.5 -33.5t34.5 -81.5t-34.5 -82t-81.5 -34t-82 34t-35 82zM1280 701q0 48 35 82t82 34t81.5 -33.5t34.5 -82t-34.5 -82t-81.5 -33.5t-82 33.5t-35 81.5z" />
<glyph unicode="&#xfb;" d="M109 409q0 48 34.5 81.5t81.5 33.5t82 -33.5t35 -81.5t-35 -82t-82 -34t-81.5 34t-34.5 82zM109 701q0 48 34.5 82t81.5 34t82 -33.5t35 -82t-35 -82t-82 -33.5t-81.5 33.5t-34.5 81.5zM401 116q0 48 35 81.5t82 33.5t82 -33.5t35 -81.5t-35 -82t-82 -34t-82 34t-35 82z M401 994q0 48 35 82t82 34t82 -34t35 -82t-35 -81.5t-82 -33.5t-82 33.5t-35 81.5zM694 116q0 48 35 81.5t82 33.5t82 -33.5t35 -81.5t-35 -82t-82 -34t-82 34t-35 82zM694 1287q0 48 35 82t82 34t82 -34t35 -82t-35 -82t-82 -34t-82 34t-35 82zM987 116q0 48 35 81.5 t82 33.5t82 -33.5t35 -81.5t-35 -82t-82 -34t-82 34t-35 82zM987 994q0 48 35 82t82 34t82 -34t35 -82t-35 -81.5t-82 -33.5t-82 33.5t-35 81.5zM1280 409q0 48 35 81.5t82 33.5t81.5 -33.5t34.5 -81.5t-34.5 -82t-81.5 -34t-82 34t-35 82zM1280 701q0 48 35 82t82 34 t81.5 -33.5t34.5 -82t-34.5 -82t-81.5 -33.5t-82 33.5t-35 81.5z" />
<glyph unicode="&#xfc;" d="M109 409q0 48 34.5 81.5t81.5 33.5t82 -33.5t35 -81.5t-35 -82t-82 -34t-81.5 34t-34.5 82zM109 701q0 48 34.5 82t81.5 34t82 -33.5t35 -82t-35 -82t-82 -33.5t-81.5 33.5t-34.5 81.5zM109 1287q0 48 34.5 82t81.5 34t82 -34t35 -82t-35 -82t-82 -34t-81.5 34t-34.5 82z M401 116q0 48 35 81.5t82 33.5t82 -33.5t35 -81.5t-35 -82t-82 -34t-82 34t-35 82zM694 116q0 48 35 81.5t82 33.5t82 -33.5t35 -81.5t-35 -82t-82 -34t-82 34t-35 82zM987 116q0 48 35 81.5t82 33.5t82 -33.5t35 -81.5t-35 -82t-82 -34t-82 34t-35 82zM1280 409 q0 48 35 81.5t82 33.5t81.5 -33.5t34.5 -81.5t-34.5 -82t-81.5 -34t-82 34t-35 82zM1280 701q0 48 35 82t82 34t81.5 -33.5t34.5 -82t-34.5 -82t-81.5 -33.5t-82 33.5t-35 81.5zM1280 1287q0 48 35 82t82 34t81.5 -34t34.5 -82t-34.5 -82t-81.5 -34t-82 34t-35 82z" />
<glyph unicode="&#xfd;" d="M109 701q0 48 34.5 82t81.5 34t82 -33.5t35 -82t-35 -82t-82 -33.5t-81.5 33.5t-34.5 81.5zM401 409q0 48 35 81.5t82 33.5t82 -33.5t35 -81.5t-35 -82t-82 -34t-82 34t-35 82zM694 116q0 48 35 81.5t82 33.5t82 -33.5t35 -81.5t-35 -82t-82 -34t-82 34t-35 82zM694 409 q0 48 35 81.5t82 33.5t82 -33.5t35 -81.5t-35 -82t-82 -34t-82 34t-35 82zM694 1287q0 48 35 82t82 34t82 -34t35 -82t-35 -82t-82 -34t-82 34t-35 82zM987 409q0 48 35 81.5t82 33.5t82 -33.5t35 -81.5t-35 -82t-82 -34t-82 34t-35 82zM987 1287q0 48 35 82t82 34t82 -34 t35 -82t-35 -82t-82 -34t-82 34t-35 82zM1280 701q0 48 35 82t82 34t81.5 -33.5t34.5 -82t-34.5 -82t-81.5 -33.5t-82 33.5t-35 81.5z" />
<glyph unicode="&#xff;" d="M109 701q0 48 34.5 82t81.5 34t82 -33.5t35 -82t-35 -82t-82 -33.5t-81.5 33.5t-34.5 81.5zM109 1287q0 48 34.5 82t81.5 34t82 -34t35 -82t-35 -82t-82 -34t-81.5 34t-34.5 82zM401 409q0 48 35 81.5t82 33.5t82 -33.5t35 -81.5t-35 -82t-82 -34t-82 34t-35 82zM694 409 q0 48 35 81.5t82 33.5t82 -33.5t35 -81.5t-35 -82t-82 -34t-82 34t-35 82zM987 409q0 48 35 81.5t82 33.5t82 -33.5t35 -81.5t-35 -82t-82 -34t-82 34t-35 82zM1280 116q0 48 35 81.5t82 33.5t81.5 -33.5t34.5 -81.5t-34.5 -82t-81.5 -34t-82 34t-35 82zM1280 409 q0 48 35 81.5t82 33.5t81.5 -33.5t34.5 -81.5t-34.5 -82t-81.5 -34t-82 34t-35 82zM1280 701q0 48 35 82t82 34t81.5 -33.5t34.5 -82t-34.5 -82t-81.5 -33.5t-82 33.5t-35 81.5zM1280 1287q0 48 35 82t82 34t81.5 -34t34.5 -82t-34.5 -82t-81.5 -34t-82 34t-35 82z" />
<glyph unicode="&#x2000;" horiz-adv-x="701" />
<glyph unicode="&#x2001;" horiz-adv-x="1403" />
<glyph unicode="&#x2002;" horiz-adv-x="701" />
<glyph unicode="&#x2003;" horiz-adv-x="1403" />
<glyph unicode="&#x2004;" horiz-adv-x="467" />
<glyph unicode="&#x2005;" horiz-adv-x="350" />
<glyph unicode="&#x2006;" horiz-adv-x="233" />
<glyph unicode="&#x2007;" horiz-adv-x="233" />
<glyph unicode="&#x2008;" horiz-adv-x="175" />
<glyph unicode="&#x2009;" horiz-adv-x="280" />
<glyph unicode="&#x200a;" horiz-adv-x="77" />
<glyph unicode="&#x2010;" horiz-adv-x="1036" d="M109 701q0 48 34.5 82t81.5 34t82 -33.5t35 -82t-35 -82t-82 -33.5t-81.5 33.5t-34.5 81.5zM401 701q0 48 35 82t82 34t82 -33.5t35 -82t-35 -82t-82 -33.5t-82 33.5t-35 81.5zM694 701q0 48 35 82t82 34t82 -33.5t35 -82t-35 -82t-82 -33.5t-82 33.5t-35 81.5z" />
<glyph unicode="&#x2011;" horiz-adv-x="1036" d="M109 701q0 48 34.5 82t81.5 34t82 -33.5t35 -82t-35 -82t-82 -33.5t-81.5 33.5t-34.5 81.5zM401 701q0 48 35 82t82 34t82 -33.5t35 -82t-35 -82t-82 -33.5t-82 33.5t-35 81.5zM694 701q0 48 35 82t82 34t82 -33.5t35 -82t-35 -82t-82 -33.5t-82 33.5t-35 81.5z" />
<glyph unicode="&#x2012;" horiz-adv-x="1036" d="M109 701q0 48 34.5 82t81.5 34t82 -33.5t35 -82t-35 -82t-82 -33.5t-81.5 33.5t-34.5 81.5zM401 701q0 48 35 82t82 34t82 -33.5t35 -82t-35 -82t-82 -33.5t-82 33.5t-35 81.5zM694 701q0 48 35 82t82 34t82 -33.5t35 -82t-35 -82t-82 -33.5t-82 33.5t-35 81.5z" />
<glyph unicode="&#x2013;" horiz-adv-x="1241" d="M109 701q0 48 43 82t102 34t102.5 -33.5t43.5 -82t-43.5 -82t-102.5 -33.5t-102 33.5t-43 81.5zM474 701q0 48 44 82t102 34q59 0 103 -33.5t44 -82t-44 -82t-103 -33.5q-58 0 -102 33.5t-44 81.5zM840 701q0 48 44 82t103 34q58 0 102 -33.5t44 -82t-44 -82t-102 -33.5 q-59 0 -103 33.5t-44 81.5z" />
<glyph unicode="&#x2014;" horiz-adv-x="2265" d="M109 701q0 48 86.5 82t203.5 34q118 0 205.5 -33.5t87.5 -82t-87.5 -82t-205.5 -33.5q-117 0 -203.5 33.5t-86.5 81.5zM839 701q0 48 87.5 82t205.5 34q117 0 204.5 -33.5t87.5 -82t-87.5 -82t-204.5 -33.5q-118 0 -205.5 33.5t-87.5 81.5zM1572 701q0 48 87.5 82 t204.5 34q118 0 205.5 -33.5t87.5 -82t-87.5 -82t-205.5 -33.5q-117 0 -204.5 33.5t-87.5 81.5z" />
<glyph unicode="&#x202f;" horiz-adv-x="280" />
<glyph unicode="&#x205f;" horiz-adv-x="350" />
<glyph unicode="&#xe000;" horiz-adv-x="1402" d="M0 0v1403h1403v-1403h-1403z" />
</font>
</defs>
</svg>
